M48
;DRILL file {KiCad 5.0.2-bee76a0~70~ubuntu18.04.1} date 2019年05月23日 01時45分50秒
;FORMAT={-:-/ absolute / metric / decimal}
FMAT,2
METRIC,TZ
T1C0.400
T2C0.700
T3C0.813
T4C0.813
T5C1.000
T6C1.300
T7C1.499
T8C1.800
T9C2.200
T10C3.988
%
G90
G05
T1
X83.412Y-71.16
X83.7Y-70.153
X84.335Y-42.51
X84.97Y-59.655
X88.78Y-39.97
X90.685Y-74.26
X93.86Y-56.48
X95.765Y-42.51
X102.115Y-42.51
X102.115Y-54.575
X105.29Y-90.135
X115.107Y-74.244
X121.8Y-32.985
T2
X75.99Y-105.28
X83.79Y-105.28
X75.99Y-86.23
X83.79Y-86.23
X95.04Y-95.755
X102.84Y-95.755
X109.1Y-28.
X116.9Y-28.
X95.1Y-115.
X102.9Y-115.
X114.09Y-86.23
X121.89Y-86.23
X114.09Y-105.28
X121.89Y-105.28
X95.04Y-76.705
X102.84Y-76.705
T3
X108.465Y-37.62
X108.465Y-40.16
X108.465Y-42.7
X108.465Y-45.24
T4
X76.08Y-33.175
X76.08Y-48.415
X78.62Y-33.175
X78.62Y-48.415
X81.16Y-33.175
X81.16Y-48.415
X83.7Y-33.175
X83.7Y-48.415
X86.24Y-33.175
X86.24Y-48.415
X88.78Y-33.175
X88.78Y-48.415
X91.32Y-33.175
X91.32Y-48.415
X93.86Y-33.175
X93.86Y-48.415
X96.4Y-33.175
X96.4Y-48.415
X98.94Y-33.175
X98.94Y-48.415
X101.48Y-33.175
X101.48Y-48.415
X104.02Y-33.175
X104.02Y-48.415
T5
X109.1Y-31.
X116.9Y-31.
T6
X94.75Y-29.
X101.25Y-29.
T7
X96.019Y-72.26
X102.369Y-69.72
X115.069Y-100.835
X121.419Y-98.295
X115.069Y-81.785
X121.419Y-79.245
X96.019Y-110.36
X102.369Y-107.82
X96.019Y-91.31
X102.369Y-88.77
X76.969Y-100.835
X83.319Y-98.295
X76.969Y-81.785
X83.319Y-79.245
T8
X93.479Y-67.18
X103.639Y-67.18
X112.529Y-95.755
X122.689Y-95.755
X112.529Y-76.705
X122.689Y-76.705
X93.479Y-105.28
X103.639Y-105.28
X93.479Y-86.23
X103.639Y-86.23
X74.429Y-95.755
X84.589Y-95.755
X74.429Y-76.705
X84.589Y-76.705
T9
X123.Y-114.
X74.Y-114.
X74.Y-29.
X123.Y-29.
T10
X98.559Y-67.18
X117.609Y-76.705
X98.559Y-86.23
X79.509Y-95.755
X79.509Y-76.705
X117.609Y-95.755
X98.559Y-105.28
T0
M30
