G04 #@! TF.GenerationSoftware,KiCad,Pcbnew,5.0.2-bee76a0~70~ubuntu18.04.1*
G04 #@! TF.CreationDate,2019-05-23T01:45:31+09:00*
G04 #@! TF.ProjectId,meishi666,6d656973-6869-4363-9636-2e6b69636164,rev?*
G04 #@! TF.SameCoordinates,Original*
G04 #@! TF.FileFunction,Copper,L2,Bot*
G04 #@! TF.FilePolarity,Positive*
%FSLAX46Y46*%
G04 Gerber Fmt 4.6, Leading zero omitted, Abs format (unit mm)*
G04 Created by KiCad (PCBNEW 5.0.2-bee76a0~70~ubuntu18.04.1) date 2019年05月23日 01時45分31秒*
%MOMM*%
%LPD*%
G01*
G04 APERTURE LIST*
G04 #@! TA.AperFunction,ComponentPad*
%ADD10C,1.524000*%
G04 #@! TD*
G04 #@! TA.AperFunction,ComponentPad*
%ADD11R,1.524000X1.524000*%
G04 #@! TD*
G04 #@! TA.AperFunction,SMDPad,CuDef*
%ADD12R,1.600000X1.000000*%
G04 #@! TD*
G04 #@! TA.AperFunction,ComponentPad*
%ADD13C,2.286000*%
G04 #@! TD*
G04 #@! TA.AperFunction,WasherPad*
%ADD14C,3.000000*%
G04 #@! TD*
G04 #@! TA.AperFunction,Conductor*
%ADD15R,4.000000X0.250000*%
G04 #@! TD*
G04 #@! TA.AperFunction,SMDPad,CuDef*
%ADD16R,1.340000X1.340000*%
G04 #@! TD*
G04 #@! TA.AperFunction,ComponentPad*
%ADD17C,1.600000*%
G04 #@! TD*
G04 #@! TA.AperFunction,ComponentPad*
%ADD18R,1.600000X1.600000*%
G04 #@! TD*
G04 #@! TA.AperFunction,ComponentPad*
%ADD19C,1.397000*%
G04 #@! TD*
G04 #@! TA.AperFunction,ComponentPad*
%ADD20C,2.000000*%
G04 #@! TD*
G04 #@! TA.AperFunction,Conductor*
%ADD21R,2.900000X0.500000*%
G04 #@! TD*
G04 #@! TA.AperFunction,SMDPad,CuDef*
%ADD22R,1.500000X1.200000*%
G04 #@! TD*
G04 #@! TA.AperFunction,ViaPad*
%ADD23C,0.800000*%
G04 #@! TD*
G04 #@! TA.AperFunction,Conductor*
%ADD24C,0.250000*%
G04 #@! TD*
G04 #@! TA.AperFunction,Conductor*
%ADD25C,0.400000*%
G04 #@! TD*
G04 #@! TA.AperFunction,Conductor*
%ADD26C,0.254000*%
G04 #@! TD*
G04 APERTURE END LIST*
D10*
G04 #@! TO.P,U1,24*
G04 #@! TO.N,Net-(U1-Pad24)*
X76080000Y-48415000D03*
G04 #@! TO.P,U1,12*
G04 #@! TO.N,Net-(U1-Pad12)*
X104020000Y-33175000D03*
G04 #@! TO.P,U1,23*
G04 #@! TO.N,GND*
X78620000Y-48415000D03*
G04 #@! TO.P,U1,22*
G04 #@! TO.N,RST*
X81160000Y-48415000D03*
G04 #@! TO.P,U1,21*
G04 #@! TO.N,VCC*
X83700000Y-48415000D03*
G04 #@! TO.P,U1,20*
G04 #@! TO.N,COL0*
X86240000Y-48415000D03*
G04 #@! TO.P,U1,19*
G04 #@! TO.N,COL1*
X88780000Y-48415000D03*
G04 #@! TO.P,U1,18*
G04 #@! TO.N,COL2*
X91320000Y-48415000D03*
G04 #@! TO.P,U1,17*
G04 #@! TO.N,Net-(U1-Pad17)*
X93860000Y-48415000D03*
G04 #@! TO.P,U1,16*
G04 #@! TO.N,Net-(U1-Pad16)*
X96400000Y-48415000D03*
G04 #@! TO.P,U1,15*
G04 #@! TO.N,Net-(U1-Pad15)*
X98940000Y-48415000D03*
G04 #@! TO.P,U1,14*
G04 #@! TO.N,Net-(U1-Pad14)*
X101480000Y-48415000D03*
G04 #@! TO.P,U1,13*
G04 #@! TO.N,AUDIO*
X104020000Y-48415000D03*
G04 #@! TO.P,U1,11*
G04 #@! TO.N,Net-(U1-Pad11)*
X101480000Y-33175000D03*
G04 #@! TO.P,U1,10*
G04 #@! TO.N,Net-(U1-Pad10)*
X98940000Y-33175000D03*
G04 #@! TO.P,U1,9*
G04 #@! TO.N,ROW2*
X96400000Y-33175000D03*
G04 #@! TO.P,U1,8*
G04 #@! TO.N,ROW1*
X93860000Y-33175000D03*
G04 #@! TO.P,U1,7*
G04 #@! TO.N,ROW0*
X91320000Y-33175000D03*
G04 #@! TO.P,U1,6*
G04 #@! TO.N,SCL*
X88780000Y-33175000D03*
G04 #@! TO.P,U1,5*
G04 #@! TO.N,SDA*
X86240000Y-33175000D03*
G04 #@! TO.P,U1,4*
G04 #@! TO.N,GND*
X83700000Y-33175000D03*
G04 #@! TO.P,U1,3*
X81160000Y-33175000D03*
G04 #@! TO.P,U1,2*
G04 #@! TO.N,Net-(U1-Pad2)*
X78620000Y-33175000D03*
D11*
G04 #@! TO.P,U1,1*
G04 #@! TO.N,LED*
X76080000Y-33175000D03*
G04 #@! TD*
D12*
G04 #@! TO.P,L4,2*
G04 #@! TO.N,GND*
X115209000Y-92185000D03*
G04 #@! TO.P,L4,1*
G04 #@! TO.N,Net-(L4-Pad1)*
X115209000Y-90435000D03*
G04 #@! TO.P,L4,4*
G04 #@! TO.N,VCC*
X120009000Y-90435000D03*
G04 #@! TO.P,L4,3*
G04 #@! TO.N,Net-(L3-Pad1)*
X120009000Y-92185000D03*
G04 #@! TD*
D13*
G04 #@! TO.P,SW1,1*
G04 #@! TO.N,COL0*
X76969000Y-81785000D03*
G04 #@! TO.P,SW1,2*
G04 #@! TO.N,Net-(D1-Pad2)*
X83319000Y-79245000D03*
G04 #@! TD*
D14*
G04 #@! TO.P,Ref3,*
G04 #@! TO.N,*
X123000000Y-114000000D03*
G04 #@! TD*
G04 #@! TO.P,Ref2,*
G04 #@! TO.N,*
X74000000Y-114000000D03*
G04 #@! TD*
G04 #@! TO.P,Ref0,*
G04 #@! TO.N,*
X74000000Y-29000000D03*
G04 #@! TD*
D12*
G04 #@! TO.P,L1,2*
G04 #@! TO.N,GND*
X77109000Y-73135000D03*
G04 #@! TO.P,L1,1*
G04 #@! TO.N,Net-(L1-Pad1)*
X77109000Y-71385000D03*
G04 #@! TO.P,L1,4*
G04 #@! TO.N,VCC*
X81909000Y-71385000D03*
G04 #@! TO.P,L1,3*
G04 #@! TO.N,LED*
X81909000Y-73135000D03*
G04 #@! TD*
G04 #@! TO.P,L2,2*
G04 #@! TO.N,GND*
X96159000Y-63610000D03*
G04 #@! TO.P,L2,1*
G04 #@! TO.N,Net-(L2-Pad1)*
X96159000Y-61860000D03*
G04 #@! TO.P,L2,4*
G04 #@! TO.N,VCC*
X100959000Y-61860000D03*
G04 #@! TO.P,L2,3*
G04 #@! TO.N,Net-(L1-Pad1)*
X100959000Y-63610000D03*
G04 #@! TD*
G04 #@! TO.P,L3,2*
G04 #@! TO.N,GND*
X115209000Y-73135000D03*
G04 #@! TO.P,L3,1*
G04 #@! TO.N,Net-(L3-Pad1)*
X115209000Y-71385000D03*
G04 #@! TO.P,L3,4*
G04 #@! TO.N,VCC*
X120009000Y-71385000D03*
G04 #@! TO.P,L3,3*
G04 #@! TO.N,Net-(L2-Pad1)*
X120009000Y-73135000D03*
G04 #@! TD*
G04 #@! TO.P,L6,2*
G04 #@! TO.N,GND*
X77109000Y-92185000D03*
G04 #@! TO.P,L6,1*
G04 #@! TO.N,Net-(L6-Pad1)*
X77109000Y-90435000D03*
G04 #@! TO.P,L6,4*
G04 #@! TO.N,VCC*
X81909000Y-90435000D03*
G04 #@! TO.P,L6,3*
G04 #@! TO.N,Net-(L5-Pad1)*
X81909000Y-92185000D03*
G04 #@! TD*
G04 #@! TO.P,L5,2*
G04 #@! TO.N,GND*
X96219000Y-101710000D03*
G04 #@! TO.P,L5,1*
G04 #@! TO.N,Net-(L5-Pad1)*
X96219000Y-99960000D03*
G04 #@! TO.P,L5,4*
G04 #@! TO.N,VCC*
X101019000Y-99960000D03*
G04 #@! TO.P,L5,3*
G04 #@! TO.N,Net-(L4-Pad1)*
X101019000Y-101710000D03*
G04 #@! TD*
G04 #@! TO.P,L7,2*
G04 #@! TO.N,GND*
X96219000Y-82660000D03*
G04 #@! TO.P,L7,1*
G04 #@! TO.N,Net-(L7-Pad1)*
X96219000Y-80910000D03*
G04 #@! TO.P,L7,4*
G04 #@! TO.N,VCC*
X101019000Y-80910000D03*
G04 #@! TO.P,L7,3*
G04 #@! TO.N,Net-(L6-Pad1)*
X101019000Y-82660000D03*
G04 #@! TD*
D13*
G04 #@! TO.P,SW2,1*
G04 #@! TO.N,COL1*
X96019000Y-72260000D03*
G04 #@! TO.P,SW2,2*
G04 #@! TO.N,Net-(D2-Pad2)*
X102369000Y-69720000D03*
G04 #@! TD*
G04 #@! TO.P,SW3,1*
G04 #@! TO.N,COL2*
X115069000Y-81785000D03*
G04 #@! TO.P,SW3,2*
G04 #@! TO.N,Net-(D3-Pad2)*
X121419000Y-79245000D03*
G04 #@! TD*
G04 #@! TO.P,SW4,1*
G04 #@! TO.N,COL1*
X96019000Y-91310000D03*
G04 #@! TO.P,SW4,2*
G04 #@! TO.N,Net-(D4-Pad2)*
X102369000Y-88770000D03*
G04 #@! TD*
G04 #@! TO.P,SW5,1*
G04 #@! TO.N,COL0*
X76969000Y-100835000D03*
G04 #@! TO.P,SW5,2*
G04 #@! TO.N,Net-(D5-Pad2)*
X83319000Y-98295000D03*
G04 #@! TD*
G04 #@! TO.P,SW6,1*
G04 #@! TO.N,COL1*
X96019000Y-110360000D03*
G04 #@! TO.P,SW6,2*
G04 #@! TO.N,Net-(D6-Pad2)*
X102369000Y-107820000D03*
G04 #@! TD*
G04 #@! TO.P,SW7,1*
G04 #@! TO.N,COL2*
X115069000Y-100835000D03*
G04 #@! TO.P,SW7,2*
G04 #@! TO.N,Net-(D7-Pad2)*
X121419000Y-98295000D03*
G04 #@! TD*
D15*
G04 #@! TO.N,Net-(D1-Pad2)*
G04 #@! TO.C,D1*
X81390000Y-86230000D03*
D16*
G04 #@! TD*
G04 #@! TO.P,D1,2*
G04 #@! TO.N,Net-(D1-Pad2)*
X78980000Y-86230000D03*
D17*
G04 #@! TO.P,D1,2*
G04 #@! TO.N,Net-(D1-Pad2)*
X83790000Y-86230000D03*
D18*
G04 #@! TO.P,D1,1*
G04 #@! TO.N,ROW0*
X75990000Y-86230000D03*
G04 #@! TD*
D15*
G04 #@! TO.N,Net-(D2-Pad2)*
G04 #@! TO.C,D2*
X100440000Y-76705000D03*
D16*
G04 #@! TD*
G04 #@! TO.P,D2,2*
G04 #@! TO.N,Net-(D2-Pad2)*
X98030000Y-76705000D03*
D17*
G04 #@! TO.P,D2,2*
G04 #@! TO.N,Net-(D2-Pad2)*
X102840000Y-76705000D03*
D18*
G04 #@! TO.P,D2,1*
G04 #@! TO.N,ROW0*
X95040000Y-76705000D03*
G04 #@! TD*
G04 #@! TO.P,D3,1*
G04 #@! TO.N,ROW0*
X114090000Y-86230000D03*
D17*
G04 #@! TO.P,D3,2*
G04 #@! TO.N,Net-(D3-Pad2)*
X121890000Y-86230000D03*
D16*
X117080000Y-86230000D03*
D15*
G04 #@! TD*
G04 #@! TO.N,Net-(D3-Pad2)*
G04 #@! TO.C,D3*
X119490000Y-86230000D03*
G04 #@! TO.N,Net-(D4-Pad2)*
G04 #@! TO.C,D4*
X100440000Y-95755000D03*
D16*
G04 #@! TD*
G04 #@! TO.P,D4,2*
G04 #@! TO.N,Net-(D4-Pad2)*
X98030000Y-95755000D03*
D17*
G04 #@! TO.P,D4,2*
G04 #@! TO.N,Net-(D4-Pad2)*
X102840000Y-95755000D03*
D18*
G04 #@! TO.P,D4,1*
G04 #@! TO.N,ROW1*
X95040000Y-95755000D03*
G04 #@! TD*
G04 #@! TO.P,D5,1*
G04 #@! TO.N,ROW2*
X75990000Y-105280000D03*
D17*
G04 #@! TO.P,D5,2*
G04 #@! TO.N,Net-(D5-Pad2)*
X83790000Y-105280000D03*
D16*
X78980000Y-105280000D03*
D15*
G04 #@! TD*
G04 #@! TO.N,Net-(D5-Pad2)*
G04 #@! TO.C,D5*
X81390000Y-105280000D03*
G04 #@! TO.N,Net-(D6-Pad2)*
G04 #@! TO.C,D6*
X100500000Y-115000000D03*
D16*
G04 #@! TD*
G04 #@! TO.P,D6,2*
G04 #@! TO.N,Net-(D6-Pad2)*
X98090000Y-115000000D03*
D17*
G04 #@! TO.P,D6,2*
G04 #@! TO.N,Net-(D6-Pad2)*
X102900000Y-115000000D03*
D18*
G04 #@! TO.P,D6,1*
G04 #@! TO.N,ROW2*
X95100000Y-115000000D03*
G04 #@! TD*
G04 #@! TO.P,D7,1*
G04 #@! TO.N,ROW2*
X114090000Y-105280000D03*
D17*
G04 #@! TO.P,D7,2*
G04 #@! TO.N,Net-(D7-Pad2)*
X121890000Y-105280000D03*
D16*
X117080000Y-105280000D03*
D15*
G04 #@! TD*
G04 #@! TO.N,Net-(D7-Pad2)*
G04 #@! TO.C,D7*
X119490000Y-105280000D03*
D19*
G04 #@! TO.P,J1,1*
G04 #@! TO.N,SDA*
X108465000Y-45240000D03*
G04 #@! TO.P,J1,2*
G04 #@! TO.N,SCL*
X108465000Y-42700000D03*
G04 #@! TO.P,J1,3*
G04 #@! TO.N,VCC*
X108465000Y-40160000D03*
G04 #@! TO.P,J1,4*
G04 #@! TO.N,GND*
X108465000Y-37620000D03*
G04 #@! TD*
D20*
G04 #@! TO.P,SW8,2*
G04 #@! TO.N,RST*
X94750000Y-29000000D03*
G04 #@! TO.P,SW8,1*
G04 #@! TO.N,GND*
X101250000Y-29000000D03*
G04 #@! TD*
D15*
G04 #@! TO.N,GND*
G04 #@! TO.C,D8*
X111500000Y-28000000D03*
D16*
G04 #@! TD*
G04 #@! TO.P,D8,2*
G04 #@! TO.N,GND*
X113910000Y-28000000D03*
D17*
G04 #@! TO.P,D8,2*
G04 #@! TO.N,GND*
X109100000Y-28000000D03*
D18*
G04 #@! TO.P,D8,1*
G04 #@! TO.N,Net-(D8-Pad1)*
X116900000Y-28000000D03*
G04 #@! TD*
D21*
G04 #@! TO.N,Net-(D8-Pad1)*
G04 #@! TO.C,R1*
X115500000Y-31000000D03*
D22*
G04 #@! TD*
G04 #@! TO.P,R1,2*
G04 #@! TO.N,Net-(D8-Pad1)*
X114350000Y-31000000D03*
G04 #@! TO.P,R1,1*
G04 #@! TO.N,AUDIO*
X111650000Y-31000000D03*
D21*
G04 #@! TD*
G04 #@! TO.N,AUDIO*
G04 #@! TO.C,R1*
X110500000Y-31000000D03*
D17*
G04 #@! TO.P,R1,2*
G04 #@! TO.N,Net-(D8-Pad1)*
X116900000Y-31000000D03*
G04 #@! TO.P,R1,1*
G04 #@! TO.N,AUDIO*
X109100000Y-31000000D03*
G04 #@! TD*
D14*
G04 #@! TO.P,Ref1,*
G04 #@! TO.N,*
X123000000Y-29000000D03*
G04 #@! TD*
D23*
G04 #@! TO.N,GND*
X115107300Y-74244000D03*
X105290000Y-90135000D03*
X102115000Y-54575000D03*
X93860000Y-56480000D03*
X84335000Y-42510000D03*
X95765000Y-42510000D03*
X121800000Y-32985000D03*
X102115000Y-42510000D03*
X90685000Y-74260000D03*
X84970000Y-59655000D03*
X88780000Y-39970000D03*
G04 #@! TO.N,VCC*
X83700000Y-70152700D03*
G04 #@! TO.N,LED*
X83412500Y-71159600D03*
G04 #@! TD*
D24*
G04 #@! TO.N,Net-(D1-Pad2)*
X78980000Y-86230000D02*
X81390000Y-86230000D01*
X83790000Y-86230000D02*
X81390000Y-86230000D01*
G04 #@! TO.N,ROW0*
X75990000Y-86230000D02*
X77115300Y-86230000D01*
X95040000Y-76705000D02*
X93914700Y-76705000D01*
X93914700Y-76705000D02*
X85515000Y-85104700D01*
X85515000Y-85104700D02*
X78240600Y-85104700D01*
X78240600Y-85104700D02*
X77115300Y-86230000D01*
G04 #@! TO.N,Net-(D2-Pad2)*
X98030000Y-76705000D02*
X100440000Y-76705000D01*
X102840000Y-76705000D02*
X100440000Y-76705000D01*
G04 #@! TO.N,Net-(D3-Pad2)*
X117080000Y-86230000D02*
X119490000Y-86230000D01*
X119490000Y-86230000D02*
X121890000Y-86230000D01*
G04 #@! TO.N,Net-(D4-Pad2)*
X98030000Y-95755000D02*
X100440000Y-95755000D01*
X102840000Y-95755000D02*
X100440000Y-95755000D01*
G04 #@! TO.N,Net-(D5-Pad2)*
X78980000Y-105280000D02*
X81390000Y-105280000D01*
X81390000Y-105280000D02*
X83790000Y-105280000D01*
G04 #@! TO.N,ROW2*
X95100000Y-115000000D02*
X96225300Y-115000000D01*
X114090000Y-105280000D02*
X112964700Y-105280000D01*
X112964700Y-105280000D02*
X104370000Y-113874700D01*
X104370000Y-113874700D02*
X97350600Y-113874700D01*
X97350600Y-113874700D02*
X96225300Y-115000000D01*
X75990000Y-105280000D02*
X77115300Y-105280000D01*
X77115300Y-105280000D02*
X86835300Y-115000000D01*
X86835300Y-115000000D02*
X95100000Y-115000000D01*
G04 #@! TO.N,Net-(D6-Pad2)*
X98090000Y-115000000D02*
X100500000Y-115000000D01*
X102900000Y-115000000D02*
X100500000Y-115000000D01*
G04 #@! TO.N,Net-(D7-Pad2)*
X117080000Y-105280000D02*
X119490000Y-105280000D01*
X119490000Y-105280000D02*
X121890000Y-105280000D01*
D25*
G04 #@! TO.N,GND*
X115209000Y-73135000D02*
X115209000Y-74142300D01*
X115209000Y-74142300D02*
X115107300Y-74244000D01*
X101250000Y-29000000D02*
X99849600Y-30400400D01*
X99849600Y-30400400D02*
X86474600Y-30400400D01*
X86474600Y-30400400D02*
X83700000Y-33175000D01*
X107886200Y-29000000D02*
X101250000Y-29000000D01*
X82935500Y-63610000D02*
X96159000Y-63610000D01*
X75908700Y-73135000D02*
X75908700Y-70636800D01*
X75908700Y-70636800D02*
X82935500Y-63610000D01*
X78620000Y-48415000D02*
X82935500Y-52730500D01*
X82935500Y-52730500D02*
X82935500Y-63610000D01*
X76525100Y-89005400D02*
X74759800Y-87240200D01*
X74759800Y-87240200D02*
X74759800Y-81211200D01*
X74759800Y-81211200D02*
X75908700Y-80062300D01*
X75908700Y-80062300D02*
X75908700Y-73135000D01*
X96219000Y-82660000D02*
X91967400Y-82660000D01*
X91967400Y-82660000D02*
X87197000Y-87430400D01*
X87197000Y-87430400D02*
X78100100Y-87430400D01*
X78100100Y-87430400D02*
X76525100Y-89005400D01*
X81160000Y-33175000D02*
X83700000Y-33175000D01*
X95018700Y-101710000D02*
X82077900Y-101710000D01*
X82077900Y-101710000D02*
X77109000Y-96741100D01*
X77109000Y-96741100D02*
X77109000Y-92185000D01*
X96219000Y-101710000D02*
X95018700Y-101710000D01*
X115209000Y-92185000D02*
X114008700Y-92185000D01*
X114008700Y-92185000D02*
X101007700Y-105186000D01*
X101007700Y-105186000D02*
X101007700Y-106240200D01*
X101007700Y-106240200D02*
X99557700Y-107690200D01*
X99557700Y-107690200D02*
X97560000Y-107690200D01*
X97560000Y-107690200D02*
X95018700Y-105148900D01*
X95018700Y-105148900D02*
X95018700Y-101710000D01*
X76525100Y-89005400D02*
X75908700Y-89621800D01*
X75908700Y-89621800D02*
X75908700Y-92185000D01*
X77109000Y-73135000D02*
X75908700Y-73135000D01*
X77109000Y-92185000D02*
X75908700Y-92185000D01*
X113910000Y-28000000D02*
X111500000Y-28000000D01*
X109100000Y-28000000D02*
X109099700Y-28000000D01*
X111500000Y-28000000D02*
X109100000Y-28000000D01*
X107886200Y-29000000D02*
X108099700Y-29000000D01*
X108099700Y-29000000D02*
X109099700Y-28000000D01*
X108465000Y-37620000D02*
X107886200Y-37041200D01*
X107886200Y-37041200D02*
X107886200Y-29000000D01*
G04 #@! TO.N,VCC*
X109098500Y-79049200D02*
X115970000Y-85920700D01*
X115970000Y-85920700D02*
X115970000Y-87058800D01*
X104080100Y-79049200D02*
X109098500Y-79049200D01*
X109098500Y-79049200D02*
X109098500Y-75618800D01*
X109098500Y-75618800D02*
X115115600Y-69601700D01*
X115115600Y-69601700D02*
X119551600Y-69601700D01*
X119551600Y-69601700D02*
X120009000Y-70059100D01*
X120009000Y-70059100D02*
X120009000Y-71385000D01*
X104080100Y-79049200D02*
X102219300Y-80910000D01*
X99676400Y-70152700D02*
X104080100Y-74556400D01*
X104080100Y-74556400D02*
X104080100Y-79049200D01*
X115970000Y-87058800D02*
X116223600Y-87312400D01*
X116223600Y-87312400D02*
X118188900Y-87312400D01*
X118188900Y-87312400D02*
X120009000Y-89132500D01*
X120009000Y-89132500D02*
X120009000Y-90435000D01*
X102219300Y-99960000D02*
X103068800Y-99960000D01*
X103068800Y-99960000D02*
X115970000Y-87058800D01*
X99676400Y-70152700D02*
X102159300Y-67669800D01*
X102159300Y-67669800D02*
X102159300Y-61860000D01*
X83700000Y-70152700D02*
X99676400Y-70152700D01*
X101019000Y-80910000D02*
X102219300Y-80910000D01*
X101619200Y-99960000D02*
X101619200Y-99183200D01*
X101619200Y-99183200D02*
X100398900Y-97962900D01*
X100398900Y-97962900D02*
X95051800Y-97962900D01*
X95051800Y-97962900D02*
X87523900Y-90435000D01*
X87523900Y-90435000D02*
X81909000Y-90435000D01*
X101619200Y-99960000D02*
X102219300Y-99960000D01*
X101019000Y-99960000D02*
X101619200Y-99960000D01*
X100959000Y-61860000D02*
X102159300Y-61860000D01*
X81909000Y-71385000D02*
X83141300Y-70152700D01*
X83141300Y-70152700D02*
X83700000Y-70152700D01*
X108465000Y-40160000D02*
X91955000Y-40160000D01*
X91955000Y-40160000D02*
X83700000Y-48415000D01*
D24*
G04 #@! TO.N,SCL*
X108465000Y-42700000D02*
X109959600Y-41205400D01*
X109959600Y-41205400D02*
X109959600Y-39499200D01*
X109959600Y-39499200D02*
X109112800Y-38652400D01*
X109112800Y-38652400D02*
X94257400Y-38652400D01*
X94257400Y-38652400D02*
X88780000Y-33175000D01*
G04 #@! TO.N,SDA*
X108465000Y-45240000D02*
X107441100Y-44216100D01*
X107441100Y-44216100D02*
X107441100Y-42261700D01*
X107441100Y-42261700D02*
X108272800Y-41430000D01*
X108272800Y-41430000D02*
X108659300Y-41430000D01*
X108659300Y-41430000D02*
X109509300Y-40580000D01*
X109509300Y-40580000D02*
X109509300Y-39685800D01*
X109509300Y-39685800D02*
X108959700Y-39136200D01*
X108959700Y-39136200D02*
X92201200Y-39136200D01*
X92201200Y-39136200D02*
X86240000Y-33175000D01*
G04 #@! TO.N,Net-(L1-Pad1)*
X100959000Y-63610000D02*
X100959000Y-68127100D01*
X100959000Y-68127100D02*
X99559800Y-69526300D01*
X99559800Y-69526300D02*
X85041300Y-69526300D01*
X85041300Y-69526300D02*
X84871900Y-69356900D01*
X84871900Y-69356900D02*
X77931600Y-69356900D01*
X77931600Y-69356900D02*
X77109000Y-70179500D01*
X77109000Y-70179500D02*
X77109000Y-71385000D01*
G04 #@! TO.N,LED*
X81909000Y-73135000D02*
X83034300Y-73135000D01*
X83034300Y-73135000D02*
X83034300Y-71537800D01*
X83034300Y-71537800D02*
X83412500Y-71159600D01*
G04 #@! TO.N,Net-(L2-Pad1)*
X120009000Y-73135000D02*
X121134300Y-73135000D01*
X121134300Y-73135000D02*
X121134300Y-70353000D01*
X121134300Y-70353000D02*
X110940900Y-60159600D01*
X110940900Y-60159600D02*
X96666500Y-60159600D01*
X96666500Y-60159600D02*
X96159000Y-60667100D01*
X96159000Y-60667100D02*
X96159000Y-61860000D01*
G04 #@! TO.N,Net-(L3-Pad1)*
X114083700Y-71385000D02*
X114083700Y-76491000D01*
X114083700Y-76491000D02*
X123040800Y-85448100D01*
X123040800Y-85448100D02*
X123040800Y-90278500D01*
X123040800Y-90278500D02*
X121134300Y-92185000D01*
X120009000Y-92185000D02*
X121134300Y-92185000D01*
X115209000Y-71385000D02*
X114083700Y-71385000D01*
G04 #@! TO.N,Net-(L4-Pad1)*
X101019000Y-101710000D02*
X102144300Y-101710000D01*
X102144300Y-101710000D02*
X113419300Y-90435000D01*
X113419300Y-90435000D02*
X115209000Y-90435000D01*
G04 #@! TO.N,Net-(L5-Pad1)*
X96219000Y-99960000D02*
X95093700Y-99960000D01*
X95093700Y-99960000D02*
X87318700Y-92185000D01*
X87318700Y-92185000D02*
X81909000Y-92185000D01*
G04 #@! TO.N,Net-(L6-Pad1)*
X101019000Y-82660000D02*
X101019000Y-87050800D01*
X101019000Y-87050800D02*
X99335100Y-88734700D01*
X99335100Y-88734700D02*
X77615600Y-88734700D01*
X77615600Y-88734700D02*
X77109000Y-89241300D01*
X77109000Y-89241300D02*
X77109000Y-90435000D01*
G04 #@! TO.N,Net-(D8-Pad1)*
X114350000Y-31000000D02*
X115500000Y-31000000D01*
X116900000Y-31000000D02*
X115500000Y-31000000D01*
G04 #@! TO.N,AUDIO*
X110500000Y-31000000D02*
X111650000Y-31000000D01*
X109100000Y-31000000D02*
X110500000Y-31000000D01*
G04 #@! TD*
D26*
G04 #@! TO.N,GND*
G36*
X108345995Y-26746136D02*
X108271861Y-26992255D01*
X108912828Y-27633223D01*
X108865000Y-27748690D01*
X108865000Y-27778750D01*
X108959248Y-27872998D01*
X108865000Y-27872998D01*
X108865000Y-27944605D01*
X108092255Y-27171861D01*
X107846136Y-27245995D01*
X107653035Y-27783223D01*
X107680222Y-28353454D01*
X107846136Y-28754005D01*
X108092255Y-28828139D01*
X108865000Y-28055395D01*
X108865000Y-28127002D01*
X108959248Y-28127002D01*
X108865000Y-28221250D01*
X108865000Y-28251310D01*
X108912828Y-28366777D01*
X108271861Y-29007745D01*
X108345995Y-29253864D01*
X108883223Y-29446965D01*
X109453454Y-29419778D01*
X109854005Y-29253864D01*
X109928139Y-29007745D01*
X109680394Y-28760000D01*
X110039606Y-28760000D01*
X110107745Y-28828139D01*
X110333961Y-28760000D01*
X111214250Y-28760000D01*
X111373000Y-28601250D01*
X111373000Y-28062500D01*
X111627000Y-28062500D01*
X111627000Y-28601250D01*
X111785750Y-28760000D01*
X112605000Y-28760000D01*
X112605000Y-28796310D01*
X112701673Y-29029699D01*
X112880302Y-29208327D01*
X113113691Y-29305000D01*
X113624250Y-29305000D01*
X113783000Y-29146250D01*
X113783000Y-28695096D01*
X113859698Y-28663327D01*
X114037000Y-28486026D01*
X114037000Y-29146250D01*
X114195750Y-29305000D01*
X114706309Y-29305000D01*
X114939698Y-29208327D01*
X115118327Y-29029699D01*
X115215000Y-28796310D01*
X115215000Y-28285750D01*
X115056250Y-28127000D01*
X114040750Y-28127000D01*
X113976250Y-28062500D01*
X111627000Y-28062500D01*
X111373000Y-28062500D01*
X111353000Y-28062500D01*
X111353000Y-27937500D01*
X111373000Y-27937500D01*
X111373000Y-27398750D01*
X111214250Y-27240000D01*
X110333961Y-27240000D01*
X110107745Y-27171861D01*
X110039606Y-27240000D01*
X109680394Y-27240000D01*
X109928139Y-26992255D01*
X109854005Y-26746136D01*
X109753471Y-26710000D01*
X113077478Y-26710000D01*
X112880302Y-26791673D01*
X112701673Y-26970301D01*
X112605000Y-27203690D01*
X112605000Y-27240000D01*
X111785750Y-27240000D01*
X111627000Y-27398750D01*
X111627000Y-27937500D01*
X113976250Y-27937500D01*
X114040750Y-27873000D01*
X115056250Y-27873000D01*
X115215000Y-27714250D01*
X115215000Y-27203690D01*
X115118327Y-26970301D01*
X114939698Y-26791673D01*
X114742522Y-26710000D01*
X115690368Y-26710000D01*
X115642191Y-26742191D01*
X115501843Y-26952235D01*
X115452560Y-27200000D01*
X115452560Y-28800000D01*
X115501843Y-29047765D01*
X115642191Y-29257809D01*
X115852235Y-29398157D01*
X116100000Y-29447440D01*
X117700000Y-29447440D01*
X117947765Y-29398157D01*
X118157809Y-29257809D01*
X118298157Y-29047765D01*
X118347440Y-28800000D01*
X118347440Y-27200000D01*
X118298157Y-26952235D01*
X118157809Y-26742191D01*
X118109632Y-26710000D01*
X123705910Y-26710000D01*
X124169372Y-27173462D01*
X123424678Y-26865000D01*
X122575322Y-26865000D01*
X121790620Y-27190034D01*
X121190034Y-27790620D01*
X120865000Y-28575322D01*
X120865000Y-29424678D01*
X121190034Y-30209380D01*
X121790620Y-30809966D01*
X122575322Y-31135000D01*
X123424678Y-31135000D01*
X124209380Y-30809966D01*
X124809966Y-30209380D01*
X125135000Y-29424678D01*
X125135000Y-28575322D01*
X124826538Y-27830629D01*
X125290001Y-28294092D01*
X125290000Y-114705909D01*
X124826538Y-115169371D01*
X125135000Y-114424678D01*
X125135000Y-113575322D01*
X124809966Y-112790620D01*
X124209380Y-112190034D01*
X123424678Y-111865000D01*
X122575322Y-111865000D01*
X121790620Y-112190034D01*
X121190034Y-112790620D01*
X120865000Y-113575322D01*
X120865000Y-114424678D01*
X121190034Y-115209380D01*
X121790620Y-115809966D01*
X122575322Y-116135000D01*
X123424678Y-116135000D01*
X124169372Y-115826538D01*
X123705910Y-116290000D01*
X103535500Y-116290000D01*
X103712862Y-116216534D01*
X104116534Y-115812862D01*
X104335000Y-115285439D01*
X104335000Y-114714561D01*
X104302528Y-114636167D01*
X104370000Y-114649588D01*
X104444847Y-114634700D01*
X104444852Y-114634700D01*
X104666537Y-114590604D01*
X104917929Y-114422629D01*
X104960331Y-114359170D01*
X112811965Y-106507538D01*
X112832191Y-106537809D01*
X113042235Y-106678157D01*
X113290000Y-106727440D01*
X114890000Y-106727440D01*
X115137765Y-106678157D01*
X115347809Y-106537809D01*
X115488157Y-106327765D01*
X115537440Y-106080000D01*
X115537440Y-104610000D01*
X115762560Y-104610000D01*
X115762560Y-105950000D01*
X115811843Y-106197765D01*
X115952191Y-106407809D01*
X116162235Y-106548157D01*
X116410000Y-106597440D01*
X117750000Y-106597440D01*
X117997765Y-106548157D01*
X118207809Y-106407809D01*
X118348157Y-106197765D01*
X118377064Y-106052440D01*
X120656723Y-106052440D01*
X120673466Y-106092862D01*
X121077138Y-106496534D01*
X121604561Y-106715000D01*
X122175439Y-106715000D01*
X122702862Y-106496534D01*
X123106534Y-106092862D01*
X123325000Y-105565439D01*
X123325000Y-104994561D01*
X123106534Y-104467138D01*
X122702862Y-104063466D01*
X122175439Y-103845000D01*
X121604561Y-103845000D01*
X121077138Y-104063466D01*
X120673466Y-104467138D01*
X120656723Y-104507560D01*
X118377064Y-104507560D01*
X118348157Y-104362235D01*
X118207809Y-104152191D01*
X117997765Y-104011843D01*
X117750000Y-103962560D01*
X116410000Y-103962560D01*
X116162235Y-104011843D01*
X115952191Y-104152191D01*
X115811843Y-104362235D01*
X115762560Y-104610000D01*
X115537440Y-104610000D01*
X115537440Y-104480000D01*
X115488157Y-104232235D01*
X115347809Y-104022191D01*
X115137765Y-103881843D01*
X114890000Y-103832560D01*
X113290000Y-103832560D01*
X113042235Y-103881843D01*
X112832191Y-104022191D01*
X112691843Y-104232235D01*
X112642560Y-104480000D01*
X112642560Y-104581204D01*
X112480226Y-104689671D01*
X112480224Y-104689673D01*
X112416771Y-104732071D01*
X112374373Y-104795524D01*
X104055199Y-113114700D01*
X97425448Y-113114700D01*
X97350600Y-113099812D01*
X97275752Y-113114700D01*
X97275748Y-113114700D01*
X97054063Y-113158796D01*
X96802671Y-113326771D01*
X96760271Y-113390227D01*
X96378036Y-113772462D01*
X96357809Y-113742191D01*
X96147765Y-113601843D01*
X95900000Y-113552560D01*
X94300000Y-113552560D01*
X94052235Y-113601843D01*
X93842191Y-113742191D01*
X93701843Y-113952235D01*
X93652560Y-114200000D01*
X93652560Y-114240000D01*
X87150102Y-114240000D01*
X82916436Y-110006334D01*
X94241000Y-110006334D01*
X94241000Y-110713666D01*
X94511684Y-111367156D01*
X95011844Y-111867316D01*
X95665334Y-112138000D01*
X96372666Y-112138000D01*
X97026156Y-111867316D01*
X97526316Y-111367156D01*
X97797000Y-110713666D01*
X97797000Y-110006334D01*
X97526316Y-109352844D01*
X97026156Y-108852684D01*
X96372666Y-108582000D01*
X95665334Y-108582000D01*
X95011844Y-108852684D01*
X94511684Y-109352844D01*
X94241000Y-110006334D01*
X82916436Y-110006334D01*
X79507541Y-106597440D01*
X79650000Y-106597440D01*
X79897765Y-106548157D01*
X80107809Y-106407809D01*
X80248157Y-106197765D01*
X80277064Y-106052440D01*
X82556723Y-106052440D01*
X82573466Y-106092862D01*
X82977138Y-106496534D01*
X83504561Y-106715000D01*
X84075439Y-106715000D01*
X84602862Y-106496534D01*
X85006534Y-106092862D01*
X85225000Y-105565439D01*
X85225000Y-104994561D01*
X85216761Y-104974670D01*
X91944000Y-104974670D01*
X91944000Y-105585330D01*
X92177690Y-106149507D01*
X92609493Y-106581310D01*
X93173670Y-106815000D01*
X93784330Y-106815000D01*
X94348507Y-106581310D01*
X94780310Y-106149507D01*
X95014000Y-105585330D01*
X95014000Y-104974670D01*
X94780310Y-104410493D01*
X94348507Y-103978690D01*
X93784330Y-103745000D01*
X93173670Y-103745000D01*
X92609493Y-103978690D01*
X92177690Y-104410493D01*
X91944000Y-104974670D01*
X85216761Y-104974670D01*
X85006534Y-104467138D01*
X84602862Y-104063466D01*
X84075439Y-103845000D01*
X83504561Y-103845000D01*
X82977138Y-104063466D01*
X82573466Y-104467138D01*
X82556723Y-104507560D01*
X80277064Y-104507560D01*
X80248157Y-104362235D01*
X80107809Y-104152191D01*
X79897765Y-104011843D01*
X79650000Y-103962560D01*
X78310000Y-103962560D01*
X78062235Y-104011843D01*
X77852191Y-104152191D01*
X77711843Y-104362235D01*
X77662560Y-104610000D01*
X77662560Y-104731624D01*
X77437440Y-104581203D01*
X77437440Y-104480000D01*
X77388157Y-104232235D01*
X77247809Y-104022191D01*
X77037765Y-103881843D01*
X76790000Y-103832560D01*
X75190000Y-103832560D01*
X74942235Y-103881843D01*
X74732191Y-104022191D01*
X74591843Y-104232235D01*
X74542560Y-104480000D01*
X74542560Y-106080000D01*
X74591843Y-106327765D01*
X74732191Y-106537809D01*
X74942235Y-106678157D01*
X75190000Y-106727440D01*
X76790000Y-106727440D01*
X77037765Y-106678157D01*
X77247809Y-106537809D01*
X77268036Y-106507537D01*
X86244971Y-115484473D01*
X86287371Y-115547929D01*
X86350827Y-115590329D01*
X86538762Y-115715904D01*
X86575226Y-115723157D01*
X86760448Y-115760000D01*
X86760452Y-115760000D01*
X86835300Y-115774888D01*
X86910148Y-115760000D01*
X93652560Y-115760000D01*
X93652560Y-115800000D01*
X93701843Y-116047765D01*
X93842191Y-116257809D01*
X93890368Y-116290000D01*
X73294091Y-116290000D01*
X72830629Y-115826538D01*
X73575322Y-116135000D01*
X74424678Y-116135000D01*
X75209380Y-115809966D01*
X75809966Y-115209380D01*
X76135000Y-114424678D01*
X76135000Y-113575322D01*
X75809966Y-112790620D01*
X75209380Y-112190034D01*
X74424678Y-111865000D01*
X73575322Y-111865000D01*
X72790620Y-112190034D01*
X72190034Y-112790620D01*
X71865000Y-113575322D01*
X71865000Y-114424678D01*
X72173462Y-115169372D01*
X71710000Y-114705910D01*
X71710000Y-100481334D01*
X75191000Y-100481334D01*
X75191000Y-101188666D01*
X75461684Y-101842156D01*
X75961844Y-102342316D01*
X76615334Y-102613000D01*
X77322666Y-102613000D01*
X77976156Y-102342316D01*
X78476316Y-101842156D01*
X78747000Y-101188666D01*
X78747000Y-100481334D01*
X78476316Y-99827844D01*
X77976156Y-99327684D01*
X77322666Y-99057000D01*
X76615334Y-99057000D01*
X75961844Y-99327684D01*
X75461684Y-99827844D01*
X75191000Y-100481334D01*
X71710000Y-100481334D01*
X71710000Y-95449670D01*
X72894000Y-95449670D01*
X72894000Y-96060330D01*
X73127690Y-96624507D01*
X73559493Y-97056310D01*
X74123670Y-97290000D01*
X74734330Y-97290000D01*
X75298507Y-97056310D01*
X75730310Y-96624507D01*
X75964000Y-96060330D01*
X75964000Y-95449670D01*
X75730310Y-94885493D01*
X75298507Y-94453690D01*
X74734330Y-94220000D01*
X74123670Y-94220000D01*
X73559493Y-94453690D01*
X73127690Y-94885493D01*
X72894000Y-95449670D01*
X71710000Y-95449670D01*
X71710000Y-85430000D01*
X74542560Y-85430000D01*
X74542560Y-87030000D01*
X74591843Y-87277765D01*
X74732191Y-87487809D01*
X74942235Y-87628157D01*
X75190000Y-87677440D01*
X76790000Y-87677440D01*
X77037765Y-87628157D01*
X77247809Y-87487809D01*
X77388157Y-87277765D01*
X77437440Y-87030000D01*
X77437440Y-86928797D01*
X77662560Y-86778376D01*
X77662560Y-86900000D01*
X77711843Y-87147765D01*
X77852191Y-87357809D01*
X78062235Y-87498157D01*
X78310000Y-87547440D01*
X79650000Y-87547440D01*
X79897765Y-87498157D01*
X80107809Y-87357809D01*
X80248157Y-87147765D01*
X80277064Y-87002440D01*
X82556723Y-87002440D01*
X82573466Y-87042862D01*
X82977138Y-87446534D01*
X83504561Y-87665000D01*
X84075439Y-87665000D01*
X84602862Y-87446534D01*
X85006534Y-87042862D01*
X85225000Y-86515439D01*
X85225000Y-85944561D01*
X85216761Y-85924670D01*
X91944000Y-85924670D01*
X91944000Y-86535330D01*
X92177690Y-87099507D01*
X92609493Y-87531310D01*
X93173670Y-87765000D01*
X93784330Y-87765000D01*
X94348507Y-87531310D01*
X94780310Y-87099507D01*
X95014000Y-86535330D01*
X95014000Y-85924670D01*
X94780310Y-85360493D01*
X94348507Y-84928690D01*
X93784330Y-84695000D01*
X93173670Y-84695000D01*
X92609493Y-84928690D01*
X92177690Y-85360493D01*
X91944000Y-85924670D01*
X85216761Y-85924670D01*
X85191920Y-85864700D01*
X85440153Y-85864700D01*
X85515000Y-85879588D01*
X85589847Y-85864700D01*
X85589852Y-85864700D01*
X85811537Y-85820604D01*
X86062929Y-85652629D01*
X86105331Y-85589170D01*
X93761964Y-77932538D01*
X93782191Y-77962809D01*
X93992235Y-78103157D01*
X94240000Y-78152440D01*
X95840000Y-78152440D01*
X96087765Y-78103157D01*
X96297809Y-77962809D01*
X96438157Y-77752765D01*
X96487440Y-77505000D01*
X96487440Y-75905000D01*
X96438157Y-75657235D01*
X96297809Y-75447191D01*
X96087765Y-75306843D01*
X95840000Y-75257560D01*
X94240000Y-75257560D01*
X93992235Y-75306843D01*
X93782191Y-75447191D01*
X93641843Y-75657235D01*
X93592560Y-75905000D01*
X93592560Y-76006203D01*
X93431118Y-76114076D01*
X93366771Y-76157071D01*
X93324371Y-76220527D01*
X85200199Y-84344700D01*
X78315448Y-84344700D01*
X78240600Y-84329812D01*
X78165752Y-84344700D01*
X78165748Y-84344700D01*
X77944063Y-84388796D01*
X77692671Y-84556771D01*
X77650271Y-84620227D01*
X77268036Y-85002462D01*
X77247809Y-84972191D01*
X77037765Y-84831843D01*
X76790000Y-84782560D01*
X75190000Y-84782560D01*
X74942235Y-84831843D01*
X74732191Y-84972191D01*
X74591843Y-85182235D01*
X74542560Y-85430000D01*
X71710000Y-85430000D01*
X71710000Y-81431334D01*
X75191000Y-81431334D01*
X75191000Y-82138666D01*
X75461684Y-82792156D01*
X75961844Y-83292316D01*
X76615334Y-83563000D01*
X77322666Y-83563000D01*
X77976156Y-83292316D01*
X78476316Y-82792156D01*
X78747000Y-82138666D01*
X78747000Y-81431334D01*
X78476316Y-80777844D01*
X77976156Y-80277684D01*
X77322666Y-80007000D01*
X76615334Y-80007000D01*
X75961844Y-80277684D01*
X75461684Y-80777844D01*
X75191000Y-81431334D01*
X71710000Y-81431334D01*
X71710000Y-76399670D01*
X72894000Y-76399670D01*
X72894000Y-77010330D01*
X73127690Y-77574507D01*
X73559493Y-78006310D01*
X74123670Y-78240000D01*
X74734330Y-78240000D01*
X75298507Y-78006310D01*
X75730310Y-77574507D01*
X75964000Y-77010330D01*
X75964000Y-76399670D01*
X75730310Y-75835493D01*
X75298507Y-75403690D01*
X74734330Y-75170000D01*
X74123670Y-75170000D01*
X73559493Y-75403690D01*
X73127690Y-75835493D01*
X72894000Y-76399670D01*
X71710000Y-76399670D01*
X71710000Y-70885000D01*
X75661560Y-70885000D01*
X75661560Y-71885000D01*
X75710843Y-72132765D01*
X75791900Y-72254074D01*
X75770673Y-72275301D01*
X75674000Y-72508690D01*
X75674000Y-72849250D01*
X75832750Y-73008000D01*
X76982000Y-73008000D01*
X76982000Y-72988000D01*
X77049001Y-72988000D01*
X77049001Y-73282000D01*
X76982000Y-73282000D01*
X76982000Y-73262000D01*
X75832750Y-73262000D01*
X75674000Y-73420750D01*
X75674000Y-73761310D01*
X75770673Y-73994699D01*
X75949302Y-74173327D01*
X76182691Y-74270000D01*
X76823250Y-74270000D01*
X76981998Y-74111252D01*
X76981998Y-74270000D01*
X77049001Y-74270000D01*
X77049001Y-74440069D01*
X77035091Y-74510000D01*
X77090195Y-74787028D01*
X77247119Y-75021881D01*
X77383300Y-75112874D01*
X77280326Y-75215848D01*
X76880100Y-76182079D01*
X76880100Y-77227921D01*
X77280326Y-78194152D01*
X78019848Y-78933674D01*
X78986079Y-79333900D01*
X80031921Y-79333900D01*
X80998152Y-78933674D01*
X81040492Y-78891334D01*
X81541000Y-78891334D01*
X81541000Y-79598666D01*
X81811684Y-80252156D01*
X82311844Y-80752316D01*
X82965334Y-81023000D01*
X83672666Y-81023000D01*
X84326156Y-80752316D01*
X84826316Y-80252156D01*
X85097000Y-79598666D01*
X85097000Y-78891334D01*
X84827209Y-78240000D01*
X84894330Y-78240000D01*
X85458507Y-78006310D01*
X85890310Y-77574507D01*
X86124000Y-77010330D01*
X86124000Y-76399670D01*
X85890310Y-75835493D01*
X85458507Y-75403690D01*
X84894330Y-75170000D01*
X84283670Y-75170000D01*
X83719493Y-75403690D01*
X83287690Y-75835493D01*
X83054000Y-76399670D01*
X83054000Y-77010330D01*
X83243159Y-77467000D01*
X82965334Y-77467000D01*
X82311844Y-77737684D01*
X81811684Y-78237844D01*
X81541000Y-78891334D01*
X81040492Y-78891334D01*
X81737674Y-78194152D01*
X82137900Y-77227921D01*
X82137900Y-76182079D01*
X81737674Y-75215848D01*
X81634700Y-75112874D01*
X81770881Y-75021881D01*
X81927805Y-74787028D01*
X81982909Y-74510000D01*
X81969000Y-74440074D01*
X81969000Y-74282440D01*
X82709000Y-74282440D01*
X82956765Y-74233157D01*
X83166809Y-74092809D01*
X83307157Y-73882765D01*
X83312780Y-73854496D01*
X83330837Y-73850904D01*
X83582229Y-73682929D01*
X83750204Y-73431537D01*
X83809189Y-73135000D01*
X83794300Y-73060148D01*
X83794300Y-72121729D01*
X83998780Y-72037031D01*
X84289931Y-71745880D01*
X84447500Y-71365474D01*
X84447500Y-70987700D01*
X94776828Y-70987700D01*
X94511684Y-71252844D01*
X94241000Y-71906334D01*
X94241000Y-72613666D01*
X94511684Y-73267156D01*
X95011844Y-73767316D01*
X95665334Y-74038000D01*
X96372666Y-74038000D01*
X97026156Y-73767316D01*
X97526316Y-73267156D01*
X97797000Y-72613666D01*
X97797000Y-71906334D01*
X97526316Y-71252844D01*
X97261172Y-70987700D01*
X99330533Y-70987700D01*
X103245100Y-74902269D01*
X103245100Y-75319565D01*
X103125439Y-75270000D01*
X102554561Y-75270000D01*
X102027138Y-75488466D01*
X101623466Y-75892138D01*
X101606723Y-75932560D01*
X99327064Y-75932560D01*
X99298157Y-75787235D01*
X99157809Y-75577191D01*
X98947765Y-75436843D01*
X98700000Y-75387560D01*
X97360000Y-75387560D01*
X97112235Y-75436843D01*
X96902191Y-75577191D01*
X96761843Y-75787235D01*
X96712560Y-76035000D01*
X96712560Y-77375000D01*
X96761843Y-77622765D01*
X96902191Y-77832809D01*
X97112235Y-77973157D01*
X97360000Y-78022440D01*
X98700000Y-78022440D01*
X98947765Y-77973157D01*
X99157809Y-77832809D01*
X99298157Y-77622765D01*
X99327064Y-77477440D01*
X101606723Y-77477440D01*
X101623466Y-77517862D01*
X102027138Y-77921534D01*
X102554561Y-78140000D01*
X103125439Y-78140000D01*
X103245101Y-78090434D01*
X103245101Y-78703331D01*
X102108622Y-79839811D01*
X102066765Y-79811843D01*
X101819000Y-79762560D01*
X101079000Y-79762560D01*
X101079000Y-79604926D01*
X101092909Y-79535000D01*
X101037805Y-79257972D01*
X100880881Y-79023119D01*
X100646028Y-78866195D01*
X100438926Y-78825000D01*
X100438925Y-78825000D01*
X100369000Y-78811091D01*
X100299074Y-78825000D01*
X96938925Y-78825000D01*
X96869000Y-78811091D01*
X96799074Y-78825000D01*
X96591972Y-78866195D01*
X96357119Y-79023119D01*
X96200195Y-79257972D01*
X96145091Y-79535000D01*
X96159000Y-79604926D01*
X96159000Y-79762560D01*
X95419000Y-79762560D01*
X95171235Y-79811843D01*
X94961191Y-79952191D01*
X94820843Y-80162235D01*
X94771560Y-80410000D01*
X94771560Y-81410000D01*
X94820843Y-81657765D01*
X94901900Y-81779074D01*
X94880673Y-81800301D01*
X94784000Y-82033690D01*
X94784000Y-82374250D01*
X94942750Y-82533000D01*
X96092000Y-82533000D01*
X96092000Y-82513000D01*
X96159001Y-82513000D01*
X96159001Y-82807000D01*
X96092000Y-82807000D01*
X96092000Y-82787000D01*
X94942750Y-82787000D01*
X94784000Y-82945750D01*
X94784000Y-83286310D01*
X94880673Y-83519699D01*
X95059302Y-83698327D01*
X95292691Y-83795000D01*
X95933250Y-83795000D01*
X96091998Y-83636252D01*
X96091998Y-83795000D01*
X96159001Y-83795000D01*
X96159001Y-83965069D01*
X96145091Y-84035000D01*
X96200195Y-84312028D01*
X96357119Y-84546881D01*
X96457332Y-84613842D01*
X96330326Y-84740848D01*
X95930100Y-85707079D01*
X95930100Y-86752921D01*
X96330326Y-87719152D01*
X96585874Y-87974700D01*
X77690448Y-87974700D01*
X77615600Y-87959812D01*
X77540752Y-87974700D01*
X77540748Y-87974700D01*
X77319063Y-88018796D01*
X77067671Y-88186771D01*
X77025271Y-88250228D01*
X76624530Y-88650969D01*
X76561071Y-88693371D01*
X76393096Y-88944764D01*
X76349000Y-89166449D01*
X76349000Y-89166453D01*
X76334112Y-89241300D01*
X76343314Y-89287560D01*
X76309000Y-89287560D01*
X76061235Y-89336843D01*
X75851191Y-89477191D01*
X75710843Y-89687235D01*
X75661560Y-89935000D01*
X75661560Y-90935000D01*
X75710843Y-91182765D01*
X75791900Y-91304074D01*
X75770673Y-91325301D01*
X75674000Y-91558690D01*
X75674000Y-91899250D01*
X75832750Y-92058000D01*
X76982000Y-92058000D01*
X76982000Y-92038000D01*
X77049001Y-92038000D01*
X77049001Y-92332000D01*
X76982000Y-92332000D01*
X76982000Y-92312000D01*
X75832750Y-92312000D01*
X75674000Y-92470750D01*
X75674000Y-92811310D01*
X75770673Y-93044699D01*
X75949302Y-93223327D01*
X76182691Y-93320000D01*
X76823250Y-93320000D01*
X76981998Y-93161252D01*
X76981998Y-93320000D01*
X77049001Y-93320000D01*
X77049001Y-93490069D01*
X77035091Y-93560000D01*
X77090195Y-93837028D01*
X77247119Y-94071881D01*
X77383300Y-94162874D01*
X77280326Y-94265848D01*
X76880100Y-95232079D01*
X76880100Y-96277921D01*
X77280326Y-97244152D01*
X78019848Y-97983674D01*
X78986079Y-98383900D01*
X80031921Y-98383900D01*
X80998152Y-97983674D01*
X81040492Y-97941334D01*
X81541000Y-97941334D01*
X81541000Y-98648666D01*
X81811684Y-99302156D01*
X82311844Y-99802316D01*
X82965334Y-100073000D01*
X83672666Y-100073000D01*
X84326156Y-99802316D01*
X84826316Y-99302156D01*
X85097000Y-98648666D01*
X85097000Y-97941334D01*
X84827209Y-97290000D01*
X84894330Y-97290000D01*
X85458507Y-97056310D01*
X85890310Y-96624507D01*
X86124000Y-96060330D01*
X86124000Y-95449670D01*
X85890310Y-94885493D01*
X85458507Y-94453690D01*
X84894330Y-94220000D01*
X84283670Y-94220000D01*
X83719493Y-94453690D01*
X83287690Y-94885493D01*
X83054000Y-95449670D01*
X83054000Y-96060330D01*
X83243159Y-96517000D01*
X82965334Y-96517000D01*
X82311844Y-96787684D01*
X81811684Y-97287844D01*
X81541000Y-97941334D01*
X81040492Y-97941334D01*
X81737674Y-97244152D01*
X82137900Y-96277921D01*
X82137900Y-95232079D01*
X81737674Y-94265848D01*
X81634700Y-94162874D01*
X81770881Y-94071881D01*
X81927805Y-93837028D01*
X81982909Y-93560000D01*
X81969000Y-93490074D01*
X81969000Y-93332440D01*
X82709000Y-93332440D01*
X82956765Y-93283157D01*
X83166809Y-93142809D01*
X83298982Y-92945000D01*
X87003899Y-92945000D01*
X94503373Y-100444476D01*
X94545771Y-100507929D01*
X94609224Y-100550327D01*
X94609226Y-100550329D01*
X94701289Y-100611843D01*
X94797163Y-100675904D01*
X94815220Y-100679496D01*
X94820843Y-100707765D01*
X94901900Y-100829074D01*
X94880673Y-100850301D01*
X94784000Y-101083690D01*
X94784000Y-101424250D01*
X94942750Y-101583000D01*
X96092000Y-101583000D01*
X96092000Y-101563000D01*
X96159001Y-101563000D01*
X96159001Y-101857000D01*
X96092000Y-101857000D01*
X96092000Y-101837000D01*
X94942750Y-101837000D01*
X94784000Y-101995750D01*
X94784000Y-102336310D01*
X94880673Y-102569699D01*
X95059302Y-102748327D01*
X95292691Y-102845000D01*
X95933250Y-102845000D01*
X96091998Y-102686252D01*
X96091998Y-102845000D01*
X96159001Y-102845000D01*
X96159001Y-103015069D01*
X96145091Y-103085000D01*
X96200195Y-103362028D01*
X96357119Y-103596881D01*
X96457332Y-103663842D01*
X96330326Y-103790848D01*
X95930100Y-104757079D01*
X95930100Y-105802921D01*
X96330326Y-106769152D01*
X97069848Y-107508674D01*
X98036079Y-107908900D01*
X99081921Y-107908900D01*
X100048152Y-107508674D01*
X100090492Y-107466334D01*
X100591000Y-107466334D01*
X100591000Y-108173666D01*
X100861684Y-108827156D01*
X101361844Y-109327316D01*
X102015334Y-109598000D01*
X102722666Y-109598000D01*
X103376156Y-109327316D01*
X103876316Y-108827156D01*
X104147000Y-108173666D01*
X104147000Y-107466334D01*
X103877209Y-106815000D01*
X103944330Y-106815000D01*
X104508507Y-106581310D01*
X104940310Y-106149507D01*
X105174000Y-105585330D01*
X105174000Y-104974670D01*
X104940310Y-104410493D01*
X104508507Y-103978690D01*
X103944330Y-103745000D01*
X103333670Y-103745000D01*
X102769493Y-103978690D01*
X102337690Y-104410493D01*
X102104000Y-104974670D01*
X102104000Y-105585330D01*
X102293159Y-106042000D01*
X102015334Y-106042000D01*
X101361844Y-106312684D01*
X100861684Y-106812844D01*
X100591000Y-107466334D01*
X100090492Y-107466334D01*
X100787674Y-106769152D01*
X101187900Y-105802921D01*
X101187900Y-104757079D01*
X100787674Y-103790848D01*
X100708733Y-103711907D01*
X100880881Y-103596881D01*
X101037805Y-103362028D01*
X101092909Y-103085000D01*
X101079000Y-103015074D01*
X101079000Y-102857440D01*
X101819000Y-102857440D01*
X102066765Y-102808157D01*
X102276809Y-102667809D01*
X102417157Y-102457765D01*
X102422780Y-102429496D01*
X102440837Y-102425904D01*
X102692229Y-102257929D01*
X102734631Y-102194470D01*
X104447767Y-100481334D01*
X113291000Y-100481334D01*
X113291000Y-101188666D01*
X113561684Y-101842156D01*
X114061844Y-102342316D01*
X114715334Y-102613000D01*
X115422666Y-102613000D01*
X116076156Y-102342316D01*
X116576316Y-101842156D01*
X116847000Y-101188666D01*
X116847000Y-100481334D01*
X116576316Y-99827844D01*
X116076156Y-99327684D01*
X115422666Y-99057000D01*
X114715334Y-99057000D01*
X114061844Y-99327684D01*
X113561684Y-99827844D01*
X113291000Y-100481334D01*
X104447767Y-100481334D01*
X109479431Y-95449670D01*
X110994000Y-95449670D01*
X110994000Y-96060330D01*
X111227690Y-96624507D01*
X111659493Y-97056310D01*
X112223670Y-97290000D01*
X112834330Y-97290000D01*
X113398507Y-97056310D01*
X113830310Y-96624507D01*
X114064000Y-96060330D01*
X114064000Y-95449670D01*
X113830310Y-94885493D01*
X113398507Y-94453690D01*
X112834330Y-94220000D01*
X112223670Y-94220000D01*
X111659493Y-94453690D01*
X111227690Y-94885493D01*
X110994000Y-95449670D01*
X109479431Y-95449670D01*
X113734102Y-91195000D01*
X113819018Y-91195000D01*
X113891900Y-91304074D01*
X113870673Y-91325301D01*
X113774000Y-91558690D01*
X113774000Y-91899250D01*
X113932750Y-92058000D01*
X115082000Y-92058000D01*
X115082000Y-92038000D01*
X115149001Y-92038000D01*
X115149001Y-92332000D01*
X115082000Y-92332000D01*
X115082000Y-92312000D01*
X113932750Y-92312000D01*
X113774000Y-92470750D01*
X113774000Y-92811310D01*
X113870673Y-93044699D01*
X114049302Y-93223327D01*
X114282691Y-93320000D01*
X114923250Y-93320000D01*
X115081998Y-93161252D01*
X115081998Y-93320000D01*
X115149001Y-93320000D01*
X115149001Y-93490069D01*
X115135091Y-93560000D01*
X115190195Y-93837028D01*
X115347119Y-94071881D01*
X115483300Y-94162874D01*
X115380326Y-94265848D01*
X114980100Y-95232079D01*
X114980100Y-96277921D01*
X115380326Y-97244152D01*
X116119848Y-97983674D01*
X117086079Y-98383900D01*
X118131921Y-98383900D01*
X119098152Y-97983674D01*
X119140492Y-97941334D01*
X119641000Y-97941334D01*
X119641000Y-98648666D01*
X119911684Y-99302156D01*
X120411844Y-99802316D01*
X121065334Y-100073000D01*
X121772666Y-100073000D01*
X122426156Y-99802316D01*
X122926316Y-99302156D01*
X123197000Y-98648666D01*
X123197000Y-97941334D01*
X122927209Y-97290000D01*
X122994330Y-97290000D01*
X123558507Y-97056310D01*
X123990310Y-96624507D01*
X124224000Y-96060330D01*
X124224000Y-95449670D01*
X123990310Y-94885493D01*
X123558507Y-94453690D01*
X122994330Y-94220000D01*
X122383670Y-94220000D01*
X121819493Y-94453690D01*
X121387690Y-94885493D01*
X121154000Y-95449670D01*
X121154000Y-96060330D01*
X121343159Y-96517000D01*
X121065334Y-96517000D01*
X120411844Y-96787684D01*
X119911684Y-97287844D01*
X119641000Y-97941334D01*
X119140492Y-97941334D01*
X119837674Y-97244152D01*
X120237900Y-96277921D01*
X120237900Y-95232079D01*
X119837674Y-94265848D01*
X119734700Y-94162874D01*
X119870881Y-94071881D01*
X120027805Y-93837028D01*
X120082909Y-93560000D01*
X120069000Y-93490074D01*
X120069000Y-93332440D01*
X120809000Y-93332440D01*
X121056765Y-93283157D01*
X121266809Y-93142809D01*
X121407157Y-92932765D01*
X121412780Y-92904496D01*
X121430837Y-92900904D01*
X121682229Y-92732929D01*
X121724631Y-92669470D01*
X123525273Y-90868829D01*
X123588729Y-90826429D01*
X123756704Y-90575037D01*
X123800800Y-90353352D01*
X123800800Y-90353348D01*
X123815688Y-90278501D01*
X123800800Y-90203654D01*
X123800800Y-85522946D01*
X123815688Y-85448099D01*
X123800800Y-85373252D01*
X123800800Y-85373248D01*
X123756704Y-85151563D01*
X123701766Y-85069342D01*
X123631129Y-84963626D01*
X123631127Y-84963624D01*
X123588729Y-84900171D01*
X123525276Y-84857773D01*
X118001402Y-79333900D01*
X118131921Y-79333900D01*
X119098152Y-78933674D01*
X119140492Y-78891334D01*
X119641000Y-78891334D01*
X119641000Y-79598666D01*
X119911684Y-80252156D01*
X120411844Y-80752316D01*
X121065334Y-81023000D01*
X121772666Y-81023000D01*
X122426156Y-80752316D01*
X122926316Y-80252156D01*
X123197000Y-79598666D01*
X123197000Y-78891334D01*
X122927209Y-78240000D01*
X122994330Y-78240000D01*
X123558507Y-78006310D01*
X123990310Y-77574507D01*
X124224000Y-77010330D01*
X124224000Y-76399670D01*
X123990310Y-75835493D01*
X123558507Y-75403690D01*
X122994330Y-75170000D01*
X122383670Y-75170000D01*
X121819493Y-75403690D01*
X121387690Y-75835493D01*
X121154000Y-76399670D01*
X121154000Y-77010330D01*
X121343159Y-77467000D01*
X121065334Y-77467000D01*
X120411844Y-77737684D01*
X119911684Y-78237844D01*
X119641000Y-78891334D01*
X119140492Y-78891334D01*
X119837674Y-78194152D01*
X120237900Y-77227921D01*
X120237900Y-76182079D01*
X119837674Y-75215848D01*
X119734700Y-75112874D01*
X119870881Y-75021881D01*
X120027805Y-74787028D01*
X120082909Y-74510000D01*
X120069000Y-74440074D01*
X120069000Y-74282440D01*
X120809000Y-74282440D01*
X121056765Y-74233157D01*
X121266809Y-74092809D01*
X121407157Y-73882765D01*
X121412780Y-73854496D01*
X121430837Y-73850904D01*
X121682229Y-73682929D01*
X121850204Y-73431537D01*
X121909189Y-73135000D01*
X121894300Y-73060148D01*
X121894300Y-70427848D01*
X121909188Y-70353000D01*
X121894300Y-70278152D01*
X121894300Y-70278148D01*
X121850204Y-70056463D01*
X121682229Y-69805071D01*
X121618773Y-69762671D01*
X111531231Y-59675130D01*
X111488829Y-59611671D01*
X111237437Y-59443696D01*
X111015752Y-59399600D01*
X111015747Y-59399600D01*
X110940900Y-59384712D01*
X110866053Y-59399600D01*
X96741346Y-59399600D01*
X96666499Y-59384712D01*
X96591652Y-59399600D01*
X96591648Y-59399600D01*
X96369963Y-59443696D01*
X96369961Y-59443697D01*
X96369962Y-59443697D01*
X96182026Y-59569271D01*
X96182024Y-59569273D01*
X96118571Y-59611671D01*
X96076172Y-59675125D01*
X95674529Y-60076770D01*
X95611071Y-60119171D01*
X95443096Y-60370564D01*
X95399000Y-60592249D01*
X95399000Y-60592253D01*
X95384112Y-60667100D01*
X95393155Y-60712560D01*
X95359000Y-60712560D01*
X95111235Y-60761843D01*
X94901191Y-60902191D01*
X94760843Y-61112235D01*
X94711560Y-61360000D01*
X94711560Y-62360000D01*
X94760843Y-62607765D01*
X94841900Y-62729074D01*
X94820673Y-62750301D01*
X94724000Y-62983690D01*
X94724000Y-63324250D01*
X94882750Y-63483000D01*
X96032000Y-63483000D01*
X96032000Y-63463000D01*
X96099001Y-63463000D01*
X96099001Y-63757000D01*
X96032000Y-63757000D01*
X96032000Y-63737000D01*
X94882750Y-63737000D01*
X94724000Y-63895750D01*
X94724000Y-64236310D01*
X94820673Y-64469699D01*
X94999302Y-64648327D01*
X95232691Y-64745000D01*
X95873250Y-64745000D01*
X96031998Y-64586252D01*
X96031998Y-64745000D01*
X96099001Y-64745000D01*
X96099001Y-64915069D01*
X96085091Y-64985000D01*
X96140195Y-65262028D01*
X96297119Y-65496881D01*
X96433300Y-65587874D01*
X96330326Y-65690848D01*
X95930100Y-66657079D01*
X95930100Y-67702921D01*
X96330326Y-68669152D01*
X96427474Y-68766300D01*
X85355967Y-68766300D01*
X85168437Y-68640996D01*
X84946752Y-68596900D01*
X84946747Y-68596900D01*
X84871900Y-68582012D01*
X84797053Y-68596900D01*
X78006446Y-68596900D01*
X77931599Y-68582012D01*
X77856752Y-68596900D01*
X77856748Y-68596900D01*
X77635063Y-68640996D01*
X77383671Y-68808971D01*
X77341271Y-68872427D01*
X76624530Y-69589169D01*
X76561071Y-69631571D01*
X76393096Y-69882964D01*
X76349000Y-70104649D01*
X76349000Y-70104653D01*
X76334112Y-70179500D01*
X76345661Y-70237560D01*
X76309000Y-70237560D01*
X76061235Y-70286843D01*
X75851191Y-70427191D01*
X75710843Y-70637235D01*
X75661560Y-70885000D01*
X71710000Y-70885000D01*
X71710000Y-66874670D01*
X91944000Y-66874670D01*
X91944000Y-67485330D01*
X92177690Y-68049507D01*
X92609493Y-68481310D01*
X93173670Y-68715000D01*
X93784330Y-68715000D01*
X94348507Y-68481310D01*
X94780310Y-68049507D01*
X95014000Y-67485330D01*
X95014000Y-66874670D01*
X94780310Y-66310493D01*
X94348507Y-65878690D01*
X93784330Y-65645000D01*
X93173670Y-65645000D01*
X92609493Y-65878690D01*
X92177690Y-66310493D01*
X91944000Y-66874670D01*
X71710000Y-66874670D01*
X71710000Y-48137119D01*
X74683000Y-48137119D01*
X74683000Y-48692881D01*
X74895680Y-49206337D01*
X75288663Y-49599320D01*
X75802119Y-49812000D01*
X76357881Y-49812000D01*
X76871337Y-49599320D01*
X77075444Y-49395213D01*
X77819392Y-49395213D01*
X77888857Y-49637397D01*
X78412302Y-49824144D01*
X78967368Y-49796362D01*
X79351143Y-49637397D01*
X79420608Y-49395213D01*
X78620000Y-48594605D01*
X77819392Y-49395213D01*
X77075444Y-49395213D01*
X77264320Y-49206337D01*
X77343428Y-49015353D01*
X77397603Y-49146143D01*
X77639787Y-49215608D01*
X78440395Y-48415000D01*
X78799605Y-48415000D01*
X79600213Y-49215608D01*
X79842397Y-49146143D01*
X79892535Y-49005607D01*
X79975680Y-49206337D01*
X80368663Y-49599320D01*
X80882119Y-49812000D01*
X81437881Y-49812000D01*
X81951337Y-49599320D01*
X82344320Y-49206337D01*
X82430000Y-48999487D01*
X82515680Y-49206337D01*
X82908663Y-49599320D01*
X83422119Y-49812000D01*
X83977881Y-49812000D01*
X84491337Y-49599320D01*
X84884320Y-49206337D01*
X84970000Y-48999487D01*
X85055680Y-49206337D01*
X85448663Y-49599320D01*
X85962119Y-49812000D01*
X86517881Y-49812000D01*
X87031337Y-49599320D01*
X87424320Y-49206337D01*
X87510000Y-48999487D01*
X87595680Y-49206337D01*
X87988663Y-49599320D01*
X88502119Y-49812000D01*
X89057881Y-49812000D01*
X89571337Y-49599320D01*
X89964320Y-49206337D01*
X90050000Y-48999487D01*
X90135680Y-49206337D01*
X90528663Y-49599320D01*
X91042119Y-49812000D01*
X91597881Y-49812000D01*
X92111337Y-49599320D01*
X92504320Y-49206337D01*
X92590000Y-48999487D01*
X92675680Y-49206337D01*
X93068663Y-49599320D01*
X93582119Y-49812000D01*
X94137881Y-49812000D01*
X94651337Y-49599320D01*
X95044320Y-49206337D01*
X95130000Y-48999487D01*
X95215680Y-49206337D01*
X95608663Y-49599320D01*
X96122119Y-49812000D01*
X96677881Y-49812000D01*
X97191337Y-49599320D01*
X97584320Y-49206337D01*
X97670000Y-48999487D01*
X97755680Y-49206337D01*
X98148663Y-49599320D01*
X98662119Y-49812000D01*
X99217881Y-49812000D01*
X99731337Y-49599320D01*
X100124320Y-49206337D01*
X100210000Y-48999487D01*
X100295680Y-49206337D01*
X100688663Y-49599320D01*
X101202119Y-49812000D01*
X101757881Y-49812000D01*
X102271337Y-49599320D01*
X102664320Y-49206337D01*
X102750000Y-48999487D01*
X102835680Y-49206337D01*
X103228663Y-49599320D01*
X103742119Y-49812000D01*
X104297881Y-49812000D01*
X104811337Y-49599320D01*
X105204320Y-49206337D01*
X105417000Y-48692881D01*
X105417000Y-48137119D01*
X105204320Y-47623663D01*
X104811337Y-47230680D01*
X104297881Y-47018000D01*
X103742119Y-47018000D01*
X103228663Y-47230680D01*
X102835680Y-47623663D01*
X102750000Y-47830513D01*
X102664320Y-47623663D01*
X102271337Y-47230680D01*
X101757881Y-47018000D01*
X101202119Y-47018000D01*
X100688663Y-47230680D01*
X100295680Y-47623663D01*
X100210000Y-47830513D01*
X100124320Y-47623663D01*
X99731337Y-47230680D01*
X99217881Y-47018000D01*
X98662119Y-47018000D01*
X98148663Y-47230680D01*
X97755680Y-47623663D01*
X97670000Y-47830513D01*
X97584320Y-47623663D01*
X97191337Y-47230680D01*
X96677881Y-47018000D01*
X96122119Y-47018000D01*
X95608663Y-47230680D01*
X95215680Y-47623663D01*
X95130000Y-47830513D01*
X95044320Y-47623663D01*
X94651337Y-47230680D01*
X94137881Y-47018000D01*
X93582119Y-47018000D01*
X93068663Y-47230680D01*
X92675680Y-47623663D01*
X92590000Y-47830513D01*
X92504320Y-47623663D01*
X92111337Y-47230680D01*
X91597881Y-47018000D01*
X91042119Y-47018000D01*
X90528663Y-47230680D01*
X90135680Y-47623663D01*
X90050000Y-47830513D01*
X89964320Y-47623663D01*
X89571337Y-47230680D01*
X89057881Y-47018000D01*
X88502119Y-47018000D01*
X87988663Y-47230680D01*
X87595680Y-47623663D01*
X87510000Y-47830513D01*
X87424320Y-47623663D01*
X87031337Y-47230680D01*
X86517881Y-47018000D01*
X86277867Y-47018000D01*
X92300868Y-40995000D01*
X107414146Y-40995000D01*
X107523572Y-41104426D01*
X106956627Y-41671371D01*
X106893172Y-41713771D01*
X106725197Y-41965163D01*
X106689246Y-42145903D01*
X106666212Y-42261700D01*
X106681101Y-42336552D01*
X106681100Y-44141253D01*
X106666212Y-44216100D01*
X106681100Y-44290947D01*
X106681100Y-44290951D01*
X106725196Y-44512636D01*
X106893171Y-44764029D01*
X106956630Y-44806431D01*
X107131500Y-44981301D01*
X107131500Y-45505250D01*
X107334513Y-45995367D01*
X107709633Y-46370487D01*
X108199750Y-46573500D01*
X108730250Y-46573500D01*
X109220367Y-46370487D01*
X109595487Y-45995367D01*
X109798500Y-45505250D01*
X109798500Y-44974750D01*
X109595487Y-44484633D01*
X109220367Y-44109513D01*
X108883553Y-43970000D01*
X109220367Y-43830487D01*
X109595487Y-43455367D01*
X109798500Y-42965250D01*
X109798500Y-42441302D01*
X110444073Y-41795729D01*
X110507529Y-41753329D01*
X110675504Y-41501937D01*
X110719600Y-41280252D01*
X110719600Y-41280248D01*
X110734488Y-41205400D01*
X110719600Y-41130552D01*
X110719600Y-39574046D01*
X110734488Y-39499199D01*
X110719600Y-39424352D01*
X110719600Y-39424348D01*
X110675504Y-39202663D01*
X110507529Y-38951271D01*
X110444073Y-38908871D01*
X109703131Y-38167930D01*
X109691802Y-38150975D01*
X109810927Y-37812520D01*
X109782148Y-37282801D01*
X109634800Y-36927071D01*
X109399188Y-36865417D01*
X108644605Y-37620000D01*
X108658748Y-37634143D01*
X108479143Y-37813748D01*
X108465000Y-37799605D01*
X108450858Y-37813748D01*
X108271253Y-37634143D01*
X108285395Y-37620000D01*
X107530812Y-36865417D01*
X107295200Y-36927071D01*
X107119073Y-37427480D01*
X107144332Y-37892400D01*
X94572203Y-37892400D01*
X93365615Y-36685812D01*
X107710417Y-36685812D01*
X108465000Y-37440395D01*
X109219583Y-36685812D01*
X109157929Y-36450200D01*
X108657520Y-36274073D01*
X108127801Y-36302852D01*
X107772071Y-36450200D01*
X107710417Y-36685812D01*
X93365615Y-36685812D01*
X91251802Y-34572000D01*
X91597881Y-34572000D01*
X92111337Y-34359320D01*
X92504320Y-33966337D01*
X92590000Y-33759487D01*
X92675680Y-33966337D01*
X93068663Y-34359320D01*
X93582119Y-34572000D01*
X94137881Y-34572000D01*
X94651337Y-34359320D01*
X95044320Y-33966337D01*
X95130000Y-33759487D01*
X95215680Y-33966337D01*
X95608663Y-34359320D01*
X96122119Y-34572000D01*
X96677881Y-34572000D01*
X97191337Y-34359320D01*
X97584320Y-33966337D01*
X97670000Y-33759487D01*
X97755680Y-33966337D01*
X98148663Y-34359320D01*
X98662119Y-34572000D01*
X99217881Y-34572000D01*
X99731337Y-34359320D01*
X100124320Y-33966337D01*
X100210000Y-33759487D01*
X100295680Y-33966337D01*
X100688663Y-34359320D01*
X101202119Y-34572000D01*
X101757881Y-34572000D01*
X102271337Y-34359320D01*
X102664320Y-33966337D01*
X102750000Y-33759487D01*
X102835680Y-33966337D01*
X103228663Y-34359320D01*
X103742119Y-34572000D01*
X104297881Y-34572000D01*
X104811337Y-34359320D01*
X105204320Y-33966337D01*
X105417000Y-33452881D01*
X105417000Y-32897119D01*
X105204320Y-32383663D01*
X104811337Y-31990680D01*
X104297881Y-31778000D01*
X103742119Y-31778000D01*
X103228663Y-31990680D01*
X102835680Y-32383663D01*
X102750000Y-32590513D01*
X102664320Y-32383663D01*
X102271337Y-31990680D01*
X101757881Y-31778000D01*
X101202119Y-31778000D01*
X100688663Y-31990680D01*
X100295680Y-32383663D01*
X100210000Y-32590513D01*
X100124320Y-32383663D01*
X99731337Y-31990680D01*
X99217881Y-31778000D01*
X98662119Y-31778000D01*
X98148663Y-31990680D01*
X97755680Y-32383663D01*
X97670000Y-32590513D01*
X97584320Y-32383663D01*
X97191337Y-31990680D01*
X96677881Y-31778000D01*
X96122119Y-31778000D01*
X95608663Y-31990680D01*
X95215680Y-32383663D01*
X95130000Y-32590513D01*
X95044320Y-32383663D01*
X94651337Y-31990680D01*
X94137881Y-31778000D01*
X93582119Y-31778000D01*
X93068663Y-31990680D01*
X92675680Y-32383663D01*
X92590000Y-32590513D01*
X92504320Y-32383663D01*
X92111337Y-31990680D01*
X91597881Y-31778000D01*
X91042119Y-31778000D01*
X90528663Y-31990680D01*
X90135680Y-32383663D01*
X90050000Y-32590513D01*
X89964320Y-32383663D01*
X89571337Y-31990680D01*
X89057881Y-31778000D01*
X88502119Y-31778000D01*
X87988663Y-31990680D01*
X87595680Y-32383663D01*
X87510000Y-32590513D01*
X87424320Y-32383663D01*
X87031337Y-31990680D01*
X86517881Y-31778000D01*
X85962119Y-31778000D01*
X85448663Y-31990680D01*
X85055680Y-32383663D01*
X84976572Y-32574647D01*
X84922397Y-32443857D01*
X84680213Y-32374392D01*
X83879605Y-33175000D01*
X84680213Y-33975608D01*
X84922397Y-33906143D01*
X84972535Y-33765607D01*
X85055680Y-33966337D01*
X85448663Y-34359320D01*
X85962119Y-34572000D01*
X86517881Y-34572000D01*
X86549218Y-34559020D01*
X91470012Y-39479814D01*
X91352999Y-39557999D01*
X91306415Y-39627717D01*
X83916133Y-47018000D01*
X83422119Y-47018000D01*
X82908663Y-47230680D01*
X82515680Y-47623663D01*
X82430000Y-47830513D01*
X82344320Y-47623663D01*
X81951337Y-47230680D01*
X81437881Y-47018000D01*
X80882119Y-47018000D01*
X80368663Y-47230680D01*
X79975680Y-47623663D01*
X79896572Y-47814647D01*
X79842397Y-47683857D01*
X79600213Y-47614392D01*
X78799605Y-48415000D01*
X78440395Y-48415000D01*
X77639787Y-47614392D01*
X77397603Y-47683857D01*
X77347465Y-47824393D01*
X77264320Y-47623663D01*
X77075444Y-47434787D01*
X77819392Y-47434787D01*
X78620000Y-48235395D01*
X79420608Y-47434787D01*
X79351143Y-47192603D01*
X78827698Y-47005856D01*
X78272632Y-47033638D01*
X77888857Y-47192603D01*
X77819392Y-47434787D01*
X77075444Y-47434787D01*
X76871337Y-47230680D01*
X76357881Y-47018000D01*
X75802119Y-47018000D01*
X75288663Y-47230680D01*
X74895680Y-47623663D01*
X74683000Y-48137119D01*
X71710000Y-48137119D01*
X71710000Y-32413000D01*
X74670560Y-32413000D01*
X74670560Y-33937000D01*
X74719843Y-34184765D01*
X74860191Y-34394809D01*
X75070235Y-34535157D01*
X75318000Y-34584440D01*
X76842000Y-34584440D01*
X77089765Y-34535157D01*
X77299809Y-34394809D01*
X77440157Y-34184765D01*
X77475653Y-34006310D01*
X77828663Y-34359320D01*
X78342119Y-34572000D01*
X78897881Y-34572000D01*
X79411337Y-34359320D01*
X79615444Y-34155213D01*
X80359392Y-34155213D01*
X80428857Y-34397397D01*
X80952302Y-34584144D01*
X81507368Y-34556362D01*
X81891143Y-34397397D01*
X81960608Y-34155213D01*
X82899392Y-34155213D01*
X82968857Y-34397397D01*
X83492302Y-34584144D01*
X84047368Y-34556362D01*
X84431143Y-34397397D01*
X84500608Y-34155213D01*
X83700000Y-33354605D01*
X82899392Y-34155213D01*
X81960608Y-34155213D01*
X81160000Y-33354605D01*
X80359392Y-34155213D01*
X79615444Y-34155213D01*
X79804320Y-33966337D01*
X79883428Y-33775353D01*
X79937603Y-33906143D01*
X80179787Y-33975608D01*
X80980395Y-33175000D01*
X81339605Y-33175000D01*
X82140213Y-33975608D01*
X82382397Y-33906143D01*
X82426453Y-33782656D01*
X82477603Y-33906143D01*
X82719787Y-33975608D01*
X83520395Y-33175000D01*
X82719787Y-32374392D01*
X82477603Y-32443857D01*
X82433547Y-32567344D01*
X82382397Y-32443857D01*
X82140213Y-32374392D01*
X81339605Y-33175000D01*
X80980395Y-33175000D01*
X80179787Y-32374392D01*
X79937603Y-32443857D01*
X79887465Y-32584393D01*
X79804320Y-32383663D01*
X79615444Y-32194787D01*
X80359392Y-32194787D01*
X81160000Y-32995395D01*
X81960608Y-32194787D01*
X82899392Y-32194787D01*
X83700000Y-32995395D01*
X84500608Y-32194787D01*
X84431143Y-31952603D01*
X83907698Y-31765856D01*
X83352632Y-31793638D01*
X82968857Y-31952603D01*
X82899392Y-32194787D01*
X81960608Y-32194787D01*
X81891143Y-31952603D01*
X81367698Y-31765856D01*
X80812632Y-31793638D01*
X80428857Y-31952603D01*
X80359392Y-32194787D01*
X79615444Y-32194787D01*
X79411337Y-31990680D01*
X78897881Y-31778000D01*
X78342119Y-31778000D01*
X77828663Y-31990680D01*
X77475653Y-32343690D01*
X77440157Y-32165235D01*
X77299809Y-31955191D01*
X77089765Y-31814843D01*
X76842000Y-31765560D01*
X75318000Y-31765560D01*
X75070235Y-31814843D01*
X74860191Y-31955191D01*
X74719843Y-32165235D01*
X74670560Y-32413000D01*
X71710000Y-32413000D01*
X71710000Y-28294090D01*
X72173462Y-27830628D01*
X71865000Y-28575322D01*
X71865000Y-29424678D01*
X72190034Y-30209380D01*
X72790620Y-30809966D01*
X73575322Y-31135000D01*
X74424678Y-31135000D01*
X75209380Y-30809966D01*
X75304785Y-30714561D01*
X107665000Y-30714561D01*
X107665000Y-31285439D01*
X107883466Y-31812862D01*
X108287138Y-32216534D01*
X108814561Y-32435000D01*
X109385439Y-32435000D01*
X109912862Y-32216534D01*
X110231956Y-31897440D01*
X110335035Y-31897440D01*
X110442191Y-32057809D01*
X110652235Y-32198157D01*
X110900000Y-32247440D01*
X112400000Y-32247440D01*
X112647765Y-32198157D01*
X112857809Y-32057809D01*
X112998157Y-31847765D01*
X113000000Y-31838500D01*
X113001843Y-31847765D01*
X113142191Y-32057809D01*
X113352235Y-32198157D01*
X113600000Y-32247440D01*
X115100000Y-32247440D01*
X115347765Y-32198157D01*
X115557809Y-32057809D01*
X115664965Y-31897440D01*
X115768044Y-31897440D01*
X116087138Y-32216534D01*
X116614561Y-32435000D01*
X117185439Y-32435000D01*
X117712862Y-32216534D01*
X118116534Y-31812862D01*
X118335000Y-31285439D01*
X118335000Y-30714561D01*
X118116534Y-30187138D01*
X117712862Y-29783466D01*
X117185439Y-29565000D01*
X116614561Y-29565000D01*
X116087138Y-29783466D01*
X115768044Y-30102560D01*
X115664965Y-30102560D01*
X115557809Y-29942191D01*
X115347765Y-29801843D01*
X115100000Y-29752560D01*
X113600000Y-29752560D01*
X113352235Y-29801843D01*
X113142191Y-29942191D01*
X113001843Y-30152235D01*
X113000000Y-30161500D01*
X112998157Y-30152235D01*
X112857809Y-29942191D01*
X112647765Y-29801843D01*
X112400000Y-29752560D01*
X110900000Y-29752560D01*
X110652235Y-29801843D01*
X110442191Y-29942191D01*
X110335035Y-30102560D01*
X110231956Y-30102560D01*
X109912862Y-29783466D01*
X109385439Y-29565000D01*
X108814561Y-29565000D01*
X108287138Y-29783466D01*
X107883466Y-30187138D01*
X107665000Y-30714561D01*
X75304785Y-30714561D01*
X75809966Y-30209380D01*
X76135000Y-29424678D01*
X76135000Y-28674778D01*
X93115000Y-28674778D01*
X93115000Y-29325222D01*
X93363914Y-29926153D01*
X93823847Y-30386086D01*
X94424778Y-30635000D01*
X95075222Y-30635000D01*
X95676153Y-30386086D01*
X95909707Y-30152532D01*
X100277073Y-30152532D01*
X100375736Y-30419387D01*
X100985461Y-30645908D01*
X101635460Y-30621856D01*
X102124264Y-30419387D01*
X102222927Y-30152532D01*
X101250000Y-29179605D01*
X100277073Y-30152532D01*
X95909707Y-30152532D01*
X96136086Y-29926153D01*
X96385000Y-29325222D01*
X96385000Y-28735461D01*
X99604092Y-28735461D01*
X99628144Y-29385460D01*
X99830613Y-29874264D01*
X100097468Y-29972927D01*
X101070395Y-29000000D01*
X101429605Y-29000000D01*
X102402532Y-29972927D01*
X102669387Y-29874264D01*
X102895908Y-29264539D01*
X102871856Y-28614540D01*
X102669387Y-28125736D01*
X102402532Y-28027073D01*
X101429605Y-29000000D01*
X101070395Y-29000000D01*
X100097468Y-28027073D01*
X99830613Y-28125736D01*
X99604092Y-28735461D01*
X96385000Y-28735461D01*
X96385000Y-28674778D01*
X96136086Y-28073847D01*
X95909707Y-27847468D01*
X100277073Y-27847468D01*
X101250000Y-28820395D01*
X102222927Y-27847468D01*
X102124264Y-27580613D01*
X101514539Y-27354092D01*
X100864540Y-27378144D01*
X100375736Y-27580613D01*
X100277073Y-27847468D01*
X95909707Y-27847468D01*
X95676153Y-27613914D01*
X95075222Y-27365000D01*
X94424778Y-27365000D01*
X93823847Y-27613914D01*
X93363914Y-28073847D01*
X93115000Y-28674778D01*
X76135000Y-28674778D01*
X76135000Y-28575322D01*
X75809966Y-27790620D01*
X75209380Y-27190034D01*
X74424678Y-26865000D01*
X73575322Y-26865000D01*
X72830629Y-27173462D01*
X73294091Y-26710000D01*
X108433235Y-26710000D01*
X108345995Y-26746136D01*
X108345995Y-26746136D01*
G37*
X108345995Y-26746136D02*
X108271861Y-26992255D01*
X108912828Y-27633223D01*
X108865000Y-27748690D01*
X108865000Y-27778750D01*
X108959248Y-27872998D01*
X108865000Y-27872998D01*
X108865000Y-27944605D01*
X108092255Y-27171861D01*
X107846136Y-27245995D01*
X107653035Y-27783223D01*
X107680222Y-28353454D01*
X107846136Y-28754005D01*
X108092255Y-28828139D01*
X108865000Y-28055395D01*
X108865000Y-28127002D01*
X108959248Y-28127002D01*
X108865000Y-28221250D01*
X108865000Y-28251310D01*
X108912828Y-28366777D01*
X108271861Y-29007745D01*
X108345995Y-29253864D01*
X108883223Y-29446965D01*
X109453454Y-29419778D01*
X109854005Y-29253864D01*
X109928139Y-29007745D01*
X109680394Y-28760000D01*
X110039606Y-28760000D01*
X110107745Y-28828139D01*
X110333961Y-28760000D01*
X111214250Y-28760000D01*
X111373000Y-28601250D01*
X111373000Y-28062500D01*
X111627000Y-28062500D01*
X111627000Y-28601250D01*
X111785750Y-28760000D01*
X112605000Y-28760000D01*
X112605000Y-28796310D01*
X112701673Y-29029699D01*
X112880302Y-29208327D01*
X113113691Y-29305000D01*
X113624250Y-29305000D01*
X113783000Y-29146250D01*
X113783000Y-28695096D01*
X113859698Y-28663327D01*
X114037000Y-28486026D01*
X114037000Y-29146250D01*
X114195750Y-29305000D01*
X114706309Y-29305000D01*
X114939698Y-29208327D01*
X115118327Y-29029699D01*
X115215000Y-28796310D01*
X115215000Y-28285750D01*
X115056250Y-28127000D01*
X114040750Y-28127000D01*
X113976250Y-28062500D01*
X111627000Y-28062500D01*
X111373000Y-28062500D01*
X111353000Y-28062500D01*
X111353000Y-27937500D01*
X111373000Y-27937500D01*
X111373000Y-27398750D01*
X111214250Y-27240000D01*
X110333961Y-27240000D01*
X110107745Y-27171861D01*
X110039606Y-27240000D01*
X109680394Y-27240000D01*
X109928139Y-26992255D01*
X109854005Y-26746136D01*
X109753471Y-26710000D01*
X113077478Y-26710000D01*
X112880302Y-26791673D01*
X112701673Y-26970301D01*
X112605000Y-27203690D01*
X112605000Y-27240000D01*
X111785750Y-27240000D01*
X111627000Y-27398750D01*
X111627000Y-27937500D01*
X113976250Y-27937500D01*
X114040750Y-27873000D01*
X115056250Y-27873000D01*
X115215000Y-27714250D01*
X115215000Y-27203690D01*
X115118327Y-26970301D01*
X114939698Y-26791673D01*
X114742522Y-26710000D01*
X115690368Y-26710000D01*
X115642191Y-26742191D01*
X115501843Y-26952235D01*
X115452560Y-27200000D01*
X115452560Y-28800000D01*
X115501843Y-29047765D01*
X115642191Y-29257809D01*
X115852235Y-29398157D01*
X116100000Y-29447440D01*
X117700000Y-29447440D01*
X117947765Y-29398157D01*
X118157809Y-29257809D01*
X118298157Y-29047765D01*
X118347440Y-28800000D01*
X118347440Y-27200000D01*
X118298157Y-26952235D01*
X118157809Y-26742191D01*
X118109632Y-26710000D01*
X123705910Y-26710000D01*
X124169372Y-27173462D01*
X123424678Y-26865000D01*
X122575322Y-26865000D01*
X121790620Y-27190034D01*
X121190034Y-27790620D01*
X120865000Y-28575322D01*
X120865000Y-29424678D01*
X121190034Y-30209380D01*
X121790620Y-30809966D01*
X122575322Y-31135000D01*
X123424678Y-31135000D01*
X124209380Y-30809966D01*
X124809966Y-30209380D01*
X125135000Y-29424678D01*
X125135000Y-28575322D01*
X124826538Y-27830629D01*
X125290001Y-28294092D01*
X125290000Y-114705909D01*
X124826538Y-115169371D01*
X125135000Y-114424678D01*
X125135000Y-113575322D01*
X124809966Y-112790620D01*
X124209380Y-112190034D01*
X123424678Y-111865000D01*
X122575322Y-111865000D01*
X121790620Y-112190034D01*
X121190034Y-112790620D01*
X120865000Y-113575322D01*
X120865000Y-114424678D01*
X121190034Y-115209380D01*
X121790620Y-115809966D01*
X122575322Y-116135000D01*
X123424678Y-116135000D01*
X124169372Y-115826538D01*
X123705910Y-116290000D01*
X103535500Y-116290000D01*
X103712862Y-116216534D01*
X104116534Y-115812862D01*
X104335000Y-115285439D01*
X104335000Y-114714561D01*
X104302528Y-114636167D01*
X104370000Y-114649588D01*
X104444847Y-114634700D01*
X104444852Y-114634700D01*
X104666537Y-114590604D01*
X104917929Y-114422629D01*
X104960331Y-114359170D01*
X112811965Y-106507538D01*
X112832191Y-106537809D01*
X113042235Y-106678157D01*
X113290000Y-106727440D01*
X114890000Y-106727440D01*
X115137765Y-106678157D01*
X115347809Y-106537809D01*
X115488157Y-106327765D01*
X115537440Y-106080000D01*
X115537440Y-104610000D01*
X115762560Y-104610000D01*
X115762560Y-105950000D01*
X115811843Y-106197765D01*
X115952191Y-106407809D01*
X116162235Y-106548157D01*
X116410000Y-106597440D01*
X117750000Y-106597440D01*
X117997765Y-106548157D01*
X118207809Y-106407809D01*
X118348157Y-106197765D01*
X118377064Y-106052440D01*
X120656723Y-106052440D01*
X120673466Y-106092862D01*
X121077138Y-106496534D01*
X121604561Y-106715000D01*
X122175439Y-106715000D01*
X122702862Y-106496534D01*
X123106534Y-106092862D01*
X123325000Y-105565439D01*
X123325000Y-104994561D01*
X123106534Y-104467138D01*
X122702862Y-104063466D01*
X122175439Y-103845000D01*
X121604561Y-103845000D01*
X121077138Y-104063466D01*
X120673466Y-104467138D01*
X120656723Y-104507560D01*
X118377064Y-104507560D01*
X118348157Y-104362235D01*
X118207809Y-104152191D01*
X117997765Y-104011843D01*
X117750000Y-103962560D01*
X116410000Y-103962560D01*
X116162235Y-104011843D01*
X115952191Y-104152191D01*
X115811843Y-104362235D01*
X115762560Y-104610000D01*
X115537440Y-104610000D01*
X115537440Y-104480000D01*
X115488157Y-104232235D01*
X115347809Y-104022191D01*
X115137765Y-103881843D01*
X114890000Y-103832560D01*
X113290000Y-103832560D01*
X113042235Y-103881843D01*
X112832191Y-104022191D01*
X112691843Y-104232235D01*
X112642560Y-104480000D01*
X112642560Y-104581204D01*
X112480226Y-104689671D01*
X112480224Y-104689673D01*
X112416771Y-104732071D01*
X112374373Y-104795524D01*
X104055199Y-113114700D01*
X97425448Y-113114700D01*
X97350600Y-113099812D01*
X97275752Y-113114700D01*
X97275748Y-113114700D01*
X97054063Y-113158796D01*
X96802671Y-113326771D01*
X96760271Y-113390227D01*
X96378036Y-113772462D01*
X96357809Y-113742191D01*
X96147765Y-113601843D01*
X95900000Y-113552560D01*
X94300000Y-113552560D01*
X94052235Y-113601843D01*
X93842191Y-113742191D01*
X93701843Y-113952235D01*
X93652560Y-114200000D01*
X93652560Y-114240000D01*
X87150102Y-114240000D01*
X82916436Y-110006334D01*
X94241000Y-110006334D01*
X94241000Y-110713666D01*
X94511684Y-111367156D01*
X95011844Y-111867316D01*
X95665334Y-112138000D01*
X96372666Y-112138000D01*
X97026156Y-111867316D01*
X97526316Y-111367156D01*
X97797000Y-110713666D01*
X97797000Y-110006334D01*
X97526316Y-109352844D01*
X97026156Y-108852684D01*
X96372666Y-108582000D01*
X95665334Y-108582000D01*
X95011844Y-108852684D01*
X94511684Y-109352844D01*
X94241000Y-110006334D01*
X82916436Y-110006334D01*
X79507541Y-106597440D01*
X79650000Y-106597440D01*
X79897765Y-106548157D01*
X80107809Y-106407809D01*
X80248157Y-106197765D01*
X80277064Y-106052440D01*
X82556723Y-106052440D01*
X82573466Y-106092862D01*
X82977138Y-106496534D01*
X83504561Y-106715000D01*
X84075439Y-106715000D01*
X84602862Y-106496534D01*
X85006534Y-106092862D01*
X85225000Y-105565439D01*
X85225000Y-104994561D01*
X85216761Y-104974670D01*
X91944000Y-104974670D01*
X91944000Y-105585330D01*
X92177690Y-106149507D01*
X92609493Y-106581310D01*
X93173670Y-106815000D01*
X93784330Y-106815000D01*
X94348507Y-106581310D01*
X94780310Y-106149507D01*
X95014000Y-105585330D01*
X95014000Y-104974670D01*
X94780310Y-104410493D01*
X94348507Y-103978690D01*
X93784330Y-103745000D01*
X93173670Y-103745000D01*
X92609493Y-103978690D01*
X92177690Y-104410493D01*
X91944000Y-104974670D01*
X85216761Y-104974670D01*
X85006534Y-104467138D01*
X84602862Y-104063466D01*
X84075439Y-103845000D01*
X83504561Y-103845000D01*
X82977138Y-104063466D01*
X82573466Y-104467138D01*
X82556723Y-104507560D01*
X80277064Y-104507560D01*
X80248157Y-104362235D01*
X80107809Y-104152191D01*
X79897765Y-104011843D01*
X79650000Y-103962560D01*
X78310000Y-103962560D01*
X78062235Y-104011843D01*
X77852191Y-104152191D01*
X77711843Y-104362235D01*
X77662560Y-104610000D01*
X77662560Y-104731624D01*
X77437440Y-104581203D01*
X77437440Y-104480000D01*
X77388157Y-104232235D01*
X77247809Y-104022191D01*
X77037765Y-103881843D01*
X76790000Y-103832560D01*
X75190000Y-103832560D01*
X74942235Y-103881843D01*
X74732191Y-104022191D01*
X74591843Y-104232235D01*
X74542560Y-104480000D01*
X74542560Y-106080000D01*
X74591843Y-106327765D01*
X74732191Y-106537809D01*
X74942235Y-106678157D01*
X75190000Y-106727440D01*
X76790000Y-106727440D01*
X77037765Y-106678157D01*
X77247809Y-106537809D01*
X77268036Y-106507537D01*
X86244971Y-115484473D01*
X86287371Y-115547929D01*
X86350827Y-115590329D01*
X86538762Y-115715904D01*
X86575226Y-115723157D01*
X86760448Y-115760000D01*
X86760452Y-115760000D01*
X86835300Y-115774888D01*
X86910148Y-115760000D01*
X93652560Y-115760000D01*
X93652560Y-115800000D01*
X93701843Y-116047765D01*
X93842191Y-116257809D01*
X93890368Y-116290000D01*
X73294091Y-116290000D01*
X72830629Y-115826538D01*
X73575322Y-116135000D01*
X74424678Y-116135000D01*
X75209380Y-115809966D01*
X75809966Y-115209380D01*
X76135000Y-114424678D01*
X76135000Y-113575322D01*
X75809966Y-112790620D01*
X75209380Y-112190034D01*
X74424678Y-111865000D01*
X73575322Y-111865000D01*
X72790620Y-112190034D01*
X72190034Y-112790620D01*
X71865000Y-113575322D01*
X71865000Y-114424678D01*
X72173462Y-115169372D01*
X71710000Y-114705910D01*
X71710000Y-100481334D01*
X75191000Y-100481334D01*
X75191000Y-101188666D01*
X75461684Y-101842156D01*
X75961844Y-102342316D01*
X76615334Y-102613000D01*
X77322666Y-102613000D01*
X77976156Y-102342316D01*
X78476316Y-101842156D01*
X78747000Y-101188666D01*
X78747000Y-100481334D01*
X78476316Y-99827844D01*
X77976156Y-99327684D01*
X77322666Y-99057000D01*
X76615334Y-99057000D01*
X75961844Y-99327684D01*
X75461684Y-99827844D01*
X75191000Y-100481334D01*
X71710000Y-100481334D01*
X71710000Y-95449670D01*
X72894000Y-95449670D01*
X72894000Y-96060330D01*
X73127690Y-96624507D01*
X73559493Y-97056310D01*
X74123670Y-97290000D01*
X74734330Y-97290000D01*
X75298507Y-97056310D01*
X75730310Y-96624507D01*
X75964000Y-96060330D01*
X75964000Y-95449670D01*
X75730310Y-94885493D01*
X75298507Y-94453690D01*
X74734330Y-94220000D01*
X74123670Y-94220000D01*
X73559493Y-94453690D01*
X73127690Y-94885493D01*
X72894000Y-95449670D01*
X71710000Y-95449670D01*
X71710000Y-85430000D01*
X74542560Y-85430000D01*
X74542560Y-87030000D01*
X74591843Y-87277765D01*
X74732191Y-87487809D01*
X74942235Y-87628157D01*
X75190000Y-87677440D01*
X76790000Y-87677440D01*
X77037765Y-87628157D01*
X77247809Y-87487809D01*
X77388157Y-87277765D01*
X77437440Y-87030000D01*
X77437440Y-86928797D01*
X77662560Y-86778376D01*
X77662560Y-86900000D01*
X77711843Y-87147765D01*
X77852191Y-87357809D01*
X78062235Y-87498157D01*
X78310000Y-87547440D01*
X79650000Y-87547440D01*
X79897765Y-87498157D01*
X80107809Y-87357809D01*
X80248157Y-87147765D01*
X80277064Y-87002440D01*
X82556723Y-87002440D01*
X82573466Y-87042862D01*
X82977138Y-87446534D01*
X83504561Y-87665000D01*
X84075439Y-87665000D01*
X84602862Y-87446534D01*
X85006534Y-87042862D01*
X85225000Y-86515439D01*
X85225000Y-85944561D01*
X85216761Y-85924670D01*
X91944000Y-85924670D01*
X91944000Y-86535330D01*
X92177690Y-87099507D01*
X92609493Y-87531310D01*
X93173670Y-87765000D01*
X93784330Y-87765000D01*
X94348507Y-87531310D01*
X94780310Y-87099507D01*
X95014000Y-86535330D01*
X95014000Y-85924670D01*
X94780310Y-85360493D01*
X94348507Y-84928690D01*
X93784330Y-84695000D01*
X93173670Y-84695000D01*
X92609493Y-84928690D01*
X92177690Y-85360493D01*
X91944000Y-85924670D01*
X85216761Y-85924670D01*
X85191920Y-85864700D01*
X85440153Y-85864700D01*
X85515000Y-85879588D01*
X85589847Y-85864700D01*
X85589852Y-85864700D01*
X85811537Y-85820604D01*
X86062929Y-85652629D01*
X86105331Y-85589170D01*
X93761964Y-77932538D01*
X93782191Y-77962809D01*
X93992235Y-78103157D01*
X94240000Y-78152440D01*
X95840000Y-78152440D01*
X96087765Y-78103157D01*
X96297809Y-77962809D01*
X96438157Y-77752765D01*
X96487440Y-77505000D01*
X96487440Y-75905000D01*
X96438157Y-75657235D01*
X96297809Y-75447191D01*
X96087765Y-75306843D01*
X95840000Y-75257560D01*
X94240000Y-75257560D01*
X93992235Y-75306843D01*
X93782191Y-75447191D01*
X93641843Y-75657235D01*
X93592560Y-75905000D01*
X93592560Y-76006203D01*
X93431118Y-76114076D01*
X93366771Y-76157071D01*
X93324371Y-76220527D01*
X85200199Y-84344700D01*
X78315448Y-84344700D01*
X78240600Y-84329812D01*
X78165752Y-84344700D01*
X78165748Y-84344700D01*
X77944063Y-84388796D01*
X77692671Y-84556771D01*
X77650271Y-84620227D01*
X77268036Y-85002462D01*
X77247809Y-84972191D01*
X77037765Y-84831843D01*
X76790000Y-84782560D01*
X75190000Y-84782560D01*
X74942235Y-84831843D01*
X74732191Y-84972191D01*
X74591843Y-85182235D01*
X74542560Y-85430000D01*
X71710000Y-85430000D01*
X71710000Y-81431334D01*
X75191000Y-81431334D01*
X75191000Y-82138666D01*
X75461684Y-82792156D01*
X75961844Y-83292316D01*
X76615334Y-83563000D01*
X77322666Y-83563000D01*
X77976156Y-83292316D01*
X78476316Y-82792156D01*
X78747000Y-82138666D01*
X78747000Y-81431334D01*
X78476316Y-80777844D01*
X77976156Y-80277684D01*
X77322666Y-80007000D01*
X76615334Y-80007000D01*
X75961844Y-80277684D01*
X75461684Y-80777844D01*
X75191000Y-81431334D01*
X71710000Y-81431334D01*
X71710000Y-76399670D01*
X72894000Y-76399670D01*
X72894000Y-77010330D01*
X73127690Y-77574507D01*
X73559493Y-78006310D01*
X74123670Y-78240000D01*
X74734330Y-78240000D01*
X75298507Y-78006310D01*
X75730310Y-77574507D01*
X75964000Y-77010330D01*
X75964000Y-76399670D01*
X75730310Y-75835493D01*
X75298507Y-75403690D01*
X74734330Y-75170000D01*
X74123670Y-75170000D01*
X73559493Y-75403690D01*
X73127690Y-75835493D01*
X72894000Y-76399670D01*
X71710000Y-76399670D01*
X71710000Y-70885000D01*
X75661560Y-70885000D01*
X75661560Y-71885000D01*
X75710843Y-72132765D01*
X75791900Y-72254074D01*
X75770673Y-72275301D01*
X75674000Y-72508690D01*
X75674000Y-72849250D01*
X75832750Y-73008000D01*
X76982000Y-73008000D01*
X76982000Y-72988000D01*
X77049001Y-72988000D01*
X77049001Y-73282000D01*
X76982000Y-73282000D01*
X76982000Y-73262000D01*
X75832750Y-73262000D01*
X75674000Y-73420750D01*
X75674000Y-73761310D01*
X75770673Y-73994699D01*
X75949302Y-74173327D01*
X76182691Y-74270000D01*
X76823250Y-74270000D01*
X76981998Y-74111252D01*
X76981998Y-74270000D01*
X77049001Y-74270000D01*
X77049001Y-74440069D01*
X77035091Y-74510000D01*
X77090195Y-74787028D01*
X77247119Y-75021881D01*
X77383300Y-75112874D01*
X77280326Y-75215848D01*
X76880100Y-76182079D01*
X76880100Y-77227921D01*
X77280326Y-78194152D01*
X78019848Y-78933674D01*
X78986079Y-79333900D01*
X80031921Y-79333900D01*
X80998152Y-78933674D01*
X81040492Y-78891334D01*
X81541000Y-78891334D01*
X81541000Y-79598666D01*
X81811684Y-80252156D01*
X82311844Y-80752316D01*
X82965334Y-81023000D01*
X83672666Y-81023000D01*
X84326156Y-80752316D01*
X84826316Y-80252156D01*
X85097000Y-79598666D01*
X85097000Y-78891334D01*
X84827209Y-78240000D01*
X84894330Y-78240000D01*
X85458507Y-78006310D01*
X85890310Y-77574507D01*
X86124000Y-77010330D01*
X86124000Y-76399670D01*
X85890310Y-75835493D01*
X85458507Y-75403690D01*
X84894330Y-75170000D01*
X84283670Y-75170000D01*
X83719493Y-75403690D01*
X83287690Y-75835493D01*
X83054000Y-76399670D01*
X83054000Y-77010330D01*
X83243159Y-77467000D01*
X82965334Y-77467000D01*
X82311844Y-77737684D01*
X81811684Y-78237844D01*
X81541000Y-78891334D01*
X81040492Y-78891334D01*
X81737674Y-78194152D01*
X82137900Y-77227921D01*
X82137900Y-76182079D01*
X81737674Y-75215848D01*
X81634700Y-75112874D01*
X81770881Y-75021881D01*
X81927805Y-74787028D01*
X81982909Y-74510000D01*
X81969000Y-74440074D01*
X81969000Y-74282440D01*
X82709000Y-74282440D01*
X82956765Y-74233157D01*
X83166809Y-74092809D01*
X83307157Y-73882765D01*
X83312780Y-73854496D01*
X83330837Y-73850904D01*
X83582229Y-73682929D01*
X83750204Y-73431537D01*
X83809189Y-73135000D01*
X83794300Y-73060148D01*
X83794300Y-72121729D01*
X83998780Y-72037031D01*
X84289931Y-71745880D01*
X84447500Y-71365474D01*
X84447500Y-70987700D01*
X94776828Y-70987700D01*
X94511684Y-71252844D01*
X94241000Y-71906334D01*
X94241000Y-72613666D01*
X94511684Y-73267156D01*
X95011844Y-73767316D01*
X95665334Y-74038000D01*
X96372666Y-74038000D01*
X97026156Y-73767316D01*
X97526316Y-73267156D01*
X97797000Y-72613666D01*
X97797000Y-71906334D01*
X97526316Y-71252844D01*
X97261172Y-70987700D01*
X99330533Y-70987700D01*
X103245100Y-74902269D01*
X103245100Y-75319565D01*
X103125439Y-75270000D01*
X102554561Y-75270000D01*
X102027138Y-75488466D01*
X101623466Y-75892138D01*
X101606723Y-75932560D01*
X99327064Y-75932560D01*
X99298157Y-75787235D01*
X99157809Y-75577191D01*
X98947765Y-75436843D01*
X98700000Y-75387560D01*
X97360000Y-75387560D01*
X97112235Y-75436843D01*
X96902191Y-75577191D01*
X96761843Y-75787235D01*
X96712560Y-76035000D01*
X96712560Y-77375000D01*
X96761843Y-77622765D01*
X96902191Y-77832809D01*
X97112235Y-77973157D01*
X97360000Y-78022440D01*
X98700000Y-78022440D01*
X98947765Y-77973157D01*
X99157809Y-77832809D01*
X99298157Y-77622765D01*
X99327064Y-77477440D01*
X101606723Y-77477440D01*
X101623466Y-77517862D01*
X102027138Y-77921534D01*
X102554561Y-78140000D01*
X103125439Y-78140000D01*
X103245101Y-78090434D01*
X103245101Y-78703331D01*
X102108622Y-79839811D01*
X102066765Y-79811843D01*
X101819000Y-79762560D01*
X101079000Y-79762560D01*
X101079000Y-79604926D01*
X101092909Y-79535000D01*
X101037805Y-79257972D01*
X100880881Y-79023119D01*
X100646028Y-78866195D01*
X100438926Y-78825000D01*
X100438925Y-78825000D01*
X100369000Y-78811091D01*
X100299074Y-78825000D01*
X96938925Y-78825000D01*
X96869000Y-78811091D01*
X96799074Y-78825000D01*
X96591972Y-78866195D01*
X96357119Y-79023119D01*
X96200195Y-79257972D01*
X96145091Y-79535000D01*
X96159000Y-79604926D01*
X96159000Y-79762560D01*
X95419000Y-79762560D01*
X95171235Y-79811843D01*
X94961191Y-79952191D01*
X94820843Y-80162235D01*
X94771560Y-80410000D01*
X94771560Y-81410000D01*
X94820843Y-81657765D01*
X94901900Y-81779074D01*
X94880673Y-81800301D01*
X94784000Y-82033690D01*
X94784000Y-82374250D01*
X94942750Y-82533000D01*
X96092000Y-82533000D01*
X96092000Y-82513000D01*
X96159001Y-82513000D01*
X96159001Y-82807000D01*
X96092000Y-82807000D01*
X96092000Y-82787000D01*
X94942750Y-82787000D01*
X94784000Y-82945750D01*
X94784000Y-83286310D01*
X94880673Y-83519699D01*
X95059302Y-83698327D01*
X95292691Y-83795000D01*
X95933250Y-83795000D01*
X96091998Y-83636252D01*
X96091998Y-83795000D01*
X96159001Y-83795000D01*
X96159001Y-83965069D01*
X96145091Y-84035000D01*
X96200195Y-84312028D01*
X96357119Y-84546881D01*
X96457332Y-84613842D01*
X96330326Y-84740848D01*
X95930100Y-85707079D01*
X95930100Y-86752921D01*
X96330326Y-87719152D01*
X96585874Y-87974700D01*
X77690448Y-87974700D01*
X77615600Y-87959812D01*
X77540752Y-87974700D01*
X77540748Y-87974700D01*
X77319063Y-88018796D01*
X77067671Y-88186771D01*
X77025271Y-88250228D01*
X76624530Y-88650969D01*
X76561071Y-88693371D01*
X76393096Y-88944764D01*
X76349000Y-89166449D01*
X76349000Y-89166453D01*
X76334112Y-89241300D01*
X76343314Y-89287560D01*
X76309000Y-89287560D01*
X76061235Y-89336843D01*
X75851191Y-89477191D01*
X75710843Y-89687235D01*
X75661560Y-89935000D01*
X75661560Y-90935000D01*
X75710843Y-91182765D01*
X75791900Y-91304074D01*
X75770673Y-91325301D01*
X75674000Y-91558690D01*
X75674000Y-91899250D01*
X75832750Y-92058000D01*
X76982000Y-92058000D01*
X76982000Y-92038000D01*
X77049001Y-92038000D01*
X77049001Y-92332000D01*
X76982000Y-92332000D01*
X76982000Y-92312000D01*
X75832750Y-92312000D01*
X75674000Y-92470750D01*
X75674000Y-92811310D01*
X75770673Y-93044699D01*
X75949302Y-93223327D01*
X76182691Y-93320000D01*
X76823250Y-93320000D01*
X76981998Y-93161252D01*
X76981998Y-93320000D01*
X77049001Y-93320000D01*
X77049001Y-93490069D01*
X77035091Y-93560000D01*
X77090195Y-93837028D01*
X77247119Y-94071881D01*
X77383300Y-94162874D01*
X77280326Y-94265848D01*
X76880100Y-95232079D01*
X76880100Y-96277921D01*
X77280326Y-97244152D01*
X78019848Y-97983674D01*
X78986079Y-98383900D01*
X80031921Y-98383900D01*
X80998152Y-97983674D01*
X81040492Y-97941334D01*
X81541000Y-97941334D01*
X81541000Y-98648666D01*
X81811684Y-99302156D01*
X82311844Y-99802316D01*
X82965334Y-100073000D01*
X83672666Y-100073000D01*
X84326156Y-99802316D01*
X84826316Y-99302156D01*
X85097000Y-98648666D01*
X85097000Y-97941334D01*
X84827209Y-97290000D01*
X84894330Y-97290000D01*
X85458507Y-97056310D01*
X85890310Y-96624507D01*
X86124000Y-96060330D01*
X86124000Y-95449670D01*
X85890310Y-94885493D01*
X85458507Y-94453690D01*
X84894330Y-94220000D01*
X84283670Y-94220000D01*
X83719493Y-94453690D01*
X83287690Y-94885493D01*
X83054000Y-95449670D01*
X83054000Y-96060330D01*
X83243159Y-96517000D01*
X82965334Y-96517000D01*
X82311844Y-96787684D01*
X81811684Y-97287844D01*
X81541000Y-97941334D01*
X81040492Y-97941334D01*
X81737674Y-97244152D01*
X82137900Y-96277921D01*
X82137900Y-95232079D01*
X81737674Y-94265848D01*
X81634700Y-94162874D01*
X81770881Y-94071881D01*
X81927805Y-93837028D01*
X81982909Y-93560000D01*
X81969000Y-93490074D01*
X81969000Y-93332440D01*
X82709000Y-93332440D01*
X82956765Y-93283157D01*
X83166809Y-93142809D01*
X83298982Y-92945000D01*
X87003899Y-92945000D01*
X94503373Y-100444476D01*
X94545771Y-100507929D01*
X94609224Y-100550327D01*
X94609226Y-100550329D01*
X94701289Y-100611843D01*
X94797163Y-100675904D01*
X94815220Y-100679496D01*
X94820843Y-100707765D01*
X94901900Y-100829074D01*
X94880673Y-100850301D01*
X94784000Y-101083690D01*
X94784000Y-101424250D01*
X94942750Y-101583000D01*
X96092000Y-101583000D01*
X96092000Y-101563000D01*
X96159001Y-101563000D01*
X96159001Y-101857000D01*
X96092000Y-101857000D01*
X96092000Y-101837000D01*
X94942750Y-101837000D01*
X94784000Y-101995750D01*
X94784000Y-102336310D01*
X94880673Y-102569699D01*
X95059302Y-102748327D01*
X95292691Y-102845000D01*
X95933250Y-102845000D01*
X96091998Y-102686252D01*
X96091998Y-102845000D01*
X96159001Y-102845000D01*
X96159001Y-103015069D01*
X96145091Y-103085000D01*
X96200195Y-103362028D01*
X96357119Y-103596881D01*
X96457332Y-103663842D01*
X96330326Y-103790848D01*
X95930100Y-104757079D01*
X95930100Y-105802921D01*
X96330326Y-106769152D01*
X97069848Y-107508674D01*
X98036079Y-107908900D01*
X99081921Y-107908900D01*
X100048152Y-107508674D01*
X100090492Y-107466334D01*
X100591000Y-107466334D01*
X100591000Y-108173666D01*
X100861684Y-108827156D01*
X101361844Y-109327316D01*
X102015334Y-109598000D01*
X102722666Y-109598000D01*
X103376156Y-109327316D01*
X103876316Y-108827156D01*
X104147000Y-108173666D01*
X104147000Y-107466334D01*
X103877209Y-106815000D01*
X103944330Y-106815000D01*
X104508507Y-106581310D01*
X104940310Y-106149507D01*
X105174000Y-105585330D01*
X105174000Y-104974670D01*
X104940310Y-104410493D01*
X104508507Y-103978690D01*
X103944330Y-103745000D01*
X103333670Y-103745000D01*
X102769493Y-103978690D01*
X102337690Y-104410493D01*
X102104000Y-104974670D01*
X102104000Y-105585330D01*
X102293159Y-106042000D01*
X102015334Y-106042000D01*
X101361844Y-106312684D01*
X100861684Y-106812844D01*
X100591000Y-107466334D01*
X100090492Y-107466334D01*
X100787674Y-106769152D01*
X101187900Y-105802921D01*
X101187900Y-104757079D01*
X100787674Y-103790848D01*
X100708733Y-103711907D01*
X100880881Y-103596881D01*
X101037805Y-103362028D01*
X101092909Y-103085000D01*
X101079000Y-103015074D01*
X101079000Y-102857440D01*
X101819000Y-102857440D01*
X102066765Y-102808157D01*
X102276809Y-102667809D01*
X102417157Y-102457765D01*
X102422780Y-102429496D01*
X102440837Y-102425904D01*
X102692229Y-102257929D01*
X102734631Y-102194470D01*
X104447767Y-100481334D01*
X113291000Y-100481334D01*
X113291000Y-101188666D01*
X113561684Y-101842156D01*
X114061844Y-102342316D01*
X114715334Y-102613000D01*
X115422666Y-102613000D01*
X116076156Y-102342316D01*
X116576316Y-101842156D01*
X116847000Y-101188666D01*
X116847000Y-100481334D01*
X116576316Y-99827844D01*
X116076156Y-99327684D01*
X115422666Y-99057000D01*
X114715334Y-99057000D01*
X114061844Y-99327684D01*
X113561684Y-99827844D01*
X113291000Y-100481334D01*
X104447767Y-100481334D01*
X109479431Y-95449670D01*
X110994000Y-95449670D01*
X110994000Y-96060330D01*
X111227690Y-96624507D01*
X111659493Y-97056310D01*
X112223670Y-97290000D01*
X112834330Y-97290000D01*
X113398507Y-97056310D01*
X113830310Y-96624507D01*
X114064000Y-96060330D01*
X114064000Y-95449670D01*
X113830310Y-94885493D01*
X113398507Y-94453690D01*
X112834330Y-94220000D01*
X112223670Y-94220000D01*
X111659493Y-94453690D01*
X111227690Y-94885493D01*
X110994000Y-95449670D01*
X109479431Y-95449670D01*
X113734102Y-91195000D01*
X113819018Y-91195000D01*
X113891900Y-91304074D01*
X113870673Y-91325301D01*
X113774000Y-91558690D01*
X113774000Y-91899250D01*
X113932750Y-92058000D01*
X115082000Y-92058000D01*
X115082000Y-92038000D01*
X115149001Y-92038000D01*
X115149001Y-92332000D01*
X115082000Y-92332000D01*
X115082000Y-92312000D01*
X113932750Y-92312000D01*
X113774000Y-92470750D01*
X113774000Y-92811310D01*
X113870673Y-93044699D01*
X114049302Y-93223327D01*
X114282691Y-93320000D01*
X114923250Y-93320000D01*
X115081998Y-93161252D01*
X115081998Y-93320000D01*
X115149001Y-93320000D01*
X115149001Y-93490069D01*
X115135091Y-93560000D01*
X115190195Y-93837028D01*
X115347119Y-94071881D01*
X115483300Y-94162874D01*
X115380326Y-94265848D01*
X114980100Y-95232079D01*
X114980100Y-96277921D01*
X115380326Y-97244152D01*
X116119848Y-97983674D01*
X117086079Y-98383900D01*
X118131921Y-98383900D01*
X119098152Y-97983674D01*
X119140492Y-97941334D01*
X119641000Y-97941334D01*
X119641000Y-98648666D01*
X119911684Y-99302156D01*
X120411844Y-99802316D01*
X121065334Y-100073000D01*
X121772666Y-100073000D01*
X122426156Y-99802316D01*
X122926316Y-99302156D01*
X123197000Y-98648666D01*
X123197000Y-97941334D01*
X122927209Y-97290000D01*
X122994330Y-97290000D01*
X123558507Y-97056310D01*
X123990310Y-96624507D01*
X124224000Y-96060330D01*
X124224000Y-95449670D01*
X123990310Y-94885493D01*
X123558507Y-94453690D01*
X122994330Y-94220000D01*
X122383670Y-94220000D01*
X121819493Y-94453690D01*
X121387690Y-94885493D01*
X121154000Y-95449670D01*
X121154000Y-96060330D01*
X121343159Y-96517000D01*
X121065334Y-96517000D01*
X120411844Y-96787684D01*
X119911684Y-97287844D01*
X119641000Y-97941334D01*
X119140492Y-97941334D01*
X119837674Y-97244152D01*
X120237900Y-96277921D01*
X120237900Y-95232079D01*
X119837674Y-94265848D01*
X119734700Y-94162874D01*
X119870881Y-94071881D01*
X120027805Y-93837028D01*
X120082909Y-93560000D01*
X120069000Y-93490074D01*
X120069000Y-93332440D01*
X120809000Y-93332440D01*
X121056765Y-93283157D01*
X121266809Y-93142809D01*
X121407157Y-92932765D01*
X121412780Y-92904496D01*
X121430837Y-92900904D01*
X121682229Y-92732929D01*
X121724631Y-92669470D01*
X123525273Y-90868829D01*
X123588729Y-90826429D01*
X123756704Y-90575037D01*
X123800800Y-90353352D01*
X123800800Y-90353348D01*
X123815688Y-90278501D01*
X123800800Y-90203654D01*
X123800800Y-85522946D01*
X123815688Y-85448099D01*
X123800800Y-85373252D01*
X123800800Y-85373248D01*
X123756704Y-85151563D01*
X123701766Y-85069342D01*
X123631129Y-84963626D01*
X123631127Y-84963624D01*
X123588729Y-84900171D01*
X123525276Y-84857773D01*
X118001402Y-79333900D01*
X118131921Y-79333900D01*
X119098152Y-78933674D01*
X119140492Y-78891334D01*
X119641000Y-78891334D01*
X119641000Y-79598666D01*
X119911684Y-80252156D01*
X120411844Y-80752316D01*
X121065334Y-81023000D01*
X121772666Y-81023000D01*
X122426156Y-80752316D01*
X122926316Y-80252156D01*
X123197000Y-79598666D01*
X123197000Y-78891334D01*
X122927209Y-78240000D01*
X122994330Y-78240000D01*
X123558507Y-78006310D01*
X123990310Y-77574507D01*
X124224000Y-77010330D01*
X124224000Y-76399670D01*
X123990310Y-75835493D01*
X123558507Y-75403690D01*
X122994330Y-75170000D01*
X122383670Y-75170000D01*
X121819493Y-75403690D01*
X121387690Y-75835493D01*
X121154000Y-76399670D01*
X121154000Y-77010330D01*
X121343159Y-77467000D01*
X121065334Y-77467000D01*
X120411844Y-77737684D01*
X119911684Y-78237844D01*
X119641000Y-78891334D01*
X119140492Y-78891334D01*
X119837674Y-78194152D01*
X120237900Y-77227921D01*
X120237900Y-76182079D01*
X119837674Y-75215848D01*
X119734700Y-75112874D01*
X119870881Y-75021881D01*
X120027805Y-74787028D01*
X120082909Y-74510000D01*
X120069000Y-74440074D01*
X120069000Y-74282440D01*
X120809000Y-74282440D01*
X121056765Y-74233157D01*
X121266809Y-74092809D01*
X121407157Y-73882765D01*
X121412780Y-73854496D01*
X121430837Y-73850904D01*
X121682229Y-73682929D01*
X121850204Y-73431537D01*
X121909189Y-73135000D01*
X121894300Y-73060148D01*
X121894300Y-70427848D01*
X121909188Y-70353000D01*
X121894300Y-70278152D01*
X121894300Y-70278148D01*
X121850204Y-70056463D01*
X121682229Y-69805071D01*
X121618773Y-69762671D01*
X111531231Y-59675130D01*
X111488829Y-59611671D01*
X111237437Y-59443696D01*
X111015752Y-59399600D01*
X111015747Y-59399600D01*
X110940900Y-59384712D01*
X110866053Y-59399600D01*
X96741346Y-59399600D01*
X96666499Y-59384712D01*
X96591652Y-59399600D01*
X96591648Y-59399600D01*
X96369963Y-59443696D01*
X96369961Y-59443697D01*
X96369962Y-59443697D01*
X96182026Y-59569271D01*
X96182024Y-59569273D01*
X96118571Y-59611671D01*
X96076172Y-59675125D01*
X95674529Y-60076770D01*
X95611071Y-60119171D01*
X95443096Y-60370564D01*
X95399000Y-60592249D01*
X95399000Y-60592253D01*
X95384112Y-60667100D01*
X95393155Y-60712560D01*
X95359000Y-60712560D01*
X95111235Y-60761843D01*
X94901191Y-60902191D01*
X94760843Y-61112235D01*
X94711560Y-61360000D01*
X94711560Y-62360000D01*
X94760843Y-62607765D01*
X94841900Y-62729074D01*
X94820673Y-62750301D01*
X94724000Y-62983690D01*
X94724000Y-63324250D01*
X94882750Y-63483000D01*
X96032000Y-63483000D01*
X96032000Y-63463000D01*
X96099001Y-63463000D01*
X96099001Y-63757000D01*
X96032000Y-63757000D01*
X96032000Y-63737000D01*
X94882750Y-63737000D01*
X94724000Y-63895750D01*
X94724000Y-64236310D01*
X94820673Y-64469699D01*
X94999302Y-64648327D01*
X95232691Y-64745000D01*
X95873250Y-64745000D01*
X96031998Y-64586252D01*
X96031998Y-64745000D01*
X96099001Y-64745000D01*
X96099001Y-64915069D01*
X96085091Y-64985000D01*
X96140195Y-65262028D01*
X96297119Y-65496881D01*
X96433300Y-65587874D01*
X96330326Y-65690848D01*
X95930100Y-66657079D01*
X95930100Y-67702921D01*
X96330326Y-68669152D01*
X96427474Y-68766300D01*
X85355967Y-68766300D01*
X85168437Y-68640996D01*
X84946752Y-68596900D01*
X84946747Y-68596900D01*
X84871900Y-68582012D01*
X84797053Y-68596900D01*
X78006446Y-68596900D01*
X77931599Y-68582012D01*
X77856752Y-68596900D01*
X77856748Y-68596900D01*
X77635063Y-68640996D01*
X77383671Y-68808971D01*
X77341271Y-68872427D01*
X76624530Y-69589169D01*
X76561071Y-69631571D01*
X76393096Y-69882964D01*
X76349000Y-70104649D01*
X76349000Y-70104653D01*
X76334112Y-70179500D01*
X76345661Y-70237560D01*
X76309000Y-70237560D01*
X76061235Y-70286843D01*
X75851191Y-70427191D01*
X75710843Y-70637235D01*
X75661560Y-70885000D01*
X71710000Y-70885000D01*
X71710000Y-66874670D01*
X91944000Y-66874670D01*
X91944000Y-67485330D01*
X92177690Y-68049507D01*
X92609493Y-68481310D01*
X93173670Y-68715000D01*
X93784330Y-68715000D01*
X94348507Y-68481310D01*
X94780310Y-68049507D01*
X95014000Y-67485330D01*
X95014000Y-66874670D01*
X94780310Y-66310493D01*
X94348507Y-65878690D01*
X93784330Y-65645000D01*
X93173670Y-65645000D01*
X92609493Y-65878690D01*
X92177690Y-66310493D01*
X91944000Y-66874670D01*
X71710000Y-66874670D01*
X71710000Y-48137119D01*
X74683000Y-48137119D01*
X74683000Y-48692881D01*
X74895680Y-49206337D01*
X75288663Y-49599320D01*
X75802119Y-49812000D01*
X76357881Y-49812000D01*
X76871337Y-49599320D01*
X77075444Y-49395213D01*
X77819392Y-49395213D01*
X77888857Y-49637397D01*
X78412302Y-49824144D01*
X78967368Y-49796362D01*
X79351143Y-49637397D01*
X79420608Y-49395213D01*
X78620000Y-48594605D01*
X77819392Y-49395213D01*
X77075444Y-49395213D01*
X77264320Y-49206337D01*
X77343428Y-49015353D01*
X77397603Y-49146143D01*
X77639787Y-49215608D01*
X78440395Y-48415000D01*
X78799605Y-48415000D01*
X79600213Y-49215608D01*
X79842397Y-49146143D01*
X79892535Y-49005607D01*
X79975680Y-49206337D01*
X80368663Y-49599320D01*
X80882119Y-49812000D01*
X81437881Y-49812000D01*
X81951337Y-49599320D01*
X82344320Y-49206337D01*
X82430000Y-48999487D01*
X82515680Y-49206337D01*
X82908663Y-49599320D01*
X83422119Y-49812000D01*
X83977881Y-49812000D01*
X84491337Y-49599320D01*
X84884320Y-49206337D01*
X84970000Y-48999487D01*
X85055680Y-49206337D01*
X85448663Y-49599320D01*
X85962119Y-49812000D01*
X86517881Y-49812000D01*
X87031337Y-49599320D01*
X87424320Y-49206337D01*
X87510000Y-48999487D01*
X87595680Y-49206337D01*
X87988663Y-49599320D01*
X88502119Y-49812000D01*
X89057881Y-49812000D01*
X89571337Y-49599320D01*
X89964320Y-49206337D01*
X90050000Y-48999487D01*
X90135680Y-49206337D01*
X90528663Y-49599320D01*
X91042119Y-49812000D01*
X91597881Y-49812000D01*
X92111337Y-49599320D01*
X92504320Y-49206337D01*
X92590000Y-48999487D01*
X92675680Y-49206337D01*
X93068663Y-49599320D01*
X93582119Y-49812000D01*
X94137881Y-49812000D01*
X94651337Y-49599320D01*
X95044320Y-49206337D01*
X95130000Y-48999487D01*
X95215680Y-49206337D01*
X95608663Y-49599320D01*
X96122119Y-49812000D01*
X96677881Y-49812000D01*
X97191337Y-49599320D01*
X97584320Y-49206337D01*
X97670000Y-48999487D01*
X97755680Y-49206337D01*
X98148663Y-49599320D01*
X98662119Y-49812000D01*
X99217881Y-49812000D01*
X99731337Y-49599320D01*
X100124320Y-49206337D01*
X100210000Y-48999487D01*
X100295680Y-49206337D01*
X100688663Y-49599320D01*
X101202119Y-49812000D01*
X101757881Y-49812000D01*
X102271337Y-49599320D01*
X102664320Y-49206337D01*
X102750000Y-48999487D01*
X102835680Y-49206337D01*
X103228663Y-49599320D01*
X103742119Y-49812000D01*
X104297881Y-49812000D01*
X104811337Y-49599320D01*
X105204320Y-49206337D01*
X105417000Y-48692881D01*
X105417000Y-48137119D01*
X105204320Y-47623663D01*
X104811337Y-47230680D01*
X104297881Y-47018000D01*
X103742119Y-47018000D01*
X103228663Y-47230680D01*
X102835680Y-47623663D01*
X102750000Y-47830513D01*
X102664320Y-47623663D01*
X102271337Y-47230680D01*
X101757881Y-47018000D01*
X101202119Y-47018000D01*
X100688663Y-47230680D01*
X100295680Y-47623663D01*
X100210000Y-47830513D01*
X100124320Y-47623663D01*
X99731337Y-47230680D01*
X99217881Y-47018000D01*
X98662119Y-47018000D01*
X98148663Y-47230680D01*
X97755680Y-47623663D01*
X97670000Y-47830513D01*
X97584320Y-47623663D01*
X97191337Y-47230680D01*
X96677881Y-47018000D01*
X96122119Y-47018000D01*
X95608663Y-47230680D01*
X95215680Y-47623663D01*
X95130000Y-47830513D01*
X95044320Y-47623663D01*
X94651337Y-47230680D01*
X94137881Y-47018000D01*
X93582119Y-47018000D01*
X93068663Y-47230680D01*
X92675680Y-47623663D01*
X92590000Y-47830513D01*
X92504320Y-47623663D01*
X92111337Y-47230680D01*
X91597881Y-47018000D01*
X91042119Y-47018000D01*
X90528663Y-47230680D01*
X90135680Y-47623663D01*
X90050000Y-47830513D01*
X89964320Y-47623663D01*
X89571337Y-47230680D01*
X89057881Y-47018000D01*
X88502119Y-47018000D01*
X87988663Y-47230680D01*
X87595680Y-47623663D01*
X87510000Y-47830513D01*
X87424320Y-47623663D01*
X87031337Y-47230680D01*
X86517881Y-47018000D01*
X86277867Y-47018000D01*
X92300868Y-40995000D01*
X107414146Y-40995000D01*
X107523572Y-41104426D01*
X106956627Y-41671371D01*
X106893172Y-41713771D01*
X106725197Y-41965163D01*
X106689246Y-42145903D01*
X106666212Y-42261700D01*
X106681101Y-42336552D01*
X106681100Y-44141253D01*
X106666212Y-44216100D01*
X106681100Y-44290947D01*
X106681100Y-44290951D01*
X106725196Y-44512636D01*
X106893171Y-44764029D01*
X106956630Y-44806431D01*
X107131500Y-44981301D01*
X107131500Y-45505250D01*
X107334513Y-45995367D01*
X107709633Y-46370487D01*
X108199750Y-46573500D01*
X108730250Y-46573500D01*
X109220367Y-46370487D01*
X109595487Y-45995367D01*
X109798500Y-45505250D01*
X109798500Y-44974750D01*
X109595487Y-44484633D01*
X109220367Y-44109513D01*
X108883553Y-43970000D01*
X109220367Y-43830487D01*
X109595487Y-43455367D01*
X109798500Y-42965250D01*
X109798500Y-42441302D01*
X110444073Y-41795729D01*
X110507529Y-41753329D01*
X110675504Y-41501937D01*
X110719600Y-41280252D01*
X110719600Y-41280248D01*
X110734488Y-41205400D01*
X110719600Y-41130552D01*
X110719600Y-39574046D01*
X110734488Y-39499199D01*
X110719600Y-39424352D01*
X110719600Y-39424348D01*
X110675504Y-39202663D01*
X110507529Y-38951271D01*
X110444073Y-38908871D01*
X109703131Y-38167930D01*
X109691802Y-38150975D01*
X109810927Y-37812520D01*
X109782148Y-37282801D01*
X109634800Y-36927071D01*
X109399188Y-36865417D01*
X108644605Y-37620000D01*
X108658748Y-37634143D01*
X108479143Y-37813748D01*
X108465000Y-37799605D01*
X108450858Y-37813748D01*
X108271253Y-37634143D01*
X108285395Y-37620000D01*
X107530812Y-36865417D01*
X107295200Y-36927071D01*
X107119073Y-37427480D01*
X107144332Y-37892400D01*
X94572203Y-37892400D01*
X93365615Y-36685812D01*
X107710417Y-36685812D01*
X108465000Y-37440395D01*
X109219583Y-36685812D01*
X109157929Y-36450200D01*
X108657520Y-36274073D01*
X108127801Y-36302852D01*
X107772071Y-36450200D01*
X107710417Y-36685812D01*
X93365615Y-36685812D01*
X91251802Y-34572000D01*
X91597881Y-34572000D01*
X92111337Y-34359320D01*
X92504320Y-33966337D01*
X92590000Y-33759487D01*
X92675680Y-33966337D01*
X93068663Y-34359320D01*
X93582119Y-34572000D01*
X94137881Y-34572000D01*
X94651337Y-34359320D01*
X95044320Y-33966337D01*
X95130000Y-33759487D01*
X95215680Y-33966337D01*
X95608663Y-34359320D01*
X96122119Y-34572000D01*
X96677881Y-34572000D01*
X97191337Y-34359320D01*
X97584320Y-33966337D01*
X97670000Y-33759487D01*
X97755680Y-33966337D01*
X98148663Y-34359320D01*
X98662119Y-34572000D01*
X99217881Y-34572000D01*
X99731337Y-34359320D01*
X100124320Y-33966337D01*
X100210000Y-33759487D01*
X100295680Y-33966337D01*
X100688663Y-34359320D01*
X101202119Y-34572000D01*
X101757881Y-34572000D01*
X102271337Y-34359320D01*
X102664320Y-33966337D01*
X102750000Y-33759487D01*
X102835680Y-33966337D01*
X103228663Y-34359320D01*
X103742119Y-34572000D01*
X104297881Y-34572000D01*
X104811337Y-34359320D01*
X105204320Y-33966337D01*
X105417000Y-33452881D01*
X105417000Y-32897119D01*
X105204320Y-32383663D01*
X104811337Y-31990680D01*
X104297881Y-31778000D01*
X103742119Y-31778000D01*
X103228663Y-31990680D01*
X102835680Y-32383663D01*
X102750000Y-32590513D01*
X102664320Y-32383663D01*
X102271337Y-31990680D01*
X101757881Y-31778000D01*
X101202119Y-31778000D01*
X100688663Y-31990680D01*
X100295680Y-32383663D01*
X100210000Y-32590513D01*
X100124320Y-32383663D01*
X99731337Y-31990680D01*
X99217881Y-31778000D01*
X98662119Y-31778000D01*
X98148663Y-31990680D01*
X97755680Y-32383663D01*
X97670000Y-32590513D01*
X97584320Y-32383663D01*
X97191337Y-31990680D01*
X96677881Y-31778000D01*
X96122119Y-31778000D01*
X95608663Y-31990680D01*
X95215680Y-32383663D01*
X95130000Y-32590513D01*
X95044320Y-32383663D01*
X94651337Y-31990680D01*
X94137881Y-31778000D01*
X93582119Y-31778000D01*
X93068663Y-31990680D01*
X92675680Y-32383663D01*
X92590000Y-32590513D01*
X92504320Y-32383663D01*
X92111337Y-31990680D01*
X91597881Y-31778000D01*
X91042119Y-31778000D01*
X90528663Y-31990680D01*
X90135680Y-32383663D01*
X90050000Y-32590513D01*
X89964320Y-32383663D01*
X89571337Y-31990680D01*
X89057881Y-31778000D01*
X88502119Y-31778000D01*
X87988663Y-31990680D01*
X87595680Y-32383663D01*
X87510000Y-32590513D01*
X87424320Y-32383663D01*
X87031337Y-31990680D01*
X86517881Y-31778000D01*
X85962119Y-31778000D01*
X85448663Y-31990680D01*
X85055680Y-32383663D01*
X84976572Y-32574647D01*
X84922397Y-32443857D01*
X84680213Y-32374392D01*
X83879605Y-33175000D01*
X84680213Y-33975608D01*
X84922397Y-33906143D01*
X84972535Y-33765607D01*
X85055680Y-33966337D01*
X85448663Y-34359320D01*
X85962119Y-34572000D01*
X86517881Y-34572000D01*
X86549218Y-34559020D01*
X91470012Y-39479814D01*
X91352999Y-39557999D01*
X91306415Y-39627717D01*
X83916133Y-47018000D01*
X83422119Y-47018000D01*
X82908663Y-47230680D01*
X82515680Y-47623663D01*
X82430000Y-47830513D01*
X82344320Y-47623663D01*
X81951337Y-47230680D01*
X81437881Y-47018000D01*
X80882119Y-47018000D01*
X80368663Y-47230680D01*
X79975680Y-47623663D01*
X79896572Y-47814647D01*
X79842397Y-47683857D01*
X79600213Y-47614392D01*
X78799605Y-48415000D01*
X78440395Y-48415000D01*
X77639787Y-47614392D01*
X77397603Y-47683857D01*
X77347465Y-47824393D01*
X77264320Y-47623663D01*
X77075444Y-47434787D01*
X77819392Y-47434787D01*
X78620000Y-48235395D01*
X79420608Y-47434787D01*
X79351143Y-47192603D01*
X78827698Y-47005856D01*
X78272632Y-47033638D01*
X77888857Y-47192603D01*
X77819392Y-47434787D01*
X77075444Y-47434787D01*
X76871337Y-47230680D01*
X76357881Y-47018000D01*
X75802119Y-47018000D01*
X75288663Y-47230680D01*
X74895680Y-47623663D01*
X74683000Y-48137119D01*
X71710000Y-48137119D01*
X71710000Y-32413000D01*
X74670560Y-32413000D01*
X74670560Y-33937000D01*
X74719843Y-34184765D01*
X74860191Y-34394809D01*
X75070235Y-34535157D01*
X75318000Y-34584440D01*
X76842000Y-34584440D01*
X77089765Y-34535157D01*
X77299809Y-34394809D01*
X77440157Y-34184765D01*
X77475653Y-34006310D01*
X77828663Y-34359320D01*
X78342119Y-34572000D01*
X78897881Y-34572000D01*
X79411337Y-34359320D01*
X79615444Y-34155213D01*
X80359392Y-34155213D01*
X80428857Y-34397397D01*
X80952302Y-34584144D01*
X81507368Y-34556362D01*
X81891143Y-34397397D01*
X81960608Y-34155213D01*
X82899392Y-34155213D01*
X82968857Y-34397397D01*
X83492302Y-34584144D01*
X84047368Y-34556362D01*
X84431143Y-34397397D01*
X84500608Y-34155213D01*
X83700000Y-33354605D01*
X82899392Y-34155213D01*
X81960608Y-34155213D01*
X81160000Y-33354605D01*
X80359392Y-34155213D01*
X79615444Y-34155213D01*
X79804320Y-33966337D01*
X79883428Y-33775353D01*
X79937603Y-33906143D01*
X80179787Y-33975608D01*
X80980395Y-33175000D01*
X81339605Y-33175000D01*
X82140213Y-33975608D01*
X82382397Y-33906143D01*
X82426453Y-33782656D01*
X82477603Y-33906143D01*
X82719787Y-33975608D01*
X83520395Y-33175000D01*
X82719787Y-32374392D01*
X82477603Y-32443857D01*
X82433547Y-32567344D01*
X82382397Y-32443857D01*
X82140213Y-32374392D01*
X81339605Y-33175000D01*
X80980395Y-33175000D01*
X80179787Y-32374392D01*
X79937603Y-32443857D01*
X79887465Y-32584393D01*
X79804320Y-32383663D01*
X79615444Y-32194787D01*
X80359392Y-32194787D01*
X81160000Y-32995395D01*
X81960608Y-32194787D01*
X82899392Y-32194787D01*
X83700000Y-32995395D01*
X84500608Y-32194787D01*
X84431143Y-31952603D01*
X83907698Y-31765856D01*
X83352632Y-31793638D01*
X82968857Y-31952603D01*
X82899392Y-32194787D01*
X81960608Y-32194787D01*
X81891143Y-31952603D01*
X81367698Y-31765856D01*
X80812632Y-31793638D01*
X80428857Y-31952603D01*
X80359392Y-32194787D01*
X79615444Y-32194787D01*
X79411337Y-31990680D01*
X78897881Y-31778000D01*
X78342119Y-31778000D01*
X77828663Y-31990680D01*
X77475653Y-32343690D01*
X77440157Y-32165235D01*
X77299809Y-31955191D01*
X77089765Y-31814843D01*
X76842000Y-31765560D01*
X75318000Y-31765560D01*
X75070235Y-31814843D01*
X74860191Y-31955191D01*
X74719843Y-32165235D01*
X74670560Y-32413000D01*
X71710000Y-32413000D01*
X71710000Y-28294090D01*
X72173462Y-27830628D01*
X71865000Y-28575322D01*
X71865000Y-29424678D01*
X72190034Y-30209380D01*
X72790620Y-30809966D01*
X73575322Y-31135000D01*
X74424678Y-31135000D01*
X75209380Y-30809966D01*
X75304785Y-30714561D01*
X107665000Y-30714561D01*
X107665000Y-31285439D01*
X107883466Y-31812862D01*
X108287138Y-32216534D01*
X108814561Y-32435000D01*
X109385439Y-32435000D01*
X109912862Y-32216534D01*
X110231956Y-31897440D01*
X110335035Y-31897440D01*
X110442191Y-32057809D01*
X110652235Y-32198157D01*
X110900000Y-32247440D01*
X112400000Y-32247440D01*
X112647765Y-32198157D01*
X112857809Y-32057809D01*
X112998157Y-31847765D01*
X113000000Y-31838500D01*
X113001843Y-31847765D01*
X113142191Y-32057809D01*
X113352235Y-32198157D01*
X113600000Y-32247440D01*
X115100000Y-32247440D01*
X115347765Y-32198157D01*
X115557809Y-32057809D01*
X115664965Y-31897440D01*
X115768044Y-31897440D01*
X116087138Y-32216534D01*
X116614561Y-32435000D01*
X117185439Y-32435000D01*
X117712862Y-32216534D01*
X118116534Y-31812862D01*
X118335000Y-31285439D01*
X118335000Y-30714561D01*
X118116534Y-30187138D01*
X117712862Y-29783466D01*
X117185439Y-29565000D01*
X116614561Y-29565000D01*
X116087138Y-29783466D01*
X115768044Y-30102560D01*
X115664965Y-30102560D01*
X115557809Y-29942191D01*
X115347765Y-29801843D01*
X115100000Y-29752560D01*
X113600000Y-29752560D01*
X113352235Y-29801843D01*
X113142191Y-29942191D01*
X113001843Y-30152235D01*
X113000000Y-30161500D01*
X112998157Y-30152235D01*
X112857809Y-29942191D01*
X112647765Y-29801843D01*
X112400000Y-29752560D01*
X110900000Y-29752560D01*
X110652235Y-29801843D01*
X110442191Y-29942191D01*
X110335035Y-30102560D01*
X110231956Y-30102560D01*
X109912862Y-29783466D01*
X109385439Y-29565000D01*
X108814561Y-29565000D01*
X108287138Y-29783466D01*
X107883466Y-30187138D01*
X107665000Y-30714561D01*
X75304785Y-30714561D01*
X75809966Y-30209380D01*
X76135000Y-29424678D01*
X76135000Y-28674778D01*
X93115000Y-28674778D01*
X93115000Y-29325222D01*
X93363914Y-29926153D01*
X93823847Y-30386086D01*
X94424778Y-30635000D01*
X95075222Y-30635000D01*
X95676153Y-30386086D01*
X95909707Y-30152532D01*
X100277073Y-30152532D01*
X100375736Y-30419387D01*
X100985461Y-30645908D01*
X101635460Y-30621856D01*
X102124264Y-30419387D01*
X102222927Y-30152532D01*
X101250000Y-29179605D01*
X100277073Y-30152532D01*
X95909707Y-30152532D01*
X96136086Y-29926153D01*
X96385000Y-29325222D01*
X96385000Y-28735461D01*
X99604092Y-28735461D01*
X99628144Y-29385460D01*
X99830613Y-29874264D01*
X100097468Y-29972927D01*
X101070395Y-29000000D01*
X101429605Y-29000000D01*
X102402532Y-29972927D01*
X102669387Y-29874264D01*
X102895908Y-29264539D01*
X102871856Y-28614540D01*
X102669387Y-28125736D01*
X102402532Y-28027073D01*
X101429605Y-29000000D01*
X101070395Y-29000000D01*
X100097468Y-28027073D01*
X99830613Y-28125736D01*
X99604092Y-28735461D01*
X96385000Y-28735461D01*
X96385000Y-28674778D01*
X96136086Y-28073847D01*
X95909707Y-27847468D01*
X100277073Y-27847468D01*
X101250000Y-28820395D01*
X102222927Y-27847468D01*
X102124264Y-27580613D01*
X101514539Y-27354092D01*
X100864540Y-27378144D01*
X100375736Y-27580613D01*
X100277073Y-27847468D01*
X95909707Y-27847468D01*
X95676153Y-27613914D01*
X95075222Y-27365000D01*
X94424778Y-27365000D01*
X93823847Y-27613914D01*
X93363914Y-28073847D01*
X93115000Y-28674778D01*
X76135000Y-28674778D01*
X76135000Y-28575322D01*
X75809966Y-27790620D01*
X75209380Y-27190034D01*
X74424678Y-26865000D01*
X73575322Y-26865000D01*
X72830629Y-27173462D01*
X73294091Y-26710000D01*
X108433235Y-26710000D01*
X108345995Y-26746136D01*
G36*
X113650992Y-84782560D02*
X113290000Y-84782560D01*
X113042235Y-84831843D01*
X112832191Y-84972191D01*
X112691843Y-85182235D01*
X112642560Y-85430000D01*
X112642560Y-87030000D01*
X112691843Y-87277765D01*
X112832191Y-87487809D01*
X113042235Y-87628157D01*
X113290000Y-87677440D01*
X114170492Y-87677440D01*
X102722933Y-99125000D01*
X102458981Y-99125000D01*
X102405752Y-98857399D01*
X102376925Y-98814257D01*
X102221201Y-98581199D01*
X102151482Y-98534615D01*
X101047487Y-97430620D01*
X101000901Y-97360899D01*
X100724701Y-97176348D01*
X100481137Y-97127900D01*
X100481133Y-97127900D01*
X100398900Y-97111543D01*
X100316667Y-97127900D01*
X96125564Y-97127900D01*
X96297809Y-97012809D01*
X96438157Y-96802765D01*
X96487440Y-96555000D01*
X96487440Y-95085000D01*
X96712560Y-95085000D01*
X96712560Y-96425000D01*
X96761843Y-96672765D01*
X96902191Y-96882809D01*
X97112235Y-97023157D01*
X97360000Y-97072440D01*
X98700000Y-97072440D01*
X98947765Y-97023157D01*
X99157809Y-96882809D01*
X99298157Y-96672765D01*
X99327064Y-96527440D01*
X101606723Y-96527440D01*
X101623466Y-96567862D01*
X102027138Y-96971534D01*
X102554561Y-97190000D01*
X103125439Y-97190000D01*
X103652862Y-96971534D01*
X104056534Y-96567862D01*
X104275000Y-96040439D01*
X104275000Y-95469561D01*
X104056534Y-94942138D01*
X103652862Y-94538466D01*
X103125439Y-94320000D01*
X102554561Y-94320000D01*
X102027138Y-94538466D01*
X101623466Y-94942138D01*
X101606723Y-94982560D01*
X99327064Y-94982560D01*
X99298157Y-94837235D01*
X99157809Y-94627191D01*
X98947765Y-94486843D01*
X98700000Y-94437560D01*
X97360000Y-94437560D01*
X97112235Y-94486843D01*
X96902191Y-94627191D01*
X96761843Y-94837235D01*
X96712560Y-95085000D01*
X96487440Y-95085000D01*
X96487440Y-94955000D01*
X96438157Y-94707235D01*
X96297809Y-94497191D01*
X96087765Y-94356843D01*
X95840000Y-94307560D01*
X94240000Y-94307560D01*
X93992235Y-94356843D01*
X93782191Y-94497191D01*
X93641843Y-94707235D01*
X93592560Y-94955000D01*
X93592560Y-95322792D01*
X89226102Y-90956334D01*
X94241000Y-90956334D01*
X94241000Y-91663666D01*
X94511684Y-92317156D01*
X95011844Y-92817316D01*
X95665334Y-93088000D01*
X96372666Y-93088000D01*
X97026156Y-92817316D01*
X97526316Y-92317156D01*
X97797000Y-91663666D01*
X97797000Y-90956334D01*
X97526316Y-90302844D01*
X97026156Y-89802684D01*
X96372666Y-89532000D01*
X95665334Y-89532000D01*
X95011844Y-89802684D01*
X94511684Y-90302844D01*
X94241000Y-90956334D01*
X89226102Y-90956334D01*
X88172487Y-89902720D01*
X88125901Y-89832999D01*
X87849701Y-89648448D01*
X87606137Y-89600000D01*
X87606133Y-89600000D01*
X87523900Y-89583643D01*
X87441667Y-89600000D01*
X83248868Y-89600000D01*
X83178508Y-89494700D01*
X99260253Y-89494700D01*
X99335100Y-89509588D01*
X99409947Y-89494700D01*
X99409952Y-89494700D01*
X99631637Y-89450604D01*
X99883029Y-89282629D01*
X99925431Y-89219170D01*
X100591000Y-88553601D01*
X100591000Y-89123666D01*
X100861684Y-89777156D01*
X101361844Y-90277316D01*
X102015334Y-90548000D01*
X102722666Y-90548000D01*
X103376156Y-90277316D01*
X103876316Y-89777156D01*
X104147000Y-89123666D01*
X104147000Y-88416334D01*
X103877209Y-87765000D01*
X103944330Y-87765000D01*
X104508507Y-87531310D01*
X104940310Y-87099507D01*
X105174000Y-86535330D01*
X105174000Y-85924670D01*
X104940310Y-85360493D01*
X104508507Y-84928690D01*
X103944330Y-84695000D01*
X103333670Y-84695000D01*
X102769493Y-84928690D01*
X102337690Y-85360493D01*
X102104000Y-85924670D01*
X102104000Y-86535330D01*
X102293159Y-86992000D01*
X102015334Y-86992000D01*
X101786751Y-87086682D01*
X101793888Y-87050801D01*
X101779000Y-86975954D01*
X101779000Y-83807440D01*
X101819000Y-83807440D01*
X102066765Y-83758157D01*
X102276809Y-83617809D01*
X102417157Y-83407765D01*
X102466440Y-83160000D01*
X102466440Y-82160000D01*
X102417157Y-81912235D01*
X102332141Y-81785000D01*
X102367656Y-81731848D01*
X102545101Y-81696552D01*
X102821301Y-81512001D01*
X102867887Y-81442280D01*
X104425968Y-79884200D01*
X108752633Y-79884200D01*
X113650992Y-84782560D01*
X113650992Y-84782560D01*
G37*
X113650992Y-84782560D02*
X113290000Y-84782560D01*
X113042235Y-84831843D01*
X112832191Y-84972191D01*
X112691843Y-85182235D01*
X112642560Y-85430000D01*
X112642560Y-87030000D01*
X112691843Y-87277765D01*
X112832191Y-87487809D01*
X113042235Y-87628157D01*
X113290000Y-87677440D01*
X114170492Y-87677440D01*
X102722933Y-99125000D01*
X102458981Y-99125000D01*
X102405752Y-98857399D01*
X102376925Y-98814257D01*
X102221201Y-98581199D01*
X102151482Y-98534615D01*
X101047487Y-97430620D01*
X101000901Y-97360899D01*
X100724701Y-97176348D01*
X100481137Y-97127900D01*
X100481133Y-97127900D01*
X100398900Y-97111543D01*
X100316667Y-97127900D01*
X96125564Y-97127900D01*
X96297809Y-97012809D01*
X96438157Y-96802765D01*
X96487440Y-96555000D01*
X96487440Y-95085000D01*
X96712560Y-95085000D01*
X96712560Y-96425000D01*
X96761843Y-96672765D01*
X96902191Y-96882809D01*
X97112235Y-97023157D01*
X97360000Y-97072440D01*
X98700000Y-97072440D01*
X98947765Y-97023157D01*
X99157809Y-96882809D01*
X99298157Y-96672765D01*
X99327064Y-96527440D01*
X101606723Y-96527440D01*
X101623466Y-96567862D01*
X102027138Y-96971534D01*
X102554561Y-97190000D01*
X103125439Y-97190000D01*
X103652862Y-96971534D01*
X104056534Y-96567862D01*
X104275000Y-96040439D01*
X104275000Y-95469561D01*
X104056534Y-94942138D01*
X103652862Y-94538466D01*
X103125439Y-94320000D01*
X102554561Y-94320000D01*
X102027138Y-94538466D01*
X101623466Y-94942138D01*
X101606723Y-94982560D01*
X99327064Y-94982560D01*
X99298157Y-94837235D01*
X99157809Y-94627191D01*
X98947765Y-94486843D01*
X98700000Y-94437560D01*
X97360000Y-94437560D01*
X97112235Y-94486843D01*
X96902191Y-94627191D01*
X96761843Y-94837235D01*
X96712560Y-95085000D01*
X96487440Y-95085000D01*
X96487440Y-94955000D01*
X96438157Y-94707235D01*
X96297809Y-94497191D01*
X96087765Y-94356843D01*
X95840000Y-94307560D01*
X94240000Y-94307560D01*
X93992235Y-94356843D01*
X93782191Y-94497191D01*
X93641843Y-94707235D01*
X93592560Y-94955000D01*
X93592560Y-95322792D01*
X89226102Y-90956334D01*
X94241000Y-90956334D01*
X94241000Y-91663666D01*
X94511684Y-92317156D01*
X95011844Y-92817316D01*
X95665334Y-93088000D01*
X96372666Y-93088000D01*
X97026156Y-92817316D01*
X97526316Y-92317156D01*
X97797000Y-91663666D01*
X97797000Y-90956334D01*
X97526316Y-90302844D01*
X97026156Y-89802684D01*
X96372666Y-89532000D01*
X95665334Y-89532000D01*
X95011844Y-89802684D01*
X94511684Y-90302844D01*
X94241000Y-90956334D01*
X89226102Y-90956334D01*
X88172487Y-89902720D01*
X88125901Y-89832999D01*
X87849701Y-89648448D01*
X87606137Y-89600000D01*
X87606133Y-89600000D01*
X87523900Y-89583643D01*
X87441667Y-89600000D01*
X83248868Y-89600000D01*
X83178508Y-89494700D01*
X99260253Y-89494700D01*
X99335100Y-89509588D01*
X99409947Y-89494700D01*
X99409952Y-89494700D01*
X99631637Y-89450604D01*
X99883029Y-89282629D01*
X99925431Y-89219170D01*
X100591000Y-88553601D01*
X100591000Y-89123666D01*
X100861684Y-89777156D01*
X101361844Y-90277316D01*
X102015334Y-90548000D01*
X102722666Y-90548000D01*
X103376156Y-90277316D01*
X103876316Y-89777156D01*
X104147000Y-89123666D01*
X104147000Y-88416334D01*
X103877209Y-87765000D01*
X103944330Y-87765000D01*
X104508507Y-87531310D01*
X104940310Y-87099507D01*
X105174000Y-86535330D01*
X105174000Y-85924670D01*
X104940310Y-85360493D01*
X104508507Y-84928690D01*
X103944330Y-84695000D01*
X103333670Y-84695000D01*
X102769493Y-84928690D01*
X102337690Y-85360493D01*
X102104000Y-85924670D01*
X102104000Y-86535330D01*
X102293159Y-86992000D01*
X102015334Y-86992000D01*
X101786751Y-87086682D01*
X101793888Y-87050801D01*
X101779000Y-86975954D01*
X101779000Y-83807440D01*
X101819000Y-83807440D01*
X102066765Y-83758157D01*
X102276809Y-83617809D01*
X102417157Y-83407765D01*
X102466440Y-83160000D01*
X102466440Y-82160000D01*
X102417157Y-81912235D01*
X102332141Y-81785000D01*
X102367656Y-81731848D01*
X102545101Y-81696552D01*
X102821301Y-81512001D01*
X102867887Y-81442280D01*
X104425968Y-79884200D01*
X108752633Y-79884200D01*
X113650992Y-84782560D01*
G36*
X115081998Y-74270000D02*
X115149001Y-74270000D01*
X115149001Y-74440069D01*
X115135091Y-74510000D01*
X115190195Y-74787028D01*
X115347119Y-75021881D01*
X115483300Y-75112874D01*
X115380326Y-75215848D01*
X114980100Y-76182079D01*
X114980100Y-76312599D01*
X114843700Y-76176199D01*
X114843700Y-74270000D01*
X114923250Y-74270000D01*
X115081998Y-74111252D01*
X115081998Y-74270000D01*
X115081998Y-74270000D01*
G37*
X115081998Y-74270000D02*
X115149001Y-74270000D01*
X115149001Y-74440069D01*
X115135091Y-74510000D01*
X115190195Y-74787028D01*
X115347119Y-75021881D01*
X115483300Y-75112874D01*
X115380326Y-75215848D01*
X114980100Y-76182079D01*
X114980100Y-76312599D01*
X114843700Y-76176199D01*
X114843700Y-74270000D01*
X114923250Y-74270000D01*
X115081998Y-74111252D01*
X115081998Y-74270000D01*
G36*
X115149001Y-73282000D02*
X115082000Y-73282000D01*
X115082000Y-73262000D01*
X115062000Y-73262000D01*
X115062000Y-73008000D01*
X115082000Y-73008000D01*
X115082000Y-72988000D01*
X115149001Y-72988000D01*
X115149001Y-73282000D01*
X115149001Y-73282000D01*
G37*
X115149001Y-73282000D02*
X115082000Y-73282000D01*
X115082000Y-73262000D01*
X115062000Y-73262000D01*
X115062000Y-73008000D01*
X115082000Y-73008000D01*
X115082000Y-72988000D01*
X115149001Y-72988000D01*
X115149001Y-73282000D01*
G04 #@! TD*
M02*
