G04 #@! TF.GenerationSoftware,KiCad,Pcbnew,5.0.2-bee76a0~70~ubuntu18.04.1*
G04 #@! TF.CreationDate,2019-05-23T01:45:31+09:00*
G04 #@! TF.ProjectId,meishi666,6d656973-6869-4363-9636-2e6b69636164,rev?*
G04 #@! TF.SameCoordinates,Original*
G04 #@! TF.FileFunction,Copper,L1,Top*
G04 #@! TF.FilePolarity,Positive*
%FSLAX46Y46*%
G04 Gerber Fmt 4.6, Leading zero omitted, Abs format (unit mm)*
G04 Created by KiCad (PCBNEW 5.0.2-bee76a0~70~ubuntu18.04.1) date 2019年05月23日 01時45分31秒*
%MOMM*%
%LPD*%
G01*
G04 APERTURE LIST*
G04 #@! TA.AperFunction,ComponentPad*
%ADD10C,1.524000*%
G04 #@! TD*
G04 #@! TA.AperFunction,ComponentPad*
%ADD11R,1.524000X1.524000*%
G04 #@! TD*
G04 #@! TA.AperFunction,ComponentPad*
%ADD12C,2.286000*%
G04 #@! TD*
G04 #@! TA.AperFunction,WasherPad*
%ADD13C,3.000000*%
G04 #@! TD*
G04 #@! TA.AperFunction,SMDPad,CuDef*
%ADD14R,1.340000X1.340000*%
G04 #@! TD*
G04 #@! TA.AperFunction,ComponentPad*
%ADD15C,1.600000*%
G04 #@! TD*
G04 #@! TA.AperFunction,ComponentPad*
%ADD16R,1.600000X1.600000*%
G04 #@! TD*
G04 #@! TA.AperFunction,Conductor*
%ADD17R,4.000000X0.250000*%
G04 #@! TD*
G04 #@! TA.AperFunction,ComponentPad*
%ADD18C,1.397000*%
G04 #@! TD*
G04 #@! TA.AperFunction,ComponentPad*
%ADD19C,2.000000*%
G04 #@! TD*
G04 #@! TA.AperFunction,SMDPad,CuDef*
%ADD20R,2.200000X4.000000*%
G04 #@! TD*
G04 #@! TA.AperFunction,SMDPad,CuDef*
%ADD21R,1.500000X1.200000*%
G04 #@! TD*
G04 #@! TA.AperFunction,Conductor*
%ADD22R,2.900000X0.500000*%
G04 #@! TD*
G04 #@! TA.AperFunction,ViaPad*
%ADD23C,0.800000*%
G04 #@! TD*
G04 #@! TA.AperFunction,Conductor*
%ADD24C,0.250000*%
G04 #@! TD*
G04 #@! TA.AperFunction,Conductor*
%ADD25C,0.400000*%
G04 #@! TD*
G04 #@! TA.AperFunction,Conductor*
%ADD26C,0.254000*%
G04 #@! TD*
G04 APERTURE END LIST*
D10*
G04 #@! TO.P,U1,24*
G04 #@! TO.N,Net-(U1-Pad24)*
X76080000Y-48415000D03*
G04 #@! TO.P,U1,12*
G04 #@! TO.N,Net-(U1-Pad12)*
X104020000Y-33175000D03*
G04 #@! TO.P,U1,23*
G04 #@! TO.N,GND*
X78620000Y-48415000D03*
G04 #@! TO.P,U1,22*
G04 #@! TO.N,RST*
X81160000Y-48415000D03*
G04 #@! TO.P,U1,21*
G04 #@! TO.N,VCC*
X83700000Y-48415000D03*
G04 #@! TO.P,U1,20*
G04 #@! TO.N,COL0*
X86240000Y-48415000D03*
G04 #@! TO.P,U1,19*
G04 #@! TO.N,COL1*
X88780000Y-48415000D03*
G04 #@! TO.P,U1,18*
G04 #@! TO.N,COL2*
X91320000Y-48415000D03*
G04 #@! TO.P,U1,17*
G04 #@! TO.N,Net-(U1-Pad17)*
X93860000Y-48415000D03*
G04 #@! TO.P,U1,16*
G04 #@! TO.N,Net-(U1-Pad16)*
X96400000Y-48415000D03*
G04 #@! TO.P,U1,15*
G04 #@! TO.N,Net-(U1-Pad15)*
X98940000Y-48415000D03*
G04 #@! TO.P,U1,14*
G04 #@! TO.N,Net-(U1-Pad14)*
X101480000Y-48415000D03*
G04 #@! TO.P,U1,13*
G04 #@! TO.N,AUDIO*
X104020000Y-48415000D03*
G04 #@! TO.P,U1,11*
G04 #@! TO.N,Net-(U1-Pad11)*
X101480000Y-33175000D03*
G04 #@! TO.P,U1,10*
G04 #@! TO.N,Net-(U1-Pad10)*
X98940000Y-33175000D03*
G04 #@! TO.P,U1,9*
G04 #@! TO.N,ROW2*
X96400000Y-33175000D03*
G04 #@! TO.P,U1,8*
G04 #@! TO.N,ROW1*
X93860000Y-33175000D03*
G04 #@! TO.P,U1,7*
G04 #@! TO.N,ROW0*
X91320000Y-33175000D03*
G04 #@! TO.P,U1,6*
G04 #@! TO.N,SCL*
X88780000Y-33175000D03*
G04 #@! TO.P,U1,5*
G04 #@! TO.N,SDA*
X86240000Y-33175000D03*
G04 #@! TO.P,U1,4*
G04 #@! TO.N,GND*
X83700000Y-33175000D03*
G04 #@! TO.P,U1,3*
X81160000Y-33175000D03*
G04 #@! TO.P,U1,2*
G04 #@! TO.N,Net-(U1-Pad2)*
X78620000Y-33175000D03*
D11*
G04 #@! TO.P,U1,1*
G04 #@! TO.N,LED*
X76080000Y-33175000D03*
G04 #@! TD*
D12*
G04 #@! TO.P,SW1,1*
G04 #@! TO.N,COL0*
X76969000Y-81785000D03*
G04 #@! TO.P,SW1,2*
G04 #@! TO.N,Net-(D1-Pad2)*
X83319000Y-79245000D03*
G04 #@! TD*
D13*
G04 #@! TO.P,Ref3,*
G04 #@! TO.N,*
X123000000Y-114000000D03*
G04 #@! TD*
G04 #@! TO.P,Ref2,*
G04 #@! TO.N,*
X74000000Y-114000000D03*
G04 #@! TD*
G04 #@! TO.P,Ref0,*
G04 #@! TO.N,*
X74000000Y-29000000D03*
G04 #@! TD*
D12*
G04 #@! TO.P,SW2,1*
G04 #@! TO.N,COL1*
X96019000Y-72260000D03*
G04 #@! TO.P,SW2,2*
G04 #@! TO.N,Net-(D2-Pad2)*
X102369000Y-69720000D03*
G04 #@! TD*
G04 #@! TO.P,SW3,1*
G04 #@! TO.N,COL2*
X115069000Y-81785000D03*
G04 #@! TO.P,SW3,2*
G04 #@! TO.N,Net-(D3-Pad2)*
X121419000Y-79245000D03*
G04 #@! TD*
G04 #@! TO.P,SW4,1*
G04 #@! TO.N,COL1*
X96019000Y-91310000D03*
G04 #@! TO.P,SW4,2*
G04 #@! TO.N,Net-(D4-Pad2)*
X102369000Y-88770000D03*
G04 #@! TD*
G04 #@! TO.P,SW5,1*
G04 #@! TO.N,COL0*
X76969000Y-100835000D03*
G04 #@! TO.P,SW5,2*
G04 #@! TO.N,Net-(D5-Pad2)*
X83319000Y-98295000D03*
G04 #@! TD*
G04 #@! TO.P,SW6,1*
G04 #@! TO.N,COL1*
X96019000Y-110360000D03*
G04 #@! TO.P,SW6,2*
G04 #@! TO.N,Net-(D6-Pad2)*
X102369000Y-107820000D03*
G04 #@! TD*
G04 #@! TO.P,SW7,1*
G04 #@! TO.N,COL2*
X115069000Y-100835000D03*
G04 #@! TO.P,SW7,2*
G04 #@! TO.N,Net-(D7-Pad2)*
X121419000Y-98295000D03*
G04 #@! TD*
D14*
G04 #@! TO.P,D1,2*
G04 #@! TO.N,Net-(D1-Pad2)*
X78980000Y-86230000D03*
D15*
X83790000Y-86230000D03*
D16*
G04 #@! TO.P,D1,1*
G04 #@! TO.N,ROW0*
X75990000Y-86230000D03*
D17*
G04 #@! TD*
G04 #@! TO.N,Net-(D1-Pad2)*
G04 #@! TO.C,D1*
X81390000Y-86230000D03*
D14*
G04 #@! TO.P,D2,2*
G04 #@! TO.N,Net-(D2-Pad2)*
X98030000Y-76705000D03*
D15*
X102840000Y-76705000D03*
D16*
G04 #@! TO.P,D2,1*
G04 #@! TO.N,ROW0*
X95040000Y-76705000D03*
D17*
G04 #@! TD*
G04 #@! TO.N,Net-(D2-Pad2)*
G04 #@! TO.C,D2*
X100440000Y-76705000D03*
G04 #@! TO.N,Net-(D3-Pad2)*
G04 #@! TO.C,D3*
X119490000Y-86230000D03*
D16*
G04 #@! TD*
G04 #@! TO.P,D3,1*
G04 #@! TO.N,ROW0*
X114090000Y-86230000D03*
D15*
G04 #@! TO.P,D3,2*
G04 #@! TO.N,Net-(D3-Pad2)*
X121890000Y-86230000D03*
D14*
X117080000Y-86230000D03*
G04 #@! TD*
G04 #@! TO.P,D4,2*
G04 #@! TO.N,Net-(D4-Pad2)*
X98030000Y-95755000D03*
D15*
X102840000Y-95755000D03*
D16*
G04 #@! TO.P,D4,1*
G04 #@! TO.N,ROW1*
X95040000Y-95755000D03*
D17*
G04 #@! TD*
G04 #@! TO.N,Net-(D4-Pad2)*
G04 #@! TO.C,D4*
X100440000Y-95755000D03*
G04 #@! TO.N,Net-(D5-Pad2)*
G04 #@! TO.C,D5*
X81390000Y-105280000D03*
D16*
G04 #@! TD*
G04 #@! TO.P,D5,1*
G04 #@! TO.N,ROW2*
X75990000Y-105280000D03*
D15*
G04 #@! TO.P,D5,2*
G04 #@! TO.N,Net-(D5-Pad2)*
X83790000Y-105280000D03*
D14*
X78980000Y-105280000D03*
G04 #@! TD*
G04 #@! TO.P,D6,2*
G04 #@! TO.N,Net-(D6-Pad2)*
X98090000Y-115000000D03*
D15*
X102900000Y-115000000D03*
D16*
G04 #@! TO.P,D6,1*
G04 #@! TO.N,ROW2*
X95100000Y-115000000D03*
D17*
G04 #@! TD*
G04 #@! TO.N,Net-(D6-Pad2)*
G04 #@! TO.C,D6*
X100500000Y-115000000D03*
G04 #@! TO.N,Net-(D7-Pad2)*
G04 #@! TO.C,D7*
X119490000Y-105280000D03*
D16*
G04 #@! TD*
G04 #@! TO.P,D7,1*
G04 #@! TO.N,ROW2*
X114090000Y-105280000D03*
D15*
G04 #@! TO.P,D7,2*
G04 #@! TO.N,Net-(D7-Pad2)*
X121890000Y-105280000D03*
D14*
X117080000Y-105280000D03*
G04 #@! TD*
D18*
G04 #@! TO.P,J1,1*
G04 #@! TO.N,SDA*
X108465000Y-45240000D03*
G04 #@! TO.P,J1,2*
G04 #@! TO.N,SCL*
X108465000Y-42700000D03*
G04 #@! TO.P,J1,3*
G04 #@! TO.N,VCC*
X108465000Y-40160000D03*
G04 #@! TO.P,J1,4*
G04 #@! TO.N,GND*
X108465000Y-37620000D03*
G04 #@! TD*
D19*
G04 #@! TO.P,SW8,2*
G04 #@! TO.N,RST*
X94750000Y-29000000D03*
G04 #@! TO.P,SW8,1*
G04 #@! TO.N,GND*
X101250000Y-29000000D03*
G04 #@! TD*
D14*
G04 #@! TO.P,D8,2*
G04 #@! TO.N,GND*
X113910000Y-28000000D03*
D15*
X109100000Y-28000000D03*
D16*
G04 #@! TO.P,D8,1*
G04 #@! TO.N,Net-(D8-Pad1)*
X116900000Y-28000000D03*
D17*
G04 #@! TD*
G04 #@! TO.N,GND*
G04 #@! TO.C,D8*
X111500000Y-28000000D03*
D20*
G04 #@! TO.P,Speaker,2*
G04 #@! TO.N,Net-(D8-Pad1)*
X124100000Y-41000000D03*
G04 #@! TO.P,Speaker,1*
G04 #@! TO.N,GND*
X111900000Y-41000000D03*
G04 #@! TD*
D21*
G04 #@! TO.P,R1,1*
G04 #@! TO.N,AUDIO*
X111650000Y-31000000D03*
G04 #@! TO.P,R1,2*
G04 #@! TO.N,Net-(D8-Pad1)*
X114350000Y-31000000D03*
D15*
X116900000Y-31000000D03*
G04 #@! TO.P,R1,1*
G04 #@! TO.N,AUDIO*
X109100000Y-31000000D03*
D22*
G04 #@! TD*
G04 #@! TO.N,Net-(D8-Pad1)*
G04 #@! TO.C,R1*
X115500000Y-31000000D03*
G04 #@! TO.N,AUDIO*
G04 #@! TO.C,R1*
X110500000Y-31000000D03*
G04 #@! TD*
D13*
G04 #@! TO.P,Ref1,*
G04 #@! TO.N,*
X123000000Y-29000000D03*
G04 #@! TD*
D23*
G04 #@! TO.N,GND*
X115107300Y-74244000D03*
X105290000Y-90135000D03*
X102115000Y-54575000D03*
X93860000Y-56480000D03*
X84335000Y-42510000D03*
X95765000Y-42510000D03*
X121800000Y-32985000D03*
X102115000Y-42510000D03*
X90685000Y-74260000D03*
X84970000Y-59655000D03*
X88780000Y-39970000D03*
G04 #@! TO.N,VCC*
X83700000Y-70152700D03*
G04 #@! TO.N,LED*
X83412500Y-71159600D03*
G04 #@! TD*
D24*
G04 #@! TO.N,Net-(D1-Pad2)*
X83319000Y-86230000D02*
X83790000Y-86230000D01*
X81390000Y-86230000D02*
X83319000Y-86230000D01*
X83319000Y-86230000D02*
X83319000Y-79245000D01*
X78980000Y-86230000D02*
X81390000Y-86230000D01*
G04 #@! TO.N,ROW0*
X95602700Y-76705000D02*
X97504700Y-74803000D01*
X97504700Y-74803000D02*
X97504700Y-69445100D01*
X97504700Y-69445100D02*
X90215100Y-62155500D01*
X90215100Y-62155500D02*
X90215100Y-38544100D01*
X90215100Y-38544100D02*
X94968700Y-33790500D01*
X94968700Y-33790500D02*
X94968700Y-32685900D01*
X94968700Y-32685900D02*
X94328500Y-32045700D01*
X94328500Y-32045700D02*
X92449300Y-32045700D01*
X92449300Y-32045700D02*
X91320000Y-33175000D01*
X95602700Y-76705000D02*
X96165300Y-76705000D01*
X95040000Y-76705000D02*
X95602700Y-76705000D01*
X114090000Y-86230000D02*
X112964700Y-86230000D01*
X112964700Y-86230000D02*
X104565000Y-77830300D01*
X104565000Y-77830300D02*
X97290600Y-77830300D01*
X97290600Y-77830300D02*
X96165300Y-76705000D01*
G04 #@! TO.N,Net-(D2-Pad2)*
X102369000Y-76705000D02*
X102840000Y-76705000D01*
X100440000Y-76705000D02*
X102369000Y-76705000D01*
X102369000Y-76705000D02*
X102369000Y-69720000D01*
X98030000Y-76705000D02*
X100440000Y-76705000D01*
G04 #@! TO.N,Net-(D3-Pad2)*
X121419000Y-86230000D02*
X119490000Y-86230000D01*
X121890000Y-86230000D02*
X121419000Y-86230000D01*
X121419000Y-86230000D02*
X121419000Y-79245000D01*
X117080000Y-86230000D02*
X119490000Y-86230000D01*
G04 #@! TO.N,Net-(D4-Pad2)*
X102369000Y-95755000D02*
X102840000Y-95755000D01*
X100440000Y-95755000D02*
X102369000Y-95755000D01*
X102369000Y-95755000D02*
X102369000Y-88770000D01*
X98030000Y-95755000D02*
X100440000Y-95755000D01*
G04 #@! TO.N,ROW1*
X95040000Y-95755000D02*
X95040000Y-94629700D01*
X95040000Y-94629700D02*
X87685200Y-87274900D01*
X87685200Y-87274900D02*
X87685200Y-39349800D01*
X87685200Y-39349800D02*
X93860000Y-33175000D01*
G04 #@! TO.N,Net-(D5-Pad2)*
X83319000Y-105280000D02*
X81390000Y-105280000D01*
X83790000Y-105280000D02*
X83319000Y-105280000D01*
X83319000Y-105280000D02*
X83319000Y-98295000D01*
X78980000Y-105280000D02*
X81390000Y-105280000D01*
G04 #@! TO.N,ROW2*
X96400000Y-33175000D02*
X100210000Y-36985000D01*
X100210000Y-36985000D02*
X100210000Y-48869200D01*
X100210000Y-48869200D02*
X114077200Y-62736400D01*
X114077200Y-62736400D02*
X114077200Y-77210600D01*
X114077200Y-77210600D02*
X116582700Y-79716100D01*
X116582700Y-79716100D02*
X116582700Y-83937700D01*
X116582700Y-83937700D02*
X115665800Y-84854600D01*
X115665800Y-84854600D02*
X115665800Y-88734600D01*
X115665800Y-88734600D02*
X115271700Y-89128700D01*
X115271700Y-89128700D02*
X115271700Y-97237000D01*
X115271700Y-97237000D02*
X116564600Y-98529900D01*
X116564600Y-98529900D02*
X116564600Y-101680100D01*
X116564600Y-101680100D02*
X114090000Y-104154700D01*
X114090000Y-105280000D02*
X114090000Y-104154700D01*
G04 #@! TO.N,Net-(D6-Pad2)*
X102369000Y-115000000D02*
X102900000Y-115000000D01*
X100500000Y-115000000D02*
X102369000Y-115000000D01*
X102369000Y-115000000D02*
X102369000Y-107820000D01*
X98090000Y-115000000D02*
X100500000Y-115000000D01*
G04 #@! TO.N,Net-(D7-Pad2)*
X121419000Y-105280000D02*
X119490000Y-105280000D01*
X121890000Y-105280000D02*
X121419000Y-105280000D01*
X121419000Y-105280000D02*
X121419000Y-98295000D01*
X117080000Y-105280000D02*
X119490000Y-105280000D01*
D25*
G04 #@! TO.N,GND*
X111900000Y-41000000D02*
X113400300Y-41000000D01*
X113400300Y-41000000D02*
X115107300Y-42707000D01*
X115107300Y-42707000D02*
X115107300Y-74244000D01*
X111827000Y-41000000D02*
X111900000Y-41000000D01*
X81160000Y-33175000D02*
X78620000Y-35715000D01*
X78620000Y-35715000D02*
X78620000Y-48415000D01*
X111827000Y-41000000D02*
X111149900Y-41000000D01*
X108465000Y-37620000D02*
X111149900Y-40304900D01*
X111149900Y-40304900D02*
X111149900Y-41000000D01*
X113910000Y-28000000D02*
X111500000Y-28000000D01*
X111500000Y-28000000D02*
X109100000Y-28000000D01*
G04 #@! TO.N,VCC*
X83700000Y-48415000D02*
X83700000Y-70152700D01*
D24*
G04 #@! TO.N,LED*
X76080000Y-33175000D02*
X76080000Y-34262300D01*
X83412500Y-71159600D02*
X83412500Y-70943600D01*
X83412500Y-70943600D02*
X77167300Y-64698400D01*
X77167300Y-64698400D02*
X77167300Y-35349600D01*
X77167300Y-35349600D02*
X76080000Y-34262300D01*
G04 #@! TO.N,COL0*
X77115400Y-81931400D02*
X76969000Y-81785000D01*
X76969000Y-100835000D02*
X77115400Y-100688600D01*
X77115400Y-100688600D02*
X77115400Y-81931400D01*
X86240000Y-48415000D02*
X86240000Y-73254100D01*
X86240000Y-73254100D02*
X77562700Y-81931400D01*
X77562700Y-81931400D02*
X77115400Y-81931400D01*
G04 #@! TO.N,COL1*
X96019000Y-91310000D02*
X96019000Y-83552800D01*
X96019000Y-83552800D02*
X93914600Y-81448400D01*
X93914600Y-81448400D02*
X93914600Y-74364400D01*
X93914600Y-74364400D02*
X96019000Y-72260000D01*
X96019000Y-110360000D02*
X96165400Y-110213600D01*
X96165400Y-110213600D02*
X96165400Y-91456400D01*
X96165400Y-91456400D02*
X96019000Y-91310000D01*
X88780000Y-48415000D02*
X88780000Y-65021000D01*
X88780000Y-65021000D02*
X96019000Y-72260000D01*
G04 #@! TO.N,COL2*
X91320000Y-48415000D02*
X111303700Y-68398700D01*
X111303700Y-68398700D02*
X111303700Y-78019700D01*
X111303700Y-78019700D02*
X115069000Y-81785000D01*
X115069000Y-81785000D02*
X115215400Y-81931400D01*
X115215400Y-81931400D02*
X115215400Y-88322800D01*
X115215400Y-88322800D02*
X114765100Y-88773100D01*
X114765100Y-88773100D02*
X114765100Y-100531100D01*
X114765100Y-100531100D02*
X115069000Y-100835000D01*
G04 #@! TO.N,RST*
X94750000Y-29000000D02*
X93957200Y-29000000D01*
X93957200Y-29000000D02*
X90209400Y-32747800D01*
X90209400Y-32747800D02*
X90209400Y-33310800D01*
X90209400Y-33310800D02*
X81160000Y-42360200D01*
X81160000Y-42360200D02*
X81160000Y-48415000D01*
G04 #@! TO.N,Net-(D8-Pad1)*
X116900000Y-31000000D02*
X116900000Y-31474700D01*
X116900000Y-31474700D02*
X124100000Y-38674700D01*
X116900000Y-31000000D02*
X115500000Y-31000000D01*
X115500000Y-31000000D02*
X114350000Y-31000000D01*
X124100000Y-41000000D02*
X124100000Y-38674700D01*
X116900000Y-29125300D02*
X116900000Y-31000000D01*
X116900000Y-28000000D02*
X116900000Y-29125300D01*
G04 #@! TO.N,AUDIO*
X109100000Y-31000000D02*
X104020000Y-36080000D01*
X104020000Y-36080000D02*
X104020000Y-48415000D01*
X110500000Y-31000000D02*
X109100000Y-31000000D01*
X111650000Y-31000000D02*
X110500000Y-31000000D01*
G04 #@! TD*
D26*
G04 #@! TO.N,GND*
G36*
X108345995Y-26746136D02*
X108271861Y-26992255D01*
X108912828Y-27633223D01*
X108865000Y-27748690D01*
X108865000Y-27778750D01*
X108959248Y-27872998D01*
X108865000Y-27872998D01*
X108865000Y-27944605D01*
X108092255Y-27171861D01*
X107846136Y-27245995D01*
X107653035Y-27783223D01*
X107680222Y-28353454D01*
X107846136Y-28754005D01*
X108092255Y-28828139D01*
X108865000Y-28055395D01*
X108865000Y-28127002D01*
X108959248Y-28127002D01*
X108865000Y-28221250D01*
X108865000Y-28251310D01*
X108912828Y-28366777D01*
X108271861Y-29007745D01*
X108345995Y-29253864D01*
X108883223Y-29446965D01*
X109453454Y-29419778D01*
X109854005Y-29253864D01*
X109928139Y-29007745D01*
X109680394Y-28760000D01*
X110039606Y-28760000D01*
X110107745Y-28828139D01*
X110333961Y-28760000D01*
X111214250Y-28760000D01*
X111373000Y-28601250D01*
X111373000Y-28062500D01*
X111627000Y-28062500D01*
X111627000Y-28601250D01*
X111785750Y-28760000D01*
X112605000Y-28760000D01*
X112605000Y-28796310D01*
X112701673Y-29029699D01*
X112880302Y-29208327D01*
X113113691Y-29305000D01*
X113624250Y-29305000D01*
X113783000Y-29146250D01*
X113783000Y-28695096D01*
X113859698Y-28663327D01*
X114037000Y-28486026D01*
X114037000Y-29146250D01*
X114195750Y-29305000D01*
X114706309Y-29305000D01*
X114939698Y-29208327D01*
X115118327Y-29029699D01*
X115215000Y-28796310D01*
X115215000Y-28285750D01*
X115056250Y-28127000D01*
X114040750Y-28127000D01*
X113976250Y-28062500D01*
X111627000Y-28062500D01*
X111373000Y-28062500D01*
X111353000Y-28062500D01*
X111353000Y-27937500D01*
X111373000Y-27937500D01*
X111373000Y-27398750D01*
X111214250Y-27240000D01*
X110333961Y-27240000D01*
X110107745Y-27171861D01*
X110039606Y-27240000D01*
X109680394Y-27240000D01*
X109928139Y-26992255D01*
X109854005Y-26746136D01*
X109753471Y-26710000D01*
X113077478Y-26710000D01*
X112880302Y-26791673D01*
X112701673Y-26970301D01*
X112605000Y-27203690D01*
X112605000Y-27240000D01*
X111785750Y-27240000D01*
X111627000Y-27398750D01*
X111627000Y-27937500D01*
X113976250Y-27937500D01*
X114040750Y-27873000D01*
X115056250Y-27873000D01*
X115215000Y-27714250D01*
X115215000Y-27203690D01*
X115118327Y-26970301D01*
X114939698Y-26791673D01*
X114742522Y-26710000D01*
X115690368Y-26710000D01*
X115642191Y-26742191D01*
X115501843Y-26952235D01*
X115452560Y-27200000D01*
X115452560Y-28800000D01*
X115501843Y-29047765D01*
X115642191Y-29257809D01*
X115852235Y-29398157D01*
X116100000Y-29447440D01*
X116140000Y-29447440D01*
X116140000Y-29761570D01*
X116087138Y-29783466D01*
X115768044Y-30102560D01*
X115664965Y-30102560D01*
X115557809Y-29942191D01*
X115347765Y-29801843D01*
X115100000Y-29752560D01*
X113600000Y-29752560D01*
X113352235Y-29801843D01*
X113142191Y-29942191D01*
X113001843Y-30152235D01*
X113000000Y-30161500D01*
X112998157Y-30152235D01*
X112857809Y-29942191D01*
X112647765Y-29801843D01*
X112400000Y-29752560D01*
X110900000Y-29752560D01*
X110652235Y-29801843D01*
X110442191Y-29942191D01*
X110335035Y-30102560D01*
X110231956Y-30102560D01*
X109912862Y-29783466D01*
X109385439Y-29565000D01*
X108814561Y-29565000D01*
X108287138Y-29783466D01*
X107883466Y-30187138D01*
X107665000Y-30714561D01*
X107665000Y-31285439D01*
X107686896Y-31338302D01*
X105307174Y-33718024D01*
X105417000Y-33452881D01*
X105417000Y-32897119D01*
X105204320Y-32383663D01*
X104811337Y-31990680D01*
X104297881Y-31778000D01*
X103742119Y-31778000D01*
X103228663Y-31990680D01*
X102835680Y-32383663D01*
X102750000Y-32590513D01*
X102664320Y-32383663D01*
X102271337Y-31990680D01*
X101757881Y-31778000D01*
X101202119Y-31778000D01*
X100688663Y-31990680D01*
X100295680Y-32383663D01*
X100210000Y-32590513D01*
X100124320Y-32383663D01*
X99731337Y-31990680D01*
X99217881Y-31778000D01*
X98662119Y-31778000D01*
X98148663Y-31990680D01*
X97755680Y-32383663D01*
X97670000Y-32590513D01*
X97584320Y-32383663D01*
X97191337Y-31990680D01*
X96677881Y-31778000D01*
X96122119Y-31778000D01*
X95608663Y-31990680D01*
X95483505Y-32115838D01*
X95453173Y-32095571D01*
X94918831Y-31561230D01*
X94876429Y-31497771D01*
X94625037Y-31329796D01*
X94403352Y-31285700D01*
X94403347Y-31285700D01*
X94328500Y-31270812D01*
X94253653Y-31285700D01*
X92746302Y-31285700D01*
X93734881Y-30297120D01*
X93823847Y-30386086D01*
X94424778Y-30635000D01*
X95075222Y-30635000D01*
X95676153Y-30386086D01*
X95909707Y-30152532D01*
X100277073Y-30152532D01*
X100375736Y-30419387D01*
X100985461Y-30645908D01*
X101635460Y-30621856D01*
X102124264Y-30419387D01*
X102222927Y-30152532D01*
X101250000Y-29179605D01*
X100277073Y-30152532D01*
X95909707Y-30152532D01*
X96136086Y-29926153D01*
X96385000Y-29325222D01*
X96385000Y-28735461D01*
X99604092Y-28735461D01*
X99628144Y-29385460D01*
X99830613Y-29874264D01*
X100097468Y-29972927D01*
X101070395Y-29000000D01*
X101429605Y-29000000D01*
X102402532Y-29972927D01*
X102669387Y-29874264D01*
X102895908Y-29264539D01*
X102871856Y-28614540D01*
X102669387Y-28125736D01*
X102402532Y-28027073D01*
X101429605Y-29000000D01*
X101070395Y-29000000D01*
X100097468Y-28027073D01*
X99830613Y-28125736D01*
X99604092Y-28735461D01*
X96385000Y-28735461D01*
X96385000Y-28674778D01*
X96136086Y-28073847D01*
X95909707Y-27847468D01*
X100277073Y-27847468D01*
X101250000Y-28820395D01*
X102222927Y-27847468D01*
X102124264Y-27580613D01*
X101514539Y-27354092D01*
X100864540Y-27378144D01*
X100375736Y-27580613D01*
X100277073Y-27847468D01*
X95909707Y-27847468D01*
X95676153Y-27613914D01*
X95075222Y-27365000D01*
X94424778Y-27365000D01*
X93823847Y-27613914D01*
X93363914Y-28073847D01*
X93115000Y-28674778D01*
X93115000Y-28767398D01*
X89731528Y-32150871D01*
X89571337Y-31990680D01*
X89057881Y-31778000D01*
X88502119Y-31778000D01*
X87988663Y-31990680D01*
X87595680Y-32383663D01*
X87510000Y-32590513D01*
X87424320Y-32383663D01*
X87031337Y-31990680D01*
X86517881Y-31778000D01*
X85962119Y-31778000D01*
X85448663Y-31990680D01*
X85055680Y-32383663D01*
X84976572Y-32574647D01*
X84922397Y-32443857D01*
X84680213Y-32374392D01*
X83879605Y-33175000D01*
X84680213Y-33975608D01*
X84922397Y-33906143D01*
X84972535Y-33765607D01*
X85055680Y-33966337D01*
X85448663Y-34359320D01*
X85962119Y-34572000D01*
X86517881Y-34572000D01*
X87031337Y-34359320D01*
X87424320Y-33966337D01*
X87510000Y-33759487D01*
X87595680Y-33966337D01*
X87988663Y-34359320D01*
X88057546Y-34387852D01*
X80675530Y-41769869D01*
X80612071Y-41812271D01*
X80444096Y-42063664D01*
X80400000Y-42285349D01*
X80400000Y-42285353D01*
X80385112Y-42360200D01*
X80400000Y-42435047D01*
X80400001Y-47217699D01*
X80368663Y-47230680D01*
X79975680Y-47623663D01*
X79896572Y-47814647D01*
X79842397Y-47683857D01*
X79600213Y-47614392D01*
X78799605Y-48415000D01*
X79600213Y-49215608D01*
X79842397Y-49146143D01*
X79892535Y-49005607D01*
X79975680Y-49206337D01*
X80368663Y-49599320D01*
X80882119Y-49812000D01*
X81437881Y-49812000D01*
X81951337Y-49599320D01*
X82344320Y-49206337D01*
X82430000Y-48999487D01*
X82515680Y-49206337D01*
X82865000Y-49555657D01*
X82865001Y-69321299D01*
X77927300Y-64383599D01*
X77927300Y-49651112D01*
X78412302Y-49824144D01*
X78967368Y-49796362D01*
X79351143Y-49637397D01*
X79420608Y-49395213D01*
X78620000Y-48594605D01*
X78605858Y-48608748D01*
X78426253Y-48429143D01*
X78440395Y-48415000D01*
X78426253Y-48400858D01*
X78605858Y-48221253D01*
X78620000Y-48235395D01*
X79420608Y-47434787D01*
X79351143Y-47192603D01*
X78827698Y-47005856D01*
X78272632Y-47033638D01*
X77927300Y-47176679D01*
X77927300Y-35424446D01*
X77942188Y-35349599D01*
X77927300Y-35274752D01*
X77927300Y-35274748D01*
X77883204Y-35053063D01*
X77833185Y-34978204D01*
X77757629Y-34865126D01*
X77757627Y-34865124D01*
X77715229Y-34801671D01*
X77651775Y-34759273D01*
X77292317Y-34399815D01*
X77299809Y-34394809D01*
X77440157Y-34184765D01*
X77475653Y-34006310D01*
X77828663Y-34359320D01*
X78342119Y-34572000D01*
X78897881Y-34572000D01*
X79411337Y-34359320D01*
X79615444Y-34155213D01*
X80359392Y-34155213D01*
X80428857Y-34397397D01*
X80952302Y-34584144D01*
X81507368Y-34556362D01*
X81891143Y-34397397D01*
X81960608Y-34155213D01*
X82899392Y-34155213D01*
X82968857Y-34397397D01*
X83492302Y-34584144D01*
X84047368Y-34556362D01*
X84431143Y-34397397D01*
X84500608Y-34155213D01*
X83700000Y-33354605D01*
X82899392Y-34155213D01*
X81960608Y-34155213D01*
X81160000Y-33354605D01*
X80359392Y-34155213D01*
X79615444Y-34155213D01*
X79804320Y-33966337D01*
X79883428Y-33775353D01*
X79937603Y-33906143D01*
X80179787Y-33975608D01*
X80980395Y-33175000D01*
X81339605Y-33175000D01*
X82140213Y-33975608D01*
X82382397Y-33906143D01*
X82426453Y-33782656D01*
X82477603Y-33906143D01*
X82719787Y-33975608D01*
X83520395Y-33175000D01*
X82719787Y-32374392D01*
X82477603Y-32443857D01*
X82433547Y-32567344D01*
X82382397Y-32443857D01*
X82140213Y-32374392D01*
X81339605Y-33175000D01*
X80980395Y-33175000D01*
X80179787Y-32374392D01*
X79937603Y-32443857D01*
X79887465Y-32584393D01*
X79804320Y-32383663D01*
X79615444Y-32194787D01*
X80359392Y-32194787D01*
X81160000Y-32995395D01*
X81960608Y-32194787D01*
X82899392Y-32194787D01*
X83700000Y-32995395D01*
X84500608Y-32194787D01*
X84431143Y-31952603D01*
X83907698Y-31765856D01*
X83352632Y-31793638D01*
X82968857Y-31952603D01*
X82899392Y-32194787D01*
X81960608Y-32194787D01*
X81891143Y-31952603D01*
X81367698Y-31765856D01*
X80812632Y-31793638D01*
X80428857Y-31952603D01*
X80359392Y-32194787D01*
X79615444Y-32194787D01*
X79411337Y-31990680D01*
X78897881Y-31778000D01*
X78342119Y-31778000D01*
X77828663Y-31990680D01*
X77475653Y-32343690D01*
X77440157Y-32165235D01*
X77299809Y-31955191D01*
X77089765Y-31814843D01*
X76842000Y-31765560D01*
X75318000Y-31765560D01*
X75070235Y-31814843D01*
X74860191Y-31955191D01*
X74719843Y-32165235D01*
X74670560Y-32413000D01*
X74670560Y-33937000D01*
X74719843Y-34184765D01*
X74860191Y-34394809D01*
X75070235Y-34535157D01*
X75318000Y-34584440D01*
X75381204Y-34584440D01*
X75532072Y-34810229D01*
X75595527Y-34852629D01*
X76407301Y-35664404D01*
X76407301Y-47038470D01*
X76357881Y-47018000D01*
X75802119Y-47018000D01*
X75288663Y-47230680D01*
X74895680Y-47623663D01*
X74683000Y-48137119D01*
X74683000Y-48692881D01*
X74895680Y-49206337D01*
X75288663Y-49599320D01*
X75802119Y-49812000D01*
X76357881Y-49812000D01*
X76407301Y-49791530D01*
X76407300Y-64623553D01*
X76392412Y-64698400D01*
X76407300Y-64773247D01*
X76407300Y-64773251D01*
X76451396Y-64994936D01*
X76619371Y-65246329D01*
X76682830Y-65288731D01*
X80694098Y-69300000D01*
X77828925Y-69300000D01*
X77759000Y-69286091D01*
X77689074Y-69300000D01*
X77481972Y-69341195D01*
X77247119Y-69498119D01*
X77090195Y-69732972D01*
X77035091Y-70010000D01*
X77049000Y-70079926D01*
X77049001Y-74440069D01*
X77035091Y-74510000D01*
X77090195Y-74787028D01*
X77247119Y-75021881D01*
X77383300Y-75112874D01*
X77280326Y-75215848D01*
X76880100Y-76182079D01*
X76880100Y-77227921D01*
X77280326Y-78194152D01*
X78019848Y-78933674D01*
X78986079Y-79333900D01*
X79085399Y-79333900D01*
X78058885Y-80360413D01*
X77976156Y-80277684D01*
X77322666Y-80007000D01*
X76615334Y-80007000D01*
X75961844Y-80277684D01*
X75461684Y-80777844D01*
X75191000Y-81431334D01*
X75191000Y-82138666D01*
X75461684Y-82792156D01*
X75961844Y-83292316D01*
X76355401Y-83455332D01*
X76355401Y-84782560D01*
X75190000Y-84782560D01*
X74942235Y-84831843D01*
X74732191Y-84972191D01*
X74591843Y-85182235D01*
X74542560Y-85430000D01*
X74542560Y-87030000D01*
X74591843Y-87277765D01*
X74732191Y-87487809D01*
X74942235Y-87628157D01*
X75190000Y-87677440D01*
X76355401Y-87677440D01*
X76355400Y-99164668D01*
X75961844Y-99327684D01*
X75461684Y-99827844D01*
X75191000Y-100481334D01*
X75191000Y-101188666D01*
X75461684Y-101842156D01*
X75961844Y-102342316D01*
X76615334Y-102613000D01*
X77322666Y-102613000D01*
X77976156Y-102342316D01*
X78476316Y-101842156D01*
X78747000Y-101188666D01*
X78747000Y-100481334D01*
X78476316Y-99827844D01*
X77976156Y-99327684D01*
X77875400Y-99285950D01*
X77875400Y-97839226D01*
X78019848Y-97983674D01*
X78986079Y-98383900D01*
X80031921Y-98383900D01*
X80998152Y-97983674D01*
X81737674Y-97244152D01*
X82137900Y-96277921D01*
X82137900Y-95232079D01*
X81737674Y-94265848D01*
X81634700Y-94162874D01*
X81770881Y-94071881D01*
X81927805Y-93837028D01*
X81982909Y-93560000D01*
X81969000Y-93490074D01*
X81969000Y-89129926D01*
X81982909Y-89060000D01*
X81927805Y-88782972D01*
X81770881Y-88548119D01*
X81536028Y-88391195D01*
X81328926Y-88350000D01*
X81328925Y-88350000D01*
X81259000Y-88336091D01*
X81189074Y-88350000D01*
X77875400Y-88350000D01*
X77875400Y-87373317D01*
X78062235Y-87498157D01*
X78310000Y-87547440D01*
X79650000Y-87547440D01*
X79897765Y-87498157D01*
X80107809Y-87357809D01*
X80248157Y-87147765D01*
X80277064Y-87002440D01*
X82556723Y-87002440D01*
X82573466Y-87042862D01*
X82977138Y-87446534D01*
X83504561Y-87665000D01*
X84075439Y-87665000D01*
X84602862Y-87446534D01*
X85006534Y-87042862D01*
X85225000Y-86515439D01*
X85225000Y-85944561D01*
X85006534Y-85417138D01*
X84602862Y-85013466D01*
X84079000Y-84796475D01*
X84079000Y-80854691D01*
X84326156Y-80752316D01*
X84826316Y-80252156D01*
X85097000Y-79598666D01*
X85097000Y-78891334D01*
X84827209Y-78240000D01*
X84894330Y-78240000D01*
X85458507Y-78006310D01*
X85890310Y-77574507D01*
X86124000Y-77010330D01*
X86124000Y-76399670D01*
X85890310Y-75835493D01*
X85458507Y-75403690D01*
X85251117Y-75317786D01*
X86724476Y-73844427D01*
X86787929Y-73802029D01*
X86830327Y-73738576D01*
X86830329Y-73738574D01*
X86925200Y-73596588D01*
X86925200Y-87200053D01*
X86910312Y-87274900D01*
X86925200Y-87349747D01*
X86925200Y-87349751D01*
X86969296Y-87571436D01*
X87137271Y-87822829D01*
X87200730Y-87865231D01*
X93812462Y-94476964D01*
X93782191Y-94497191D01*
X93641843Y-94707235D01*
X93592560Y-94955000D01*
X93592560Y-96555000D01*
X93641843Y-96802765D01*
X93782191Y-97012809D01*
X93992235Y-97153157D01*
X94240000Y-97202440D01*
X95405401Y-97202440D01*
X95405400Y-108689668D01*
X95011844Y-108852684D01*
X94511684Y-109352844D01*
X94241000Y-110006334D01*
X94241000Y-110713666D01*
X94511684Y-111367156D01*
X95011844Y-111867316D01*
X95665334Y-112138000D01*
X96372666Y-112138000D01*
X97026156Y-111867316D01*
X97526316Y-111367156D01*
X97797000Y-110713666D01*
X97797000Y-110006334D01*
X97526316Y-109352844D01*
X97026156Y-108852684D01*
X96925400Y-108810950D01*
X96925400Y-107364226D01*
X97069848Y-107508674D01*
X98036079Y-107908900D01*
X99081921Y-107908900D01*
X100048152Y-107508674D01*
X100787674Y-106769152D01*
X101187900Y-105802921D01*
X101187900Y-104757079D01*
X100787674Y-103790848D01*
X100708733Y-103711907D01*
X100880881Y-103596881D01*
X101037805Y-103362028D01*
X101092909Y-103085000D01*
X101079000Y-103015074D01*
X101079000Y-98654926D01*
X101092909Y-98585000D01*
X101037805Y-98307972D01*
X100880881Y-98073119D01*
X100646028Y-97916195D01*
X100438926Y-97875000D01*
X100438925Y-97875000D01*
X100369000Y-97861091D01*
X100299074Y-97875000D01*
X96938925Y-97875000D01*
X96925400Y-97872310D01*
X96925400Y-96898317D01*
X97112235Y-97023157D01*
X97360000Y-97072440D01*
X98700000Y-97072440D01*
X98947765Y-97023157D01*
X99157809Y-96882809D01*
X99298157Y-96672765D01*
X99327064Y-96527440D01*
X101606723Y-96527440D01*
X101623466Y-96567862D01*
X102027138Y-96971534D01*
X102554561Y-97190000D01*
X103125439Y-97190000D01*
X103652862Y-96971534D01*
X104056534Y-96567862D01*
X104275000Y-96040439D01*
X104275000Y-95469561D01*
X104056534Y-94942138D01*
X103652862Y-94538466D01*
X103129000Y-94321475D01*
X103129000Y-90379691D01*
X103376156Y-90277316D01*
X103876316Y-89777156D01*
X104147000Y-89123666D01*
X104147000Y-88416334D01*
X103877209Y-87765000D01*
X103944330Y-87765000D01*
X104508507Y-87531310D01*
X104940310Y-87099507D01*
X105174000Y-86535330D01*
X105174000Y-85924670D01*
X104940310Y-85360493D01*
X104508507Y-84928690D01*
X103944330Y-84695000D01*
X103333670Y-84695000D01*
X102769493Y-84928690D01*
X102337690Y-85360493D01*
X102104000Y-85924670D01*
X102104000Y-86535330D01*
X102293159Y-86992000D01*
X102015334Y-86992000D01*
X101361844Y-87262684D01*
X100861684Y-87762844D01*
X100591000Y-88416334D01*
X100591000Y-89123666D01*
X100861684Y-89777156D01*
X101361844Y-90277316D01*
X101609001Y-90379692D01*
X101609000Y-94977062D01*
X101606723Y-94982560D01*
X99327064Y-94982560D01*
X99298157Y-94837235D01*
X99157809Y-94627191D01*
X98947765Y-94486843D01*
X98700000Y-94437560D01*
X97360000Y-94437560D01*
X97112235Y-94486843D01*
X96925400Y-94611683D01*
X96925400Y-92859050D01*
X97026156Y-92817316D01*
X97526316Y-92317156D01*
X97797000Y-91663666D01*
X97797000Y-90956334D01*
X97526316Y-90302844D01*
X97026156Y-89802684D01*
X96779000Y-89700309D01*
X96779000Y-88167826D01*
X97069848Y-88458674D01*
X98036079Y-88858900D01*
X99081921Y-88858900D01*
X100048152Y-88458674D01*
X100787674Y-87719152D01*
X101187900Y-86752921D01*
X101187900Y-85707079D01*
X100787674Y-84740848D01*
X100708733Y-84661907D01*
X100880881Y-84546881D01*
X101037805Y-84312028D01*
X101092909Y-84035000D01*
X101079000Y-83965074D01*
X101079000Y-79604926D01*
X101092909Y-79535000D01*
X101069948Y-79419564D01*
X101037805Y-79257972D01*
X101020202Y-79231627D01*
X100880881Y-79023119D01*
X100646028Y-78866195D01*
X100438926Y-78825000D01*
X100438925Y-78825000D01*
X100369000Y-78811091D01*
X100299074Y-78825000D01*
X96938925Y-78825000D01*
X96869000Y-78811091D01*
X96799074Y-78825000D01*
X96591972Y-78866195D01*
X96357119Y-79023119D01*
X96200195Y-79257972D01*
X96145091Y-79535000D01*
X96159000Y-79604926D01*
X96159001Y-82617999D01*
X94674600Y-81133599D01*
X94674600Y-78152440D01*
X95840000Y-78152440D01*
X96087765Y-78103157D01*
X96297809Y-77962809D01*
X96318036Y-77932538D01*
X96700270Y-78314772D01*
X96742671Y-78378229D01*
X96994063Y-78546204D01*
X97215748Y-78590300D01*
X97215752Y-78590300D01*
X97290600Y-78605188D01*
X97365448Y-78590300D01*
X104250199Y-78590300D01*
X112374371Y-86714473D01*
X112416771Y-86777929D01*
X112480227Y-86820329D01*
X112642560Y-86928797D01*
X112642560Y-87030000D01*
X112691843Y-87277765D01*
X112832191Y-87487809D01*
X113042235Y-87628157D01*
X113290000Y-87677440D01*
X114455401Y-87677440D01*
X114455401Y-88007998D01*
X114280629Y-88182769D01*
X114217171Y-88225171D01*
X114049196Y-88476564D01*
X114005100Y-88698249D01*
X114005100Y-88698253D01*
X113990212Y-88773100D01*
X114005100Y-88847947D01*
X114005101Y-95307474D01*
X113830310Y-94885493D01*
X113398507Y-94453690D01*
X112834330Y-94220000D01*
X112223670Y-94220000D01*
X111659493Y-94453690D01*
X111227690Y-94885493D01*
X110994000Y-95449670D01*
X110994000Y-96060330D01*
X111227690Y-96624507D01*
X111659493Y-97056310D01*
X112223670Y-97290000D01*
X112834330Y-97290000D01*
X113398507Y-97056310D01*
X113830310Y-96624507D01*
X114005101Y-96202526D01*
X114005101Y-99384427D01*
X113561684Y-99827844D01*
X113291000Y-100481334D01*
X113291000Y-101188666D01*
X113561684Y-101842156D01*
X114061844Y-102342316D01*
X114603303Y-102566595D01*
X113605528Y-103564371D01*
X113542072Y-103606771D01*
X113499672Y-103670227D01*
X113499671Y-103670228D01*
X113391204Y-103832560D01*
X113290000Y-103832560D01*
X113042235Y-103881843D01*
X112832191Y-104022191D01*
X112691843Y-104232235D01*
X112642560Y-104480000D01*
X112642560Y-106080000D01*
X112691843Y-106327765D01*
X112832191Y-106537809D01*
X113042235Y-106678157D01*
X113290000Y-106727440D01*
X114890000Y-106727440D01*
X115137765Y-106678157D01*
X115347809Y-106537809D01*
X115488157Y-106327765D01*
X115537440Y-106080000D01*
X115537440Y-104610000D01*
X115762560Y-104610000D01*
X115762560Y-105950000D01*
X115811843Y-106197765D01*
X115952191Y-106407809D01*
X116162235Y-106548157D01*
X116410000Y-106597440D01*
X117750000Y-106597440D01*
X117997765Y-106548157D01*
X118207809Y-106407809D01*
X118348157Y-106197765D01*
X118377064Y-106052440D01*
X120656723Y-106052440D01*
X120673466Y-106092862D01*
X121077138Y-106496534D01*
X121604561Y-106715000D01*
X122175439Y-106715000D01*
X122702862Y-106496534D01*
X123106534Y-106092862D01*
X123325000Y-105565439D01*
X123325000Y-104994561D01*
X123106534Y-104467138D01*
X122702862Y-104063466D01*
X122179000Y-103846475D01*
X122179000Y-99904691D01*
X122426156Y-99802316D01*
X122926316Y-99302156D01*
X123197000Y-98648666D01*
X123197000Y-97941334D01*
X122927209Y-97290000D01*
X122994330Y-97290000D01*
X123558507Y-97056310D01*
X123990310Y-96624507D01*
X124224000Y-96060330D01*
X124224000Y-95449670D01*
X123990310Y-94885493D01*
X123558507Y-94453690D01*
X122994330Y-94220000D01*
X122383670Y-94220000D01*
X121819493Y-94453690D01*
X121387690Y-94885493D01*
X121154000Y-95449670D01*
X121154000Y-96060330D01*
X121343159Y-96517000D01*
X121065334Y-96517000D01*
X120411844Y-96787684D01*
X119911684Y-97287844D01*
X119641000Y-97941334D01*
X119641000Y-98648666D01*
X119911684Y-99302156D01*
X120411844Y-99802316D01*
X120659001Y-99904692D01*
X120659000Y-104502062D01*
X120656723Y-104507560D01*
X118377064Y-104507560D01*
X118348157Y-104362235D01*
X118207809Y-104152191D01*
X117997765Y-104011843D01*
X117750000Y-103962560D01*
X116410000Y-103962560D01*
X116162235Y-104011843D01*
X115952191Y-104152191D01*
X115811843Y-104362235D01*
X115762560Y-104610000D01*
X115537440Y-104610000D01*
X115537440Y-104480000D01*
X115488157Y-104232235D01*
X115347809Y-104022191D01*
X115317537Y-104001964D01*
X117049073Y-102270429D01*
X117112529Y-102228029D01*
X117280504Y-101976637D01*
X117324600Y-101754952D01*
X117324600Y-101754947D01*
X117339488Y-101680100D01*
X117324600Y-101605253D01*
X117324600Y-98604748D01*
X117339488Y-98529900D01*
X117324600Y-98455052D01*
X117324600Y-98455048D01*
X117310448Y-98383900D01*
X118131921Y-98383900D01*
X119098152Y-97983674D01*
X119837674Y-97244152D01*
X120237900Y-96277921D01*
X120237900Y-95232079D01*
X119837674Y-94265848D01*
X119734700Y-94162874D01*
X119870881Y-94071881D01*
X120027805Y-93837028D01*
X120082909Y-93560000D01*
X120069000Y-93490074D01*
X120069000Y-89129926D01*
X120082909Y-89060000D01*
X120027805Y-88782972D01*
X119870881Y-88548119D01*
X119636028Y-88391195D01*
X119428926Y-88350000D01*
X119428925Y-88350000D01*
X119359000Y-88336091D01*
X119289074Y-88350000D01*
X116425800Y-88350000D01*
X116425800Y-87547440D01*
X117750000Y-87547440D01*
X117997765Y-87498157D01*
X118207809Y-87357809D01*
X118348157Y-87147765D01*
X118377064Y-87002440D01*
X120656723Y-87002440D01*
X120673466Y-87042862D01*
X121077138Y-87446534D01*
X121604561Y-87665000D01*
X122175439Y-87665000D01*
X122702862Y-87446534D01*
X123106534Y-87042862D01*
X123325000Y-86515439D01*
X123325000Y-85944561D01*
X123106534Y-85417138D01*
X122702862Y-85013466D01*
X122179000Y-84796475D01*
X122179000Y-80854691D01*
X122426156Y-80752316D01*
X122926316Y-80252156D01*
X123197000Y-79598666D01*
X123197000Y-78891334D01*
X122927209Y-78240000D01*
X122994330Y-78240000D01*
X123558507Y-78006310D01*
X123990310Y-77574507D01*
X124224000Y-77010330D01*
X124224000Y-76399670D01*
X123990310Y-75835493D01*
X123558507Y-75403690D01*
X122994330Y-75170000D01*
X122383670Y-75170000D01*
X121819493Y-75403690D01*
X121387690Y-75835493D01*
X121154000Y-76399670D01*
X121154000Y-77010330D01*
X121343159Y-77467000D01*
X121065334Y-77467000D01*
X120411844Y-77737684D01*
X119911684Y-78237844D01*
X119641000Y-78891334D01*
X119641000Y-79598666D01*
X119911684Y-80252156D01*
X120411844Y-80752316D01*
X120659001Y-80854692D01*
X120659000Y-85452062D01*
X120656723Y-85457560D01*
X118377064Y-85457560D01*
X118348157Y-85312235D01*
X118207809Y-85102191D01*
X117997765Y-84961843D01*
X117750000Y-84912560D01*
X116682642Y-84912560D01*
X117067175Y-84528027D01*
X117130629Y-84485629D01*
X117173027Y-84422176D01*
X117173029Y-84422174D01*
X117256802Y-84296798D01*
X117298604Y-84234237D01*
X117342700Y-84012552D01*
X117342700Y-84012548D01*
X117357588Y-83937701D01*
X117342700Y-83862854D01*
X117342700Y-79790946D01*
X117357588Y-79716099D01*
X117342700Y-79641252D01*
X117342700Y-79641248D01*
X117298604Y-79419563D01*
X117241366Y-79333900D01*
X118131921Y-79333900D01*
X119098152Y-78933674D01*
X119837674Y-78194152D01*
X120237900Y-77227921D01*
X120237900Y-76182079D01*
X119837674Y-75215848D01*
X119734700Y-75112874D01*
X119870881Y-75021881D01*
X120027805Y-74787028D01*
X120082909Y-74510000D01*
X120069000Y-74440074D01*
X120069000Y-70079926D01*
X120082909Y-70010000D01*
X120027805Y-69732972D01*
X119870881Y-69498119D01*
X119636028Y-69341195D01*
X119428926Y-69300000D01*
X119428925Y-69300000D01*
X119359000Y-69286091D01*
X119289074Y-69300000D01*
X115928925Y-69300000D01*
X115859000Y-69286091D01*
X115789074Y-69300000D01*
X115581972Y-69341195D01*
X115347119Y-69498119D01*
X115190195Y-69732972D01*
X115135091Y-70010000D01*
X115149000Y-70079926D01*
X115149001Y-74440069D01*
X115135091Y-74510000D01*
X115190195Y-74787028D01*
X115347119Y-75021881D01*
X115483300Y-75112874D01*
X115380326Y-75215848D01*
X114980100Y-76182079D01*
X114980100Y-77038699D01*
X114837200Y-76895799D01*
X114837200Y-62811246D01*
X114852088Y-62736399D01*
X114837200Y-62661552D01*
X114837200Y-62661548D01*
X114793104Y-62439863D01*
X114751302Y-62377302D01*
X114667529Y-62251926D01*
X114667527Y-62251924D01*
X114625129Y-62188471D01*
X114561676Y-62146073D01*
X102090024Y-49674422D01*
X102271337Y-49599320D01*
X102664320Y-49206337D01*
X102750000Y-48999487D01*
X102835680Y-49206337D01*
X103228663Y-49599320D01*
X103742119Y-49812000D01*
X104297881Y-49812000D01*
X104811337Y-49599320D01*
X105204320Y-49206337D01*
X105417000Y-48692881D01*
X105417000Y-48137119D01*
X105204320Y-47623663D01*
X104811337Y-47230680D01*
X104780000Y-47217700D01*
X104780000Y-39894750D01*
X107131500Y-39894750D01*
X107131500Y-40425250D01*
X107334513Y-40915367D01*
X107709633Y-41290487D01*
X108046447Y-41430000D01*
X107709633Y-41569513D01*
X107334513Y-41944633D01*
X107131500Y-42434750D01*
X107131500Y-42965250D01*
X107334513Y-43455367D01*
X107709633Y-43830487D01*
X108046447Y-43970000D01*
X107709633Y-44109513D01*
X107334513Y-44484633D01*
X107131500Y-44974750D01*
X107131500Y-45505250D01*
X107334513Y-45995367D01*
X107709633Y-46370487D01*
X108199750Y-46573500D01*
X108730250Y-46573500D01*
X109220367Y-46370487D01*
X109595487Y-45995367D01*
X109798500Y-45505250D01*
X109798500Y-44974750D01*
X109595487Y-44484633D01*
X109220367Y-44109513D01*
X108883553Y-43970000D01*
X109220367Y-43830487D01*
X109595487Y-43455367D01*
X109798500Y-42965250D01*
X109798500Y-42434750D01*
X109595487Y-41944633D01*
X109220367Y-41569513D01*
X108883553Y-41430000D01*
X109220367Y-41290487D01*
X109225104Y-41285750D01*
X110165000Y-41285750D01*
X110165000Y-43126310D01*
X110261673Y-43359699D01*
X110440302Y-43538327D01*
X110673691Y-43635000D01*
X111614250Y-43635000D01*
X111773000Y-43476250D01*
X111773000Y-41127000D01*
X112027000Y-41127000D01*
X112027000Y-43476250D01*
X112185750Y-43635000D01*
X113126309Y-43635000D01*
X113359698Y-43538327D01*
X113538327Y-43359699D01*
X113635000Y-43126310D01*
X113635000Y-41285750D01*
X113476250Y-41127000D01*
X112027000Y-41127000D01*
X111773000Y-41127000D01*
X110323750Y-41127000D01*
X110165000Y-41285750D01*
X109225104Y-41285750D01*
X109595487Y-40915367D01*
X109798500Y-40425250D01*
X109798500Y-39894750D01*
X109595487Y-39404633D01*
X109220367Y-39029513D01*
X108899789Y-38896725D01*
X108955400Y-38873690D01*
X110165000Y-38873690D01*
X110165000Y-40714250D01*
X110323750Y-40873000D01*
X111773000Y-40873000D01*
X111773000Y-38523750D01*
X112027000Y-38523750D01*
X112027000Y-40873000D01*
X113476250Y-40873000D01*
X113635000Y-40714250D01*
X113635000Y-38873690D01*
X113538327Y-38640301D01*
X113359698Y-38461673D01*
X113126309Y-38365000D01*
X112185750Y-38365000D01*
X112027000Y-38523750D01*
X111773000Y-38523750D01*
X111614250Y-38365000D01*
X110673691Y-38365000D01*
X110440302Y-38461673D01*
X110261673Y-38640301D01*
X110165000Y-38873690D01*
X108955400Y-38873690D01*
X109157929Y-38789800D01*
X109219583Y-38554188D01*
X108465000Y-37799605D01*
X107710417Y-38554188D01*
X107772071Y-38789800D01*
X108051184Y-38888038D01*
X107709633Y-39029513D01*
X107334513Y-39404633D01*
X107131500Y-39894750D01*
X104780000Y-39894750D01*
X104780000Y-37427480D01*
X107119073Y-37427480D01*
X107147852Y-37957199D01*
X107295200Y-38312929D01*
X107530812Y-38374583D01*
X108285395Y-37620000D01*
X108644605Y-37620000D01*
X109399188Y-38374583D01*
X109634800Y-38312929D01*
X109810927Y-37812520D01*
X109782148Y-37282801D01*
X109634800Y-36927071D01*
X109399188Y-36865417D01*
X108644605Y-37620000D01*
X108285395Y-37620000D01*
X107530812Y-36865417D01*
X107295200Y-36927071D01*
X107119073Y-37427480D01*
X104780000Y-37427480D01*
X104780000Y-36685812D01*
X107710417Y-36685812D01*
X108465000Y-37440395D01*
X109219583Y-36685812D01*
X109157929Y-36450200D01*
X108657520Y-36274073D01*
X108127801Y-36302852D01*
X107772071Y-36450200D01*
X107710417Y-36685812D01*
X104780000Y-36685812D01*
X104780000Y-36394801D01*
X108761698Y-32413104D01*
X108814561Y-32435000D01*
X109385439Y-32435000D01*
X109912862Y-32216534D01*
X110231956Y-31897440D01*
X110335035Y-31897440D01*
X110442191Y-32057809D01*
X110652235Y-32198157D01*
X110900000Y-32247440D01*
X112400000Y-32247440D01*
X112647765Y-32198157D01*
X112857809Y-32057809D01*
X112998157Y-31847765D01*
X113000000Y-31838500D01*
X113001843Y-31847765D01*
X113142191Y-32057809D01*
X113352235Y-32198157D01*
X113600000Y-32247440D01*
X115100000Y-32247440D01*
X115347765Y-32198157D01*
X115557809Y-32057809D01*
X115664965Y-31897440D01*
X115768044Y-31897440D01*
X116087138Y-32216534D01*
X116614561Y-32435000D01*
X116785499Y-32435000D01*
X122752324Y-38401825D01*
X122752235Y-38401843D01*
X122542191Y-38542191D01*
X122401843Y-38752235D01*
X122352560Y-39000000D01*
X122352560Y-43000000D01*
X122401843Y-43247765D01*
X122542191Y-43457809D01*
X122752235Y-43598157D01*
X123000000Y-43647440D01*
X125200000Y-43647440D01*
X125290001Y-43629538D01*
X125290000Y-114705909D01*
X124826538Y-115169371D01*
X125135000Y-114424678D01*
X125135000Y-113575322D01*
X124809966Y-112790620D01*
X124209380Y-112190034D01*
X123424678Y-111865000D01*
X122575322Y-111865000D01*
X121790620Y-112190034D01*
X121190034Y-112790620D01*
X120865000Y-113575322D01*
X120865000Y-114424678D01*
X121190034Y-115209380D01*
X121790620Y-115809966D01*
X122575322Y-116135000D01*
X123424678Y-116135000D01*
X124169372Y-115826538D01*
X123705910Y-116290000D01*
X103535500Y-116290000D01*
X103712862Y-116216534D01*
X104116534Y-115812862D01*
X104335000Y-115285439D01*
X104335000Y-114714561D01*
X104116534Y-114187138D01*
X103712862Y-113783466D01*
X103185439Y-113565000D01*
X103129000Y-113565000D01*
X103129000Y-109429691D01*
X103376156Y-109327316D01*
X103876316Y-108827156D01*
X104147000Y-108173666D01*
X104147000Y-107466334D01*
X103877209Y-106815000D01*
X103944330Y-106815000D01*
X104508507Y-106581310D01*
X104940310Y-106149507D01*
X105174000Y-105585330D01*
X105174000Y-104974670D01*
X104940310Y-104410493D01*
X104508507Y-103978690D01*
X103944330Y-103745000D01*
X103333670Y-103745000D01*
X102769493Y-103978690D01*
X102337690Y-104410493D01*
X102104000Y-104974670D01*
X102104000Y-105585330D01*
X102293159Y-106042000D01*
X102015334Y-106042000D01*
X101361844Y-106312684D01*
X100861684Y-106812844D01*
X100591000Y-107466334D01*
X100591000Y-108173666D01*
X100861684Y-108827156D01*
X101361844Y-109327316D01*
X101609001Y-109429692D01*
X101609000Y-114227560D01*
X99387064Y-114227560D01*
X99358157Y-114082235D01*
X99217809Y-113872191D01*
X99007765Y-113731843D01*
X98760000Y-113682560D01*
X97420000Y-113682560D01*
X97172235Y-113731843D01*
X96962191Y-113872191D01*
X96821843Y-114082235D01*
X96772560Y-114330000D01*
X96772560Y-115670000D01*
X96821843Y-115917765D01*
X96962191Y-116127809D01*
X97172235Y-116268157D01*
X97282048Y-116290000D01*
X96309632Y-116290000D01*
X96357809Y-116257809D01*
X96498157Y-116047765D01*
X96547440Y-115800000D01*
X96547440Y-114200000D01*
X96498157Y-113952235D01*
X96357809Y-113742191D01*
X96147765Y-113601843D01*
X95900000Y-113552560D01*
X94300000Y-113552560D01*
X94052235Y-113601843D01*
X93842191Y-113742191D01*
X93701843Y-113952235D01*
X93652560Y-114200000D01*
X93652560Y-115800000D01*
X93701843Y-116047765D01*
X93842191Y-116257809D01*
X93890368Y-116290000D01*
X73294091Y-116290000D01*
X72830629Y-115826538D01*
X73575322Y-116135000D01*
X74424678Y-116135000D01*
X75209380Y-115809966D01*
X75809966Y-115209380D01*
X76135000Y-114424678D01*
X76135000Y-113575322D01*
X75809966Y-112790620D01*
X75209380Y-112190034D01*
X74424678Y-111865000D01*
X73575322Y-111865000D01*
X72790620Y-112190034D01*
X72190034Y-112790620D01*
X71865000Y-113575322D01*
X71865000Y-114424678D01*
X72173462Y-115169372D01*
X71710000Y-114705910D01*
X71710000Y-104480000D01*
X74542560Y-104480000D01*
X74542560Y-106080000D01*
X74591843Y-106327765D01*
X74732191Y-106537809D01*
X74942235Y-106678157D01*
X75190000Y-106727440D01*
X76790000Y-106727440D01*
X77037765Y-106678157D01*
X77247809Y-106537809D01*
X77388157Y-106327765D01*
X77437440Y-106080000D01*
X77437440Y-104610000D01*
X77662560Y-104610000D01*
X77662560Y-105950000D01*
X77711843Y-106197765D01*
X77852191Y-106407809D01*
X78062235Y-106548157D01*
X78310000Y-106597440D01*
X79650000Y-106597440D01*
X79897765Y-106548157D01*
X80107809Y-106407809D01*
X80248157Y-106197765D01*
X80277064Y-106052440D01*
X82556723Y-106052440D01*
X82573466Y-106092862D01*
X82977138Y-106496534D01*
X83504561Y-106715000D01*
X84075439Y-106715000D01*
X84602862Y-106496534D01*
X85006534Y-106092862D01*
X85225000Y-105565439D01*
X85225000Y-104994561D01*
X85216761Y-104974670D01*
X91944000Y-104974670D01*
X91944000Y-105585330D01*
X92177690Y-106149507D01*
X92609493Y-106581310D01*
X93173670Y-106815000D01*
X93784330Y-106815000D01*
X94348507Y-106581310D01*
X94780310Y-106149507D01*
X95014000Y-105585330D01*
X95014000Y-104974670D01*
X94780310Y-104410493D01*
X94348507Y-103978690D01*
X93784330Y-103745000D01*
X93173670Y-103745000D01*
X92609493Y-103978690D01*
X92177690Y-104410493D01*
X91944000Y-104974670D01*
X85216761Y-104974670D01*
X85006534Y-104467138D01*
X84602862Y-104063466D01*
X84079000Y-103846475D01*
X84079000Y-99904691D01*
X84326156Y-99802316D01*
X84826316Y-99302156D01*
X85097000Y-98648666D01*
X85097000Y-97941334D01*
X84827209Y-97290000D01*
X84894330Y-97290000D01*
X85458507Y-97056310D01*
X85890310Y-96624507D01*
X86124000Y-96060330D01*
X86124000Y-95449670D01*
X85890310Y-94885493D01*
X85458507Y-94453690D01*
X84894330Y-94220000D01*
X84283670Y-94220000D01*
X83719493Y-94453690D01*
X83287690Y-94885493D01*
X83054000Y-95449670D01*
X83054000Y-96060330D01*
X83243159Y-96517000D01*
X82965334Y-96517000D01*
X82311844Y-96787684D01*
X81811684Y-97287844D01*
X81541000Y-97941334D01*
X81541000Y-98648666D01*
X81811684Y-99302156D01*
X82311844Y-99802316D01*
X82559001Y-99904692D01*
X82559000Y-104502062D01*
X82556723Y-104507560D01*
X80277064Y-104507560D01*
X80248157Y-104362235D01*
X80107809Y-104152191D01*
X79897765Y-104011843D01*
X79650000Y-103962560D01*
X78310000Y-103962560D01*
X78062235Y-104011843D01*
X77852191Y-104152191D01*
X77711843Y-104362235D01*
X77662560Y-104610000D01*
X77437440Y-104610000D01*
X77437440Y-104480000D01*
X77388157Y-104232235D01*
X77247809Y-104022191D01*
X77037765Y-103881843D01*
X76790000Y-103832560D01*
X75190000Y-103832560D01*
X74942235Y-103881843D01*
X74732191Y-104022191D01*
X74591843Y-104232235D01*
X74542560Y-104480000D01*
X71710000Y-104480000D01*
X71710000Y-95449670D01*
X72894000Y-95449670D01*
X72894000Y-96060330D01*
X73127690Y-96624507D01*
X73559493Y-97056310D01*
X74123670Y-97290000D01*
X74734330Y-97290000D01*
X75298507Y-97056310D01*
X75730310Y-96624507D01*
X75964000Y-96060330D01*
X75964000Y-95449670D01*
X75730310Y-94885493D01*
X75298507Y-94453690D01*
X74734330Y-94220000D01*
X74123670Y-94220000D01*
X73559493Y-94453690D01*
X73127690Y-94885493D01*
X72894000Y-95449670D01*
X71710000Y-95449670D01*
X71710000Y-76399670D01*
X72894000Y-76399670D01*
X72894000Y-77010330D01*
X73127690Y-77574507D01*
X73559493Y-78006310D01*
X74123670Y-78240000D01*
X74734330Y-78240000D01*
X75298507Y-78006310D01*
X75730310Y-77574507D01*
X75964000Y-77010330D01*
X75964000Y-76399670D01*
X75730310Y-75835493D01*
X75298507Y-75403690D01*
X74734330Y-75170000D01*
X74123670Y-75170000D01*
X73559493Y-75403690D01*
X73127690Y-75835493D01*
X72894000Y-76399670D01*
X71710000Y-76399670D01*
X71710000Y-28294090D01*
X72173462Y-27830628D01*
X71865000Y-28575322D01*
X71865000Y-29424678D01*
X72190034Y-30209380D01*
X72790620Y-30809966D01*
X73575322Y-31135000D01*
X74424678Y-31135000D01*
X75209380Y-30809966D01*
X75809966Y-30209380D01*
X76135000Y-29424678D01*
X76135000Y-28575322D01*
X75809966Y-27790620D01*
X75209380Y-27190034D01*
X74424678Y-26865000D01*
X73575322Y-26865000D01*
X72830629Y-27173462D01*
X73294091Y-26710000D01*
X108433235Y-26710000D01*
X108345995Y-26746136D01*
X108345995Y-26746136D01*
G37*
X108345995Y-26746136D02*
X108271861Y-26992255D01*
X108912828Y-27633223D01*
X108865000Y-27748690D01*
X108865000Y-27778750D01*
X108959248Y-27872998D01*
X108865000Y-27872998D01*
X108865000Y-27944605D01*
X108092255Y-27171861D01*
X107846136Y-27245995D01*
X107653035Y-27783223D01*
X107680222Y-28353454D01*
X107846136Y-28754005D01*
X108092255Y-28828139D01*
X108865000Y-28055395D01*
X108865000Y-28127002D01*
X108959248Y-28127002D01*
X108865000Y-28221250D01*
X108865000Y-28251310D01*
X108912828Y-28366777D01*
X108271861Y-29007745D01*
X108345995Y-29253864D01*
X108883223Y-29446965D01*
X109453454Y-29419778D01*
X109854005Y-29253864D01*
X109928139Y-29007745D01*
X109680394Y-28760000D01*
X110039606Y-28760000D01*
X110107745Y-28828139D01*
X110333961Y-28760000D01*
X111214250Y-28760000D01*
X111373000Y-28601250D01*
X111373000Y-28062500D01*
X111627000Y-28062500D01*
X111627000Y-28601250D01*
X111785750Y-28760000D01*
X112605000Y-28760000D01*
X112605000Y-28796310D01*
X112701673Y-29029699D01*
X112880302Y-29208327D01*
X113113691Y-29305000D01*
X113624250Y-29305000D01*
X113783000Y-29146250D01*
X113783000Y-28695096D01*
X113859698Y-28663327D01*
X114037000Y-28486026D01*
X114037000Y-29146250D01*
X114195750Y-29305000D01*
X114706309Y-29305000D01*
X114939698Y-29208327D01*
X115118327Y-29029699D01*
X115215000Y-28796310D01*
X115215000Y-28285750D01*
X115056250Y-28127000D01*
X114040750Y-28127000D01*
X113976250Y-28062500D01*
X111627000Y-28062500D01*
X111373000Y-28062500D01*
X111353000Y-28062500D01*
X111353000Y-27937500D01*
X111373000Y-27937500D01*
X111373000Y-27398750D01*
X111214250Y-27240000D01*
X110333961Y-27240000D01*
X110107745Y-27171861D01*
X110039606Y-27240000D01*
X109680394Y-27240000D01*
X109928139Y-26992255D01*
X109854005Y-26746136D01*
X109753471Y-26710000D01*
X113077478Y-26710000D01*
X112880302Y-26791673D01*
X112701673Y-26970301D01*
X112605000Y-27203690D01*
X112605000Y-27240000D01*
X111785750Y-27240000D01*
X111627000Y-27398750D01*
X111627000Y-27937500D01*
X113976250Y-27937500D01*
X114040750Y-27873000D01*
X115056250Y-27873000D01*
X115215000Y-27714250D01*
X115215000Y-27203690D01*
X115118327Y-26970301D01*
X114939698Y-26791673D01*
X114742522Y-26710000D01*
X115690368Y-26710000D01*
X115642191Y-26742191D01*
X115501843Y-26952235D01*
X115452560Y-27200000D01*
X115452560Y-28800000D01*
X115501843Y-29047765D01*
X115642191Y-29257809D01*
X115852235Y-29398157D01*
X116100000Y-29447440D01*
X116140000Y-29447440D01*
X116140000Y-29761570D01*
X116087138Y-29783466D01*
X115768044Y-30102560D01*
X115664965Y-30102560D01*
X115557809Y-29942191D01*
X115347765Y-29801843D01*
X115100000Y-29752560D01*
X113600000Y-29752560D01*
X113352235Y-29801843D01*
X113142191Y-29942191D01*
X113001843Y-30152235D01*
X113000000Y-30161500D01*
X112998157Y-30152235D01*
X112857809Y-29942191D01*
X112647765Y-29801843D01*
X112400000Y-29752560D01*
X110900000Y-29752560D01*
X110652235Y-29801843D01*
X110442191Y-29942191D01*
X110335035Y-30102560D01*
X110231956Y-30102560D01*
X109912862Y-29783466D01*
X109385439Y-29565000D01*
X108814561Y-29565000D01*
X108287138Y-29783466D01*
X107883466Y-30187138D01*
X107665000Y-30714561D01*
X107665000Y-31285439D01*
X107686896Y-31338302D01*
X105307174Y-33718024D01*
X105417000Y-33452881D01*
X105417000Y-32897119D01*
X105204320Y-32383663D01*
X104811337Y-31990680D01*
X104297881Y-31778000D01*
X103742119Y-31778000D01*
X103228663Y-31990680D01*
X102835680Y-32383663D01*
X102750000Y-32590513D01*
X102664320Y-32383663D01*
X102271337Y-31990680D01*
X101757881Y-31778000D01*
X101202119Y-31778000D01*
X100688663Y-31990680D01*
X100295680Y-32383663D01*
X100210000Y-32590513D01*
X100124320Y-32383663D01*
X99731337Y-31990680D01*
X99217881Y-31778000D01*
X98662119Y-31778000D01*
X98148663Y-31990680D01*
X97755680Y-32383663D01*
X97670000Y-32590513D01*
X97584320Y-32383663D01*
X97191337Y-31990680D01*
X96677881Y-31778000D01*
X96122119Y-31778000D01*
X95608663Y-31990680D01*
X95483505Y-32115838D01*
X95453173Y-32095571D01*
X94918831Y-31561230D01*
X94876429Y-31497771D01*
X94625037Y-31329796D01*
X94403352Y-31285700D01*
X94403347Y-31285700D01*
X94328500Y-31270812D01*
X94253653Y-31285700D01*
X92746302Y-31285700D01*
X93734881Y-30297120D01*
X93823847Y-30386086D01*
X94424778Y-30635000D01*
X95075222Y-30635000D01*
X95676153Y-30386086D01*
X95909707Y-30152532D01*
X100277073Y-30152532D01*
X100375736Y-30419387D01*
X100985461Y-30645908D01*
X101635460Y-30621856D01*
X102124264Y-30419387D01*
X102222927Y-30152532D01*
X101250000Y-29179605D01*
X100277073Y-30152532D01*
X95909707Y-30152532D01*
X96136086Y-29926153D01*
X96385000Y-29325222D01*
X96385000Y-28735461D01*
X99604092Y-28735461D01*
X99628144Y-29385460D01*
X99830613Y-29874264D01*
X100097468Y-29972927D01*
X101070395Y-29000000D01*
X101429605Y-29000000D01*
X102402532Y-29972927D01*
X102669387Y-29874264D01*
X102895908Y-29264539D01*
X102871856Y-28614540D01*
X102669387Y-28125736D01*
X102402532Y-28027073D01*
X101429605Y-29000000D01*
X101070395Y-29000000D01*
X100097468Y-28027073D01*
X99830613Y-28125736D01*
X99604092Y-28735461D01*
X96385000Y-28735461D01*
X96385000Y-28674778D01*
X96136086Y-28073847D01*
X95909707Y-27847468D01*
X100277073Y-27847468D01*
X101250000Y-28820395D01*
X102222927Y-27847468D01*
X102124264Y-27580613D01*
X101514539Y-27354092D01*
X100864540Y-27378144D01*
X100375736Y-27580613D01*
X100277073Y-27847468D01*
X95909707Y-27847468D01*
X95676153Y-27613914D01*
X95075222Y-27365000D01*
X94424778Y-27365000D01*
X93823847Y-27613914D01*
X93363914Y-28073847D01*
X93115000Y-28674778D01*
X93115000Y-28767398D01*
X89731528Y-32150871D01*
X89571337Y-31990680D01*
X89057881Y-31778000D01*
X88502119Y-31778000D01*
X87988663Y-31990680D01*
X87595680Y-32383663D01*
X87510000Y-32590513D01*
X87424320Y-32383663D01*
X87031337Y-31990680D01*
X86517881Y-31778000D01*
X85962119Y-31778000D01*
X85448663Y-31990680D01*
X85055680Y-32383663D01*
X84976572Y-32574647D01*
X84922397Y-32443857D01*
X84680213Y-32374392D01*
X83879605Y-33175000D01*
X84680213Y-33975608D01*
X84922397Y-33906143D01*
X84972535Y-33765607D01*
X85055680Y-33966337D01*
X85448663Y-34359320D01*
X85962119Y-34572000D01*
X86517881Y-34572000D01*
X87031337Y-34359320D01*
X87424320Y-33966337D01*
X87510000Y-33759487D01*
X87595680Y-33966337D01*
X87988663Y-34359320D01*
X88057546Y-34387852D01*
X80675530Y-41769869D01*
X80612071Y-41812271D01*
X80444096Y-42063664D01*
X80400000Y-42285349D01*
X80400000Y-42285353D01*
X80385112Y-42360200D01*
X80400000Y-42435047D01*
X80400001Y-47217699D01*
X80368663Y-47230680D01*
X79975680Y-47623663D01*
X79896572Y-47814647D01*
X79842397Y-47683857D01*
X79600213Y-47614392D01*
X78799605Y-48415000D01*
X79600213Y-49215608D01*
X79842397Y-49146143D01*
X79892535Y-49005607D01*
X79975680Y-49206337D01*
X80368663Y-49599320D01*
X80882119Y-49812000D01*
X81437881Y-49812000D01*
X81951337Y-49599320D01*
X82344320Y-49206337D01*
X82430000Y-48999487D01*
X82515680Y-49206337D01*
X82865000Y-49555657D01*
X82865001Y-69321299D01*
X77927300Y-64383599D01*
X77927300Y-49651112D01*
X78412302Y-49824144D01*
X78967368Y-49796362D01*
X79351143Y-49637397D01*
X79420608Y-49395213D01*
X78620000Y-48594605D01*
X78605858Y-48608748D01*
X78426253Y-48429143D01*
X78440395Y-48415000D01*
X78426253Y-48400858D01*
X78605858Y-48221253D01*
X78620000Y-48235395D01*
X79420608Y-47434787D01*
X79351143Y-47192603D01*
X78827698Y-47005856D01*
X78272632Y-47033638D01*
X77927300Y-47176679D01*
X77927300Y-35424446D01*
X77942188Y-35349599D01*
X77927300Y-35274752D01*
X77927300Y-35274748D01*
X77883204Y-35053063D01*
X77833185Y-34978204D01*
X77757629Y-34865126D01*
X77757627Y-34865124D01*
X77715229Y-34801671D01*
X77651775Y-34759273D01*
X77292317Y-34399815D01*
X77299809Y-34394809D01*
X77440157Y-34184765D01*
X77475653Y-34006310D01*
X77828663Y-34359320D01*
X78342119Y-34572000D01*
X78897881Y-34572000D01*
X79411337Y-34359320D01*
X79615444Y-34155213D01*
X80359392Y-34155213D01*
X80428857Y-34397397D01*
X80952302Y-34584144D01*
X81507368Y-34556362D01*
X81891143Y-34397397D01*
X81960608Y-34155213D01*
X82899392Y-34155213D01*
X82968857Y-34397397D01*
X83492302Y-34584144D01*
X84047368Y-34556362D01*
X84431143Y-34397397D01*
X84500608Y-34155213D01*
X83700000Y-33354605D01*
X82899392Y-34155213D01*
X81960608Y-34155213D01*
X81160000Y-33354605D01*
X80359392Y-34155213D01*
X79615444Y-34155213D01*
X79804320Y-33966337D01*
X79883428Y-33775353D01*
X79937603Y-33906143D01*
X80179787Y-33975608D01*
X80980395Y-33175000D01*
X81339605Y-33175000D01*
X82140213Y-33975608D01*
X82382397Y-33906143D01*
X82426453Y-33782656D01*
X82477603Y-33906143D01*
X82719787Y-33975608D01*
X83520395Y-33175000D01*
X82719787Y-32374392D01*
X82477603Y-32443857D01*
X82433547Y-32567344D01*
X82382397Y-32443857D01*
X82140213Y-32374392D01*
X81339605Y-33175000D01*
X80980395Y-33175000D01*
X80179787Y-32374392D01*
X79937603Y-32443857D01*
X79887465Y-32584393D01*
X79804320Y-32383663D01*
X79615444Y-32194787D01*
X80359392Y-32194787D01*
X81160000Y-32995395D01*
X81960608Y-32194787D01*
X82899392Y-32194787D01*
X83700000Y-32995395D01*
X84500608Y-32194787D01*
X84431143Y-31952603D01*
X83907698Y-31765856D01*
X83352632Y-31793638D01*
X82968857Y-31952603D01*
X82899392Y-32194787D01*
X81960608Y-32194787D01*
X81891143Y-31952603D01*
X81367698Y-31765856D01*
X80812632Y-31793638D01*
X80428857Y-31952603D01*
X80359392Y-32194787D01*
X79615444Y-32194787D01*
X79411337Y-31990680D01*
X78897881Y-31778000D01*
X78342119Y-31778000D01*
X77828663Y-31990680D01*
X77475653Y-32343690D01*
X77440157Y-32165235D01*
X77299809Y-31955191D01*
X77089765Y-31814843D01*
X76842000Y-31765560D01*
X75318000Y-31765560D01*
X75070235Y-31814843D01*
X74860191Y-31955191D01*
X74719843Y-32165235D01*
X74670560Y-32413000D01*
X74670560Y-33937000D01*
X74719843Y-34184765D01*
X74860191Y-34394809D01*
X75070235Y-34535157D01*
X75318000Y-34584440D01*
X75381204Y-34584440D01*
X75532072Y-34810229D01*
X75595527Y-34852629D01*
X76407301Y-35664404D01*
X76407301Y-47038470D01*
X76357881Y-47018000D01*
X75802119Y-47018000D01*
X75288663Y-47230680D01*
X74895680Y-47623663D01*
X74683000Y-48137119D01*
X74683000Y-48692881D01*
X74895680Y-49206337D01*
X75288663Y-49599320D01*
X75802119Y-49812000D01*
X76357881Y-49812000D01*
X76407301Y-49791530D01*
X76407300Y-64623553D01*
X76392412Y-64698400D01*
X76407300Y-64773247D01*
X76407300Y-64773251D01*
X76451396Y-64994936D01*
X76619371Y-65246329D01*
X76682830Y-65288731D01*
X80694098Y-69300000D01*
X77828925Y-69300000D01*
X77759000Y-69286091D01*
X77689074Y-69300000D01*
X77481972Y-69341195D01*
X77247119Y-69498119D01*
X77090195Y-69732972D01*
X77035091Y-70010000D01*
X77049000Y-70079926D01*
X77049001Y-74440069D01*
X77035091Y-74510000D01*
X77090195Y-74787028D01*
X77247119Y-75021881D01*
X77383300Y-75112874D01*
X77280326Y-75215848D01*
X76880100Y-76182079D01*
X76880100Y-77227921D01*
X77280326Y-78194152D01*
X78019848Y-78933674D01*
X78986079Y-79333900D01*
X79085399Y-79333900D01*
X78058885Y-80360413D01*
X77976156Y-80277684D01*
X77322666Y-80007000D01*
X76615334Y-80007000D01*
X75961844Y-80277684D01*
X75461684Y-80777844D01*
X75191000Y-81431334D01*
X75191000Y-82138666D01*
X75461684Y-82792156D01*
X75961844Y-83292316D01*
X76355401Y-83455332D01*
X76355401Y-84782560D01*
X75190000Y-84782560D01*
X74942235Y-84831843D01*
X74732191Y-84972191D01*
X74591843Y-85182235D01*
X74542560Y-85430000D01*
X74542560Y-87030000D01*
X74591843Y-87277765D01*
X74732191Y-87487809D01*
X74942235Y-87628157D01*
X75190000Y-87677440D01*
X76355401Y-87677440D01*
X76355400Y-99164668D01*
X75961844Y-99327684D01*
X75461684Y-99827844D01*
X75191000Y-100481334D01*
X75191000Y-101188666D01*
X75461684Y-101842156D01*
X75961844Y-102342316D01*
X76615334Y-102613000D01*
X77322666Y-102613000D01*
X77976156Y-102342316D01*
X78476316Y-101842156D01*
X78747000Y-101188666D01*
X78747000Y-100481334D01*
X78476316Y-99827844D01*
X77976156Y-99327684D01*
X77875400Y-99285950D01*
X77875400Y-97839226D01*
X78019848Y-97983674D01*
X78986079Y-98383900D01*
X80031921Y-98383900D01*
X80998152Y-97983674D01*
X81737674Y-97244152D01*
X82137900Y-96277921D01*
X82137900Y-95232079D01*
X81737674Y-94265848D01*
X81634700Y-94162874D01*
X81770881Y-94071881D01*
X81927805Y-93837028D01*
X81982909Y-93560000D01*
X81969000Y-93490074D01*
X81969000Y-89129926D01*
X81982909Y-89060000D01*
X81927805Y-88782972D01*
X81770881Y-88548119D01*
X81536028Y-88391195D01*
X81328926Y-88350000D01*
X81328925Y-88350000D01*
X81259000Y-88336091D01*
X81189074Y-88350000D01*
X77875400Y-88350000D01*
X77875400Y-87373317D01*
X78062235Y-87498157D01*
X78310000Y-87547440D01*
X79650000Y-87547440D01*
X79897765Y-87498157D01*
X80107809Y-87357809D01*
X80248157Y-87147765D01*
X80277064Y-87002440D01*
X82556723Y-87002440D01*
X82573466Y-87042862D01*
X82977138Y-87446534D01*
X83504561Y-87665000D01*
X84075439Y-87665000D01*
X84602862Y-87446534D01*
X85006534Y-87042862D01*
X85225000Y-86515439D01*
X85225000Y-85944561D01*
X85006534Y-85417138D01*
X84602862Y-85013466D01*
X84079000Y-84796475D01*
X84079000Y-80854691D01*
X84326156Y-80752316D01*
X84826316Y-80252156D01*
X85097000Y-79598666D01*
X85097000Y-78891334D01*
X84827209Y-78240000D01*
X84894330Y-78240000D01*
X85458507Y-78006310D01*
X85890310Y-77574507D01*
X86124000Y-77010330D01*
X86124000Y-76399670D01*
X85890310Y-75835493D01*
X85458507Y-75403690D01*
X85251117Y-75317786D01*
X86724476Y-73844427D01*
X86787929Y-73802029D01*
X86830327Y-73738576D01*
X86830329Y-73738574D01*
X86925200Y-73596588D01*
X86925200Y-87200053D01*
X86910312Y-87274900D01*
X86925200Y-87349747D01*
X86925200Y-87349751D01*
X86969296Y-87571436D01*
X87137271Y-87822829D01*
X87200730Y-87865231D01*
X93812462Y-94476964D01*
X93782191Y-94497191D01*
X93641843Y-94707235D01*
X93592560Y-94955000D01*
X93592560Y-96555000D01*
X93641843Y-96802765D01*
X93782191Y-97012809D01*
X93992235Y-97153157D01*
X94240000Y-97202440D01*
X95405401Y-97202440D01*
X95405400Y-108689668D01*
X95011844Y-108852684D01*
X94511684Y-109352844D01*
X94241000Y-110006334D01*
X94241000Y-110713666D01*
X94511684Y-111367156D01*
X95011844Y-111867316D01*
X95665334Y-112138000D01*
X96372666Y-112138000D01*
X97026156Y-111867316D01*
X97526316Y-111367156D01*
X97797000Y-110713666D01*
X97797000Y-110006334D01*
X97526316Y-109352844D01*
X97026156Y-108852684D01*
X96925400Y-108810950D01*
X96925400Y-107364226D01*
X97069848Y-107508674D01*
X98036079Y-107908900D01*
X99081921Y-107908900D01*
X100048152Y-107508674D01*
X100787674Y-106769152D01*
X101187900Y-105802921D01*
X101187900Y-104757079D01*
X100787674Y-103790848D01*
X100708733Y-103711907D01*
X100880881Y-103596881D01*
X101037805Y-103362028D01*
X101092909Y-103085000D01*
X101079000Y-103015074D01*
X101079000Y-98654926D01*
X101092909Y-98585000D01*
X101037805Y-98307972D01*
X100880881Y-98073119D01*
X100646028Y-97916195D01*
X100438926Y-97875000D01*
X100438925Y-97875000D01*
X100369000Y-97861091D01*
X100299074Y-97875000D01*
X96938925Y-97875000D01*
X96925400Y-97872310D01*
X96925400Y-96898317D01*
X97112235Y-97023157D01*
X97360000Y-97072440D01*
X98700000Y-97072440D01*
X98947765Y-97023157D01*
X99157809Y-96882809D01*
X99298157Y-96672765D01*
X99327064Y-96527440D01*
X101606723Y-96527440D01*
X101623466Y-96567862D01*
X102027138Y-96971534D01*
X102554561Y-97190000D01*
X103125439Y-97190000D01*
X103652862Y-96971534D01*
X104056534Y-96567862D01*
X104275000Y-96040439D01*
X104275000Y-95469561D01*
X104056534Y-94942138D01*
X103652862Y-94538466D01*
X103129000Y-94321475D01*
X103129000Y-90379691D01*
X103376156Y-90277316D01*
X103876316Y-89777156D01*
X104147000Y-89123666D01*
X104147000Y-88416334D01*
X103877209Y-87765000D01*
X103944330Y-87765000D01*
X104508507Y-87531310D01*
X104940310Y-87099507D01*
X105174000Y-86535330D01*
X105174000Y-85924670D01*
X104940310Y-85360493D01*
X104508507Y-84928690D01*
X103944330Y-84695000D01*
X103333670Y-84695000D01*
X102769493Y-84928690D01*
X102337690Y-85360493D01*
X102104000Y-85924670D01*
X102104000Y-86535330D01*
X102293159Y-86992000D01*
X102015334Y-86992000D01*
X101361844Y-87262684D01*
X100861684Y-87762844D01*
X100591000Y-88416334D01*
X100591000Y-89123666D01*
X100861684Y-89777156D01*
X101361844Y-90277316D01*
X101609001Y-90379692D01*
X101609000Y-94977062D01*
X101606723Y-94982560D01*
X99327064Y-94982560D01*
X99298157Y-94837235D01*
X99157809Y-94627191D01*
X98947765Y-94486843D01*
X98700000Y-94437560D01*
X97360000Y-94437560D01*
X97112235Y-94486843D01*
X96925400Y-94611683D01*
X96925400Y-92859050D01*
X97026156Y-92817316D01*
X97526316Y-92317156D01*
X97797000Y-91663666D01*
X97797000Y-90956334D01*
X97526316Y-90302844D01*
X97026156Y-89802684D01*
X96779000Y-89700309D01*
X96779000Y-88167826D01*
X97069848Y-88458674D01*
X98036079Y-88858900D01*
X99081921Y-88858900D01*
X100048152Y-88458674D01*
X100787674Y-87719152D01*
X101187900Y-86752921D01*
X101187900Y-85707079D01*
X100787674Y-84740848D01*
X100708733Y-84661907D01*
X100880881Y-84546881D01*
X101037805Y-84312028D01*
X101092909Y-84035000D01*
X101079000Y-83965074D01*
X101079000Y-79604926D01*
X101092909Y-79535000D01*
X101069948Y-79419564D01*
X101037805Y-79257972D01*
X101020202Y-79231627D01*
X100880881Y-79023119D01*
X100646028Y-78866195D01*
X100438926Y-78825000D01*
X100438925Y-78825000D01*
X100369000Y-78811091D01*
X100299074Y-78825000D01*
X96938925Y-78825000D01*
X96869000Y-78811091D01*
X96799074Y-78825000D01*
X96591972Y-78866195D01*
X96357119Y-79023119D01*
X96200195Y-79257972D01*
X96145091Y-79535000D01*
X96159000Y-79604926D01*
X96159001Y-82617999D01*
X94674600Y-81133599D01*
X94674600Y-78152440D01*
X95840000Y-78152440D01*
X96087765Y-78103157D01*
X96297809Y-77962809D01*
X96318036Y-77932538D01*
X96700270Y-78314772D01*
X96742671Y-78378229D01*
X96994063Y-78546204D01*
X97215748Y-78590300D01*
X97215752Y-78590300D01*
X97290600Y-78605188D01*
X97365448Y-78590300D01*
X104250199Y-78590300D01*
X112374371Y-86714473D01*
X112416771Y-86777929D01*
X112480227Y-86820329D01*
X112642560Y-86928797D01*
X112642560Y-87030000D01*
X112691843Y-87277765D01*
X112832191Y-87487809D01*
X113042235Y-87628157D01*
X113290000Y-87677440D01*
X114455401Y-87677440D01*
X114455401Y-88007998D01*
X114280629Y-88182769D01*
X114217171Y-88225171D01*
X114049196Y-88476564D01*
X114005100Y-88698249D01*
X114005100Y-88698253D01*
X113990212Y-88773100D01*
X114005100Y-88847947D01*
X114005101Y-95307474D01*
X113830310Y-94885493D01*
X113398507Y-94453690D01*
X112834330Y-94220000D01*
X112223670Y-94220000D01*
X111659493Y-94453690D01*
X111227690Y-94885493D01*
X110994000Y-95449670D01*
X110994000Y-96060330D01*
X111227690Y-96624507D01*
X111659493Y-97056310D01*
X112223670Y-97290000D01*
X112834330Y-97290000D01*
X113398507Y-97056310D01*
X113830310Y-96624507D01*
X114005101Y-96202526D01*
X114005101Y-99384427D01*
X113561684Y-99827844D01*
X113291000Y-100481334D01*
X113291000Y-101188666D01*
X113561684Y-101842156D01*
X114061844Y-102342316D01*
X114603303Y-102566595D01*
X113605528Y-103564371D01*
X113542072Y-103606771D01*
X113499672Y-103670227D01*
X113499671Y-103670228D01*
X113391204Y-103832560D01*
X113290000Y-103832560D01*
X113042235Y-103881843D01*
X112832191Y-104022191D01*
X112691843Y-104232235D01*
X112642560Y-104480000D01*
X112642560Y-106080000D01*
X112691843Y-106327765D01*
X112832191Y-106537809D01*
X113042235Y-106678157D01*
X113290000Y-106727440D01*
X114890000Y-106727440D01*
X115137765Y-106678157D01*
X115347809Y-106537809D01*
X115488157Y-106327765D01*
X115537440Y-106080000D01*
X115537440Y-104610000D01*
X115762560Y-104610000D01*
X115762560Y-105950000D01*
X115811843Y-106197765D01*
X115952191Y-106407809D01*
X116162235Y-106548157D01*
X116410000Y-106597440D01*
X117750000Y-106597440D01*
X117997765Y-106548157D01*
X118207809Y-106407809D01*
X118348157Y-106197765D01*
X118377064Y-106052440D01*
X120656723Y-106052440D01*
X120673466Y-106092862D01*
X121077138Y-106496534D01*
X121604561Y-106715000D01*
X122175439Y-106715000D01*
X122702862Y-106496534D01*
X123106534Y-106092862D01*
X123325000Y-105565439D01*
X123325000Y-104994561D01*
X123106534Y-104467138D01*
X122702862Y-104063466D01*
X122179000Y-103846475D01*
X122179000Y-99904691D01*
X122426156Y-99802316D01*
X122926316Y-99302156D01*
X123197000Y-98648666D01*
X123197000Y-97941334D01*
X122927209Y-97290000D01*
X122994330Y-97290000D01*
X123558507Y-97056310D01*
X123990310Y-96624507D01*
X124224000Y-96060330D01*
X124224000Y-95449670D01*
X123990310Y-94885493D01*
X123558507Y-94453690D01*
X122994330Y-94220000D01*
X122383670Y-94220000D01*
X121819493Y-94453690D01*
X121387690Y-94885493D01*
X121154000Y-95449670D01*
X121154000Y-96060330D01*
X121343159Y-96517000D01*
X121065334Y-96517000D01*
X120411844Y-96787684D01*
X119911684Y-97287844D01*
X119641000Y-97941334D01*
X119641000Y-98648666D01*
X119911684Y-99302156D01*
X120411844Y-99802316D01*
X120659001Y-99904692D01*
X120659000Y-104502062D01*
X120656723Y-104507560D01*
X118377064Y-104507560D01*
X118348157Y-104362235D01*
X118207809Y-104152191D01*
X117997765Y-104011843D01*
X117750000Y-103962560D01*
X116410000Y-103962560D01*
X116162235Y-104011843D01*
X115952191Y-104152191D01*
X115811843Y-104362235D01*
X115762560Y-104610000D01*
X115537440Y-104610000D01*
X115537440Y-104480000D01*
X115488157Y-104232235D01*
X115347809Y-104022191D01*
X115317537Y-104001964D01*
X117049073Y-102270429D01*
X117112529Y-102228029D01*
X117280504Y-101976637D01*
X117324600Y-101754952D01*
X117324600Y-101754947D01*
X117339488Y-101680100D01*
X117324600Y-101605253D01*
X117324600Y-98604748D01*
X117339488Y-98529900D01*
X117324600Y-98455052D01*
X117324600Y-98455048D01*
X117310448Y-98383900D01*
X118131921Y-98383900D01*
X119098152Y-97983674D01*
X119837674Y-97244152D01*
X120237900Y-96277921D01*
X120237900Y-95232079D01*
X119837674Y-94265848D01*
X119734700Y-94162874D01*
X119870881Y-94071881D01*
X120027805Y-93837028D01*
X120082909Y-93560000D01*
X120069000Y-93490074D01*
X120069000Y-89129926D01*
X120082909Y-89060000D01*
X120027805Y-88782972D01*
X119870881Y-88548119D01*
X119636028Y-88391195D01*
X119428926Y-88350000D01*
X119428925Y-88350000D01*
X119359000Y-88336091D01*
X119289074Y-88350000D01*
X116425800Y-88350000D01*
X116425800Y-87547440D01*
X117750000Y-87547440D01*
X117997765Y-87498157D01*
X118207809Y-87357809D01*
X118348157Y-87147765D01*
X118377064Y-87002440D01*
X120656723Y-87002440D01*
X120673466Y-87042862D01*
X121077138Y-87446534D01*
X121604561Y-87665000D01*
X122175439Y-87665000D01*
X122702862Y-87446534D01*
X123106534Y-87042862D01*
X123325000Y-86515439D01*
X123325000Y-85944561D01*
X123106534Y-85417138D01*
X122702862Y-85013466D01*
X122179000Y-84796475D01*
X122179000Y-80854691D01*
X122426156Y-80752316D01*
X122926316Y-80252156D01*
X123197000Y-79598666D01*
X123197000Y-78891334D01*
X122927209Y-78240000D01*
X122994330Y-78240000D01*
X123558507Y-78006310D01*
X123990310Y-77574507D01*
X124224000Y-77010330D01*
X124224000Y-76399670D01*
X123990310Y-75835493D01*
X123558507Y-75403690D01*
X122994330Y-75170000D01*
X122383670Y-75170000D01*
X121819493Y-75403690D01*
X121387690Y-75835493D01*
X121154000Y-76399670D01*
X121154000Y-77010330D01*
X121343159Y-77467000D01*
X121065334Y-77467000D01*
X120411844Y-77737684D01*
X119911684Y-78237844D01*
X119641000Y-78891334D01*
X119641000Y-79598666D01*
X119911684Y-80252156D01*
X120411844Y-80752316D01*
X120659001Y-80854692D01*
X120659000Y-85452062D01*
X120656723Y-85457560D01*
X118377064Y-85457560D01*
X118348157Y-85312235D01*
X118207809Y-85102191D01*
X117997765Y-84961843D01*
X117750000Y-84912560D01*
X116682642Y-84912560D01*
X117067175Y-84528027D01*
X117130629Y-84485629D01*
X117173027Y-84422176D01*
X117173029Y-84422174D01*
X117256802Y-84296798D01*
X117298604Y-84234237D01*
X117342700Y-84012552D01*
X117342700Y-84012548D01*
X117357588Y-83937701D01*
X117342700Y-83862854D01*
X117342700Y-79790946D01*
X117357588Y-79716099D01*
X117342700Y-79641252D01*
X117342700Y-79641248D01*
X117298604Y-79419563D01*
X117241366Y-79333900D01*
X118131921Y-79333900D01*
X119098152Y-78933674D01*
X119837674Y-78194152D01*
X120237900Y-77227921D01*
X120237900Y-76182079D01*
X119837674Y-75215848D01*
X119734700Y-75112874D01*
X119870881Y-75021881D01*
X120027805Y-74787028D01*
X120082909Y-74510000D01*
X120069000Y-74440074D01*
X120069000Y-70079926D01*
X120082909Y-70010000D01*
X120027805Y-69732972D01*
X119870881Y-69498119D01*
X119636028Y-69341195D01*
X119428926Y-69300000D01*
X119428925Y-69300000D01*
X119359000Y-69286091D01*
X119289074Y-69300000D01*
X115928925Y-69300000D01*
X115859000Y-69286091D01*
X115789074Y-69300000D01*
X115581972Y-69341195D01*
X115347119Y-69498119D01*
X115190195Y-69732972D01*
X115135091Y-70010000D01*
X115149000Y-70079926D01*
X115149001Y-74440069D01*
X115135091Y-74510000D01*
X115190195Y-74787028D01*
X115347119Y-75021881D01*
X115483300Y-75112874D01*
X115380326Y-75215848D01*
X114980100Y-76182079D01*
X114980100Y-77038699D01*
X114837200Y-76895799D01*
X114837200Y-62811246D01*
X114852088Y-62736399D01*
X114837200Y-62661552D01*
X114837200Y-62661548D01*
X114793104Y-62439863D01*
X114751302Y-62377302D01*
X114667529Y-62251926D01*
X114667527Y-62251924D01*
X114625129Y-62188471D01*
X114561676Y-62146073D01*
X102090024Y-49674422D01*
X102271337Y-49599320D01*
X102664320Y-49206337D01*
X102750000Y-48999487D01*
X102835680Y-49206337D01*
X103228663Y-49599320D01*
X103742119Y-49812000D01*
X104297881Y-49812000D01*
X104811337Y-49599320D01*
X105204320Y-49206337D01*
X105417000Y-48692881D01*
X105417000Y-48137119D01*
X105204320Y-47623663D01*
X104811337Y-47230680D01*
X104780000Y-47217700D01*
X104780000Y-39894750D01*
X107131500Y-39894750D01*
X107131500Y-40425250D01*
X107334513Y-40915367D01*
X107709633Y-41290487D01*
X108046447Y-41430000D01*
X107709633Y-41569513D01*
X107334513Y-41944633D01*
X107131500Y-42434750D01*
X107131500Y-42965250D01*
X107334513Y-43455367D01*
X107709633Y-43830487D01*
X108046447Y-43970000D01*
X107709633Y-44109513D01*
X107334513Y-44484633D01*
X107131500Y-44974750D01*
X107131500Y-45505250D01*
X107334513Y-45995367D01*
X107709633Y-46370487D01*
X108199750Y-46573500D01*
X108730250Y-46573500D01*
X109220367Y-46370487D01*
X109595487Y-45995367D01*
X109798500Y-45505250D01*
X109798500Y-44974750D01*
X109595487Y-44484633D01*
X109220367Y-44109513D01*
X108883553Y-43970000D01*
X109220367Y-43830487D01*
X109595487Y-43455367D01*
X109798500Y-42965250D01*
X109798500Y-42434750D01*
X109595487Y-41944633D01*
X109220367Y-41569513D01*
X108883553Y-41430000D01*
X109220367Y-41290487D01*
X109225104Y-41285750D01*
X110165000Y-41285750D01*
X110165000Y-43126310D01*
X110261673Y-43359699D01*
X110440302Y-43538327D01*
X110673691Y-43635000D01*
X111614250Y-43635000D01*
X111773000Y-43476250D01*
X111773000Y-41127000D01*
X112027000Y-41127000D01*
X112027000Y-43476250D01*
X112185750Y-43635000D01*
X113126309Y-43635000D01*
X113359698Y-43538327D01*
X113538327Y-43359699D01*
X113635000Y-43126310D01*
X113635000Y-41285750D01*
X113476250Y-41127000D01*
X112027000Y-41127000D01*
X111773000Y-41127000D01*
X110323750Y-41127000D01*
X110165000Y-41285750D01*
X109225104Y-41285750D01*
X109595487Y-40915367D01*
X109798500Y-40425250D01*
X109798500Y-39894750D01*
X109595487Y-39404633D01*
X109220367Y-39029513D01*
X108899789Y-38896725D01*
X108955400Y-38873690D01*
X110165000Y-38873690D01*
X110165000Y-40714250D01*
X110323750Y-40873000D01*
X111773000Y-40873000D01*
X111773000Y-38523750D01*
X112027000Y-38523750D01*
X112027000Y-40873000D01*
X113476250Y-40873000D01*
X113635000Y-40714250D01*
X113635000Y-38873690D01*
X113538327Y-38640301D01*
X113359698Y-38461673D01*
X113126309Y-38365000D01*
X112185750Y-38365000D01*
X112027000Y-38523750D01*
X111773000Y-38523750D01*
X111614250Y-38365000D01*
X110673691Y-38365000D01*
X110440302Y-38461673D01*
X110261673Y-38640301D01*
X110165000Y-38873690D01*
X108955400Y-38873690D01*
X109157929Y-38789800D01*
X109219583Y-38554188D01*
X108465000Y-37799605D01*
X107710417Y-38554188D01*
X107772071Y-38789800D01*
X108051184Y-38888038D01*
X107709633Y-39029513D01*
X107334513Y-39404633D01*
X107131500Y-39894750D01*
X104780000Y-39894750D01*
X104780000Y-37427480D01*
X107119073Y-37427480D01*
X107147852Y-37957199D01*
X107295200Y-38312929D01*
X107530812Y-38374583D01*
X108285395Y-37620000D01*
X108644605Y-37620000D01*
X109399188Y-38374583D01*
X109634800Y-38312929D01*
X109810927Y-37812520D01*
X109782148Y-37282801D01*
X109634800Y-36927071D01*
X109399188Y-36865417D01*
X108644605Y-37620000D01*
X108285395Y-37620000D01*
X107530812Y-36865417D01*
X107295200Y-36927071D01*
X107119073Y-37427480D01*
X104780000Y-37427480D01*
X104780000Y-36685812D01*
X107710417Y-36685812D01*
X108465000Y-37440395D01*
X109219583Y-36685812D01*
X109157929Y-36450200D01*
X108657520Y-36274073D01*
X108127801Y-36302852D01*
X107772071Y-36450200D01*
X107710417Y-36685812D01*
X104780000Y-36685812D01*
X104780000Y-36394801D01*
X108761698Y-32413104D01*
X108814561Y-32435000D01*
X109385439Y-32435000D01*
X109912862Y-32216534D01*
X110231956Y-31897440D01*
X110335035Y-31897440D01*
X110442191Y-32057809D01*
X110652235Y-32198157D01*
X110900000Y-32247440D01*
X112400000Y-32247440D01*
X112647765Y-32198157D01*
X112857809Y-32057809D01*
X112998157Y-31847765D01*
X113000000Y-31838500D01*
X113001843Y-31847765D01*
X113142191Y-32057809D01*
X113352235Y-32198157D01*
X113600000Y-32247440D01*
X115100000Y-32247440D01*
X115347765Y-32198157D01*
X115557809Y-32057809D01*
X115664965Y-31897440D01*
X115768044Y-31897440D01*
X116087138Y-32216534D01*
X116614561Y-32435000D01*
X116785499Y-32435000D01*
X122752324Y-38401825D01*
X122752235Y-38401843D01*
X122542191Y-38542191D01*
X122401843Y-38752235D01*
X122352560Y-39000000D01*
X122352560Y-43000000D01*
X122401843Y-43247765D01*
X122542191Y-43457809D01*
X122752235Y-43598157D01*
X123000000Y-43647440D01*
X125200000Y-43647440D01*
X125290001Y-43629538D01*
X125290000Y-114705909D01*
X124826538Y-115169371D01*
X125135000Y-114424678D01*
X125135000Y-113575322D01*
X124809966Y-112790620D01*
X124209380Y-112190034D01*
X123424678Y-111865000D01*
X122575322Y-111865000D01*
X121790620Y-112190034D01*
X121190034Y-112790620D01*
X120865000Y-113575322D01*
X120865000Y-114424678D01*
X121190034Y-115209380D01*
X121790620Y-115809966D01*
X122575322Y-116135000D01*
X123424678Y-116135000D01*
X124169372Y-115826538D01*
X123705910Y-116290000D01*
X103535500Y-116290000D01*
X103712862Y-116216534D01*
X104116534Y-115812862D01*
X104335000Y-115285439D01*
X104335000Y-114714561D01*
X104116534Y-114187138D01*
X103712862Y-113783466D01*
X103185439Y-113565000D01*
X103129000Y-113565000D01*
X103129000Y-109429691D01*
X103376156Y-109327316D01*
X103876316Y-108827156D01*
X104147000Y-108173666D01*
X104147000Y-107466334D01*
X103877209Y-106815000D01*
X103944330Y-106815000D01*
X104508507Y-106581310D01*
X104940310Y-106149507D01*
X105174000Y-105585330D01*
X105174000Y-104974670D01*
X104940310Y-104410493D01*
X104508507Y-103978690D01*
X103944330Y-103745000D01*
X103333670Y-103745000D01*
X102769493Y-103978690D01*
X102337690Y-104410493D01*
X102104000Y-104974670D01*
X102104000Y-105585330D01*
X102293159Y-106042000D01*
X102015334Y-106042000D01*
X101361844Y-106312684D01*
X100861684Y-106812844D01*
X100591000Y-107466334D01*
X100591000Y-108173666D01*
X100861684Y-108827156D01*
X101361844Y-109327316D01*
X101609001Y-109429692D01*
X101609000Y-114227560D01*
X99387064Y-114227560D01*
X99358157Y-114082235D01*
X99217809Y-113872191D01*
X99007765Y-113731843D01*
X98760000Y-113682560D01*
X97420000Y-113682560D01*
X97172235Y-113731843D01*
X96962191Y-113872191D01*
X96821843Y-114082235D01*
X96772560Y-114330000D01*
X96772560Y-115670000D01*
X96821843Y-115917765D01*
X96962191Y-116127809D01*
X97172235Y-116268157D01*
X97282048Y-116290000D01*
X96309632Y-116290000D01*
X96357809Y-116257809D01*
X96498157Y-116047765D01*
X96547440Y-115800000D01*
X96547440Y-114200000D01*
X96498157Y-113952235D01*
X96357809Y-113742191D01*
X96147765Y-113601843D01*
X95900000Y-113552560D01*
X94300000Y-113552560D01*
X94052235Y-113601843D01*
X93842191Y-113742191D01*
X93701843Y-113952235D01*
X93652560Y-114200000D01*
X93652560Y-115800000D01*
X93701843Y-116047765D01*
X93842191Y-116257809D01*
X93890368Y-116290000D01*
X73294091Y-116290000D01*
X72830629Y-115826538D01*
X73575322Y-116135000D01*
X74424678Y-116135000D01*
X75209380Y-115809966D01*
X75809966Y-115209380D01*
X76135000Y-114424678D01*
X76135000Y-113575322D01*
X75809966Y-112790620D01*
X75209380Y-112190034D01*
X74424678Y-111865000D01*
X73575322Y-111865000D01*
X72790620Y-112190034D01*
X72190034Y-112790620D01*
X71865000Y-113575322D01*
X71865000Y-114424678D01*
X72173462Y-115169372D01*
X71710000Y-114705910D01*
X71710000Y-104480000D01*
X74542560Y-104480000D01*
X74542560Y-106080000D01*
X74591843Y-106327765D01*
X74732191Y-106537809D01*
X74942235Y-106678157D01*
X75190000Y-106727440D01*
X76790000Y-106727440D01*
X77037765Y-106678157D01*
X77247809Y-106537809D01*
X77388157Y-106327765D01*
X77437440Y-106080000D01*
X77437440Y-104610000D01*
X77662560Y-104610000D01*
X77662560Y-105950000D01*
X77711843Y-106197765D01*
X77852191Y-106407809D01*
X78062235Y-106548157D01*
X78310000Y-106597440D01*
X79650000Y-106597440D01*
X79897765Y-106548157D01*
X80107809Y-106407809D01*
X80248157Y-106197765D01*
X80277064Y-106052440D01*
X82556723Y-106052440D01*
X82573466Y-106092862D01*
X82977138Y-106496534D01*
X83504561Y-106715000D01*
X84075439Y-106715000D01*
X84602862Y-106496534D01*
X85006534Y-106092862D01*
X85225000Y-105565439D01*
X85225000Y-104994561D01*
X85216761Y-104974670D01*
X91944000Y-104974670D01*
X91944000Y-105585330D01*
X92177690Y-106149507D01*
X92609493Y-106581310D01*
X93173670Y-106815000D01*
X93784330Y-106815000D01*
X94348507Y-106581310D01*
X94780310Y-106149507D01*
X95014000Y-105585330D01*
X95014000Y-104974670D01*
X94780310Y-104410493D01*
X94348507Y-103978690D01*
X93784330Y-103745000D01*
X93173670Y-103745000D01*
X92609493Y-103978690D01*
X92177690Y-104410493D01*
X91944000Y-104974670D01*
X85216761Y-104974670D01*
X85006534Y-104467138D01*
X84602862Y-104063466D01*
X84079000Y-103846475D01*
X84079000Y-99904691D01*
X84326156Y-99802316D01*
X84826316Y-99302156D01*
X85097000Y-98648666D01*
X85097000Y-97941334D01*
X84827209Y-97290000D01*
X84894330Y-97290000D01*
X85458507Y-97056310D01*
X85890310Y-96624507D01*
X86124000Y-96060330D01*
X86124000Y-95449670D01*
X85890310Y-94885493D01*
X85458507Y-94453690D01*
X84894330Y-94220000D01*
X84283670Y-94220000D01*
X83719493Y-94453690D01*
X83287690Y-94885493D01*
X83054000Y-95449670D01*
X83054000Y-96060330D01*
X83243159Y-96517000D01*
X82965334Y-96517000D01*
X82311844Y-96787684D01*
X81811684Y-97287844D01*
X81541000Y-97941334D01*
X81541000Y-98648666D01*
X81811684Y-99302156D01*
X82311844Y-99802316D01*
X82559001Y-99904692D01*
X82559000Y-104502062D01*
X82556723Y-104507560D01*
X80277064Y-104507560D01*
X80248157Y-104362235D01*
X80107809Y-104152191D01*
X79897765Y-104011843D01*
X79650000Y-103962560D01*
X78310000Y-103962560D01*
X78062235Y-104011843D01*
X77852191Y-104152191D01*
X77711843Y-104362235D01*
X77662560Y-104610000D01*
X77437440Y-104610000D01*
X77437440Y-104480000D01*
X77388157Y-104232235D01*
X77247809Y-104022191D01*
X77037765Y-103881843D01*
X76790000Y-103832560D01*
X75190000Y-103832560D01*
X74942235Y-103881843D01*
X74732191Y-104022191D01*
X74591843Y-104232235D01*
X74542560Y-104480000D01*
X71710000Y-104480000D01*
X71710000Y-95449670D01*
X72894000Y-95449670D01*
X72894000Y-96060330D01*
X73127690Y-96624507D01*
X73559493Y-97056310D01*
X74123670Y-97290000D01*
X74734330Y-97290000D01*
X75298507Y-97056310D01*
X75730310Y-96624507D01*
X75964000Y-96060330D01*
X75964000Y-95449670D01*
X75730310Y-94885493D01*
X75298507Y-94453690D01*
X74734330Y-94220000D01*
X74123670Y-94220000D01*
X73559493Y-94453690D01*
X73127690Y-94885493D01*
X72894000Y-95449670D01*
X71710000Y-95449670D01*
X71710000Y-76399670D01*
X72894000Y-76399670D01*
X72894000Y-77010330D01*
X73127690Y-77574507D01*
X73559493Y-78006310D01*
X74123670Y-78240000D01*
X74734330Y-78240000D01*
X75298507Y-78006310D01*
X75730310Y-77574507D01*
X75964000Y-77010330D01*
X75964000Y-76399670D01*
X75730310Y-75835493D01*
X75298507Y-75403690D01*
X74734330Y-75170000D01*
X74123670Y-75170000D01*
X73559493Y-75403690D01*
X73127690Y-75835493D01*
X72894000Y-76399670D01*
X71710000Y-76399670D01*
X71710000Y-28294090D01*
X72173462Y-27830628D01*
X71865000Y-28575322D01*
X71865000Y-29424678D01*
X72190034Y-30209380D01*
X72790620Y-30809966D01*
X73575322Y-31135000D01*
X74424678Y-31135000D01*
X75209380Y-30809966D01*
X75809966Y-30209380D01*
X76135000Y-29424678D01*
X76135000Y-28575322D01*
X75809966Y-27790620D01*
X75209380Y-27190034D01*
X74424678Y-26865000D01*
X73575322Y-26865000D01*
X72830629Y-27173462D01*
X73294091Y-26710000D01*
X108433235Y-26710000D01*
X108345995Y-26746136D01*
G36*
X94343375Y-71659177D02*
X94241000Y-71906334D01*
X94241000Y-72613666D01*
X94343376Y-72860823D01*
X93430128Y-73774071D01*
X93366672Y-73816471D01*
X93324272Y-73879927D01*
X93324271Y-73879928D01*
X93198697Y-74067863D01*
X93139712Y-74364400D01*
X93154601Y-74439252D01*
X93154600Y-81373553D01*
X93139712Y-81448400D01*
X93154600Y-81523247D01*
X93154600Y-81523251D01*
X93198696Y-81744936D01*
X93366671Y-81996329D01*
X93430130Y-82038731D01*
X95259001Y-83867603D01*
X95259000Y-89700309D01*
X95011844Y-89802684D01*
X94511684Y-90302844D01*
X94241000Y-90956334D01*
X94241000Y-91663666D01*
X94511684Y-92317156D01*
X95011844Y-92817316D01*
X95405401Y-92980332D01*
X95405401Y-93920299D01*
X88445200Y-86960099D01*
X88445200Y-85924670D01*
X91944000Y-85924670D01*
X91944000Y-86535330D01*
X92177690Y-87099507D01*
X92609493Y-87531310D01*
X93173670Y-87765000D01*
X93784330Y-87765000D01*
X94348507Y-87531310D01*
X94780310Y-87099507D01*
X95014000Y-86535330D01*
X95014000Y-85924670D01*
X94780310Y-85360493D01*
X94348507Y-84928690D01*
X93784330Y-84695000D01*
X93173670Y-84695000D01*
X92609493Y-84928690D01*
X92177690Y-85360493D01*
X91944000Y-85924670D01*
X88445200Y-85924670D01*
X88445200Y-65761001D01*
X94343375Y-71659177D01*
X94343375Y-71659177D01*
G37*
X94343375Y-71659177D02*
X94241000Y-71906334D01*
X94241000Y-72613666D01*
X94343376Y-72860823D01*
X93430128Y-73774071D01*
X93366672Y-73816471D01*
X93324272Y-73879927D01*
X93324271Y-73879928D01*
X93198697Y-74067863D01*
X93139712Y-74364400D01*
X93154601Y-74439252D01*
X93154600Y-81373553D01*
X93139712Y-81448400D01*
X93154600Y-81523247D01*
X93154600Y-81523251D01*
X93198696Y-81744936D01*
X93366671Y-81996329D01*
X93430130Y-82038731D01*
X95259001Y-83867603D01*
X95259000Y-89700309D01*
X95011844Y-89802684D01*
X94511684Y-90302844D01*
X94241000Y-90956334D01*
X94241000Y-91663666D01*
X94511684Y-92317156D01*
X95011844Y-92817316D01*
X95405401Y-92980332D01*
X95405401Y-93920299D01*
X88445200Y-86960099D01*
X88445200Y-85924670D01*
X91944000Y-85924670D01*
X91944000Y-86535330D01*
X92177690Y-87099507D01*
X92609493Y-87531310D01*
X93173670Y-87765000D01*
X93784330Y-87765000D01*
X94348507Y-87531310D01*
X94780310Y-87099507D01*
X95014000Y-86535330D01*
X95014000Y-85924670D01*
X94780310Y-85360493D01*
X94348507Y-84928690D01*
X93784330Y-84695000D01*
X93173670Y-84695000D01*
X92609493Y-84928690D01*
X92177690Y-85360493D01*
X91944000Y-85924670D01*
X88445200Y-85924670D01*
X88445200Y-65761001D01*
X94343375Y-71659177D01*
G36*
X91042119Y-49812000D02*
X91597881Y-49812000D01*
X91629219Y-49799020D01*
X110543700Y-68713502D01*
X110543701Y-77944848D01*
X110528812Y-78019700D01*
X110587797Y-78316237D01*
X110657550Y-78420629D01*
X110755772Y-78567629D01*
X110819228Y-78610029D01*
X113393375Y-81184178D01*
X113291000Y-81431334D01*
X113291000Y-82138666D01*
X113561684Y-82792156D01*
X114061844Y-83292316D01*
X114455400Y-83455332D01*
X114455400Y-84782560D01*
X113290000Y-84782560D01*
X113042235Y-84831843D01*
X112832191Y-84972191D01*
X112811964Y-85002462D01*
X105155331Y-77345830D01*
X105112929Y-77282371D01*
X104861537Y-77114396D01*
X104639852Y-77070300D01*
X104639847Y-77070300D01*
X104565000Y-77055412D01*
X104490153Y-77070300D01*
X104241920Y-77070300D01*
X104275000Y-76990439D01*
X104275000Y-76419561D01*
X104056534Y-75892138D01*
X103652862Y-75488466D01*
X103129000Y-75271475D01*
X103129000Y-71329691D01*
X103376156Y-71227316D01*
X103876316Y-70727156D01*
X104147000Y-70073666D01*
X104147000Y-69366334D01*
X103877209Y-68715000D01*
X103944330Y-68715000D01*
X104508507Y-68481310D01*
X104940310Y-68049507D01*
X105174000Y-67485330D01*
X105174000Y-66874670D01*
X104940310Y-66310493D01*
X104508507Y-65878690D01*
X103944330Y-65645000D01*
X103333670Y-65645000D01*
X102769493Y-65878690D01*
X102337690Y-66310493D01*
X102104000Y-66874670D01*
X102104000Y-67485330D01*
X102293159Y-67942000D01*
X102015334Y-67942000D01*
X101361844Y-68212684D01*
X100861684Y-68712844D01*
X100591000Y-69366334D01*
X100591000Y-70073666D01*
X100861684Y-70727156D01*
X101361844Y-71227316D01*
X101609001Y-71329692D01*
X101609000Y-75927062D01*
X101606723Y-75932560D01*
X99327064Y-75932560D01*
X99298157Y-75787235D01*
X99157809Y-75577191D01*
X98947765Y-75436843D01*
X98700000Y-75387560D01*
X97997807Y-75387560D01*
X98052629Y-75350929D01*
X98220604Y-75099537D01*
X98264700Y-74877852D01*
X98264700Y-74877848D01*
X98279588Y-74803001D01*
X98264700Y-74728154D01*
X98264700Y-69808900D01*
X99081921Y-69808900D01*
X100048152Y-69408674D01*
X100787674Y-68669152D01*
X101187900Y-67702921D01*
X101187900Y-66657079D01*
X100787674Y-65690848D01*
X100684700Y-65587874D01*
X100820881Y-65496881D01*
X100977805Y-65262028D01*
X101032909Y-64985000D01*
X101019000Y-64915074D01*
X101019000Y-60554926D01*
X101032909Y-60485000D01*
X100977805Y-60207972D01*
X100820881Y-59973119D01*
X100586028Y-59816195D01*
X100378926Y-59775000D01*
X100378925Y-59775000D01*
X100309000Y-59761091D01*
X100239074Y-59775000D01*
X96878925Y-59775000D01*
X96809000Y-59761091D01*
X96739074Y-59775000D01*
X96531972Y-59816195D01*
X96297119Y-59973119D01*
X96140195Y-60207972D01*
X96085091Y-60485000D01*
X96099000Y-60554926D01*
X96099001Y-64915069D01*
X96085091Y-64985000D01*
X96140195Y-65262028D01*
X96297119Y-65496881D01*
X96433300Y-65587874D01*
X96330326Y-65690848D01*
X95930100Y-66657079D01*
X95930100Y-66795698D01*
X90975100Y-61840699D01*
X90975100Y-49784240D01*
X91042119Y-49812000D01*
X91042119Y-49812000D01*
G37*
X91042119Y-49812000D02*
X91597881Y-49812000D01*
X91629219Y-49799020D01*
X110543700Y-68713502D01*
X110543701Y-77944848D01*
X110528812Y-78019700D01*
X110587797Y-78316237D01*
X110657550Y-78420629D01*
X110755772Y-78567629D01*
X110819228Y-78610029D01*
X113393375Y-81184178D01*
X113291000Y-81431334D01*
X113291000Y-82138666D01*
X113561684Y-82792156D01*
X114061844Y-83292316D01*
X114455400Y-83455332D01*
X114455400Y-84782560D01*
X113290000Y-84782560D01*
X113042235Y-84831843D01*
X112832191Y-84972191D01*
X112811964Y-85002462D01*
X105155331Y-77345830D01*
X105112929Y-77282371D01*
X104861537Y-77114396D01*
X104639852Y-77070300D01*
X104639847Y-77070300D01*
X104565000Y-77055412D01*
X104490153Y-77070300D01*
X104241920Y-77070300D01*
X104275000Y-76990439D01*
X104275000Y-76419561D01*
X104056534Y-75892138D01*
X103652862Y-75488466D01*
X103129000Y-75271475D01*
X103129000Y-71329691D01*
X103376156Y-71227316D01*
X103876316Y-70727156D01*
X104147000Y-70073666D01*
X104147000Y-69366334D01*
X103877209Y-68715000D01*
X103944330Y-68715000D01*
X104508507Y-68481310D01*
X104940310Y-68049507D01*
X105174000Y-67485330D01*
X105174000Y-66874670D01*
X104940310Y-66310493D01*
X104508507Y-65878690D01*
X103944330Y-65645000D01*
X103333670Y-65645000D01*
X102769493Y-65878690D01*
X102337690Y-66310493D01*
X102104000Y-66874670D01*
X102104000Y-67485330D01*
X102293159Y-67942000D01*
X102015334Y-67942000D01*
X101361844Y-68212684D01*
X100861684Y-68712844D01*
X100591000Y-69366334D01*
X100591000Y-70073666D01*
X100861684Y-70727156D01*
X101361844Y-71227316D01*
X101609001Y-71329692D01*
X101609000Y-75927062D01*
X101606723Y-75932560D01*
X99327064Y-75932560D01*
X99298157Y-75787235D01*
X99157809Y-75577191D01*
X98947765Y-75436843D01*
X98700000Y-75387560D01*
X97997807Y-75387560D01*
X98052629Y-75350929D01*
X98220604Y-75099537D01*
X98264700Y-74877852D01*
X98264700Y-74877848D01*
X98279588Y-74803001D01*
X98264700Y-74728154D01*
X98264700Y-69808900D01*
X99081921Y-69808900D01*
X100048152Y-69408674D01*
X100787674Y-68669152D01*
X101187900Y-67702921D01*
X101187900Y-66657079D01*
X100787674Y-65690848D01*
X100684700Y-65587874D01*
X100820881Y-65496881D01*
X100977805Y-65262028D01*
X101032909Y-64985000D01*
X101019000Y-64915074D01*
X101019000Y-60554926D01*
X101032909Y-60485000D01*
X100977805Y-60207972D01*
X100820881Y-59973119D01*
X100586028Y-59816195D01*
X100378926Y-59775000D01*
X100378925Y-59775000D01*
X100309000Y-59761091D01*
X100239074Y-59775000D01*
X96878925Y-59775000D01*
X96809000Y-59761091D01*
X96739074Y-59775000D01*
X96531972Y-59816195D01*
X96297119Y-59973119D01*
X96140195Y-60207972D01*
X96085091Y-60485000D01*
X96099000Y-60554926D01*
X96099001Y-64915069D01*
X96085091Y-64985000D01*
X96140195Y-65262028D01*
X96297119Y-65496881D01*
X96433300Y-65587874D01*
X96330326Y-65690848D01*
X95930100Y-66657079D01*
X95930100Y-66795698D01*
X90975100Y-61840699D01*
X90975100Y-49784240D01*
X91042119Y-49812000D01*
G36*
X85055680Y-49206337D02*
X85448663Y-49599320D01*
X85480000Y-49612300D01*
X85480001Y-72939296D01*
X82137900Y-76281398D01*
X82137900Y-76182079D01*
X81737674Y-75215848D01*
X81634700Y-75112874D01*
X81770881Y-75021881D01*
X81927805Y-74787028D01*
X81982909Y-74510000D01*
X81969000Y-74440074D01*
X81969000Y-70574902D01*
X82377500Y-70983402D01*
X82377500Y-71365474D01*
X82535069Y-71745880D01*
X82826220Y-72037031D01*
X83206626Y-72194600D01*
X83618374Y-72194600D01*
X83998780Y-72037031D01*
X84289931Y-71745880D01*
X84447500Y-71365474D01*
X84447500Y-70953726D01*
X84422658Y-70893753D01*
X84577431Y-70738980D01*
X84735000Y-70358574D01*
X84735000Y-69946826D01*
X84577431Y-69566420D01*
X84535000Y-69523989D01*
X84535000Y-49555657D01*
X84884320Y-49206337D01*
X84970000Y-48999487D01*
X85055680Y-49206337D01*
X85055680Y-49206337D01*
G37*
X85055680Y-49206337D02*
X85448663Y-49599320D01*
X85480000Y-49612300D01*
X85480001Y-72939296D01*
X82137900Y-76281398D01*
X82137900Y-76182079D01*
X81737674Y-75215848D01*
X81634700Y-75112874D01*
X81770881Y-75021881D01*
X81927805Y-74787028D01*
X81982909Y-74510000D01*
X81969000Y-74440074D01*
X81969000Y-70574902D01*
X82377500Y-70983402D01*
X82377500Y-71365474D01*
X82535069Y-71745880D01*
X82826220Y-72037031D01*
X83206626Y-72194600D01*
X83618374Y-72194600D01*
X83998780Y-72037031D01*
X84289931Y-71745880D01*
X84447500Y-71365474D01*
X84447500Y-70953726D01*
X84422658Y-70893753D01*
X84577431Y-70738980D01*
X84735000Y-70358574D01*
X84735000Y-69946826D01*
X84577431Y-69566420D01*
X84535000Y-69523989D01*
X84535000Y-49555657D01*
X84884320Y-49206337D01*
X84970000Y-48999487D01*
X85055680Y-49206337D01*
G36*
X97755680Y-49206337D02*
X98148663Y-49599320D01*
X98662119Y-49812000D01*
X99217881Y-49812000D01*
X99731337Y-49599320D01*
X99798328Y-49532329D01*
X113317200Y-63051203D01*
X113317201Y-75370012D01*
X112834330Y-75170000D01*
X112223670Y-75170000D01*
X112063700Y-75236262D01*
X112063700Y-68473548D01*
X112078588Y-68398700D01*
X112063700Y-68323852D01*
X112063700Y-68323848D01*
X112019604Y-68102163D01*
X111851629Y-67850771D01*
X111788173Y-67808371D01*
X93791801Y-49812000D01*
X94137881Y-49812000D01*
X94651337Y-49599320D01*
X95044320Y-49206337D01*
X95130000Y-48999487D01*
X95215680Y-49206337D01*
X95608663Y-49599320D01*
X96122119Y-49812000D01*
X96677881Y-49812000D01*
X97191337Y-49599320D01*
X97584320Y-49206337D01*
X97670000Y-48999487D01*
X97755680Y-49206337D01*
X97755680Y-49206337D01*
G37*
X97755680Y-49206337D02*
X98148663Y-49599320D01*
X98662119Y-49812000D01*
X99217881Y-49812000D01*
X99731337Y-49599320D01*
X99798328Y-49532329D01*
X113317200Y-63051203D01*
X113317201Y-75370012D01*
X112834330Y-75170000D01*
X112223670Y-75170000D01*
X112063700Y-75236262D01*
X112063700Y-68473548D01*
X112078588Y-68398700D01*
X112063700Y-68323852D01*
X112063700Y-68323848D01*
X112019604Y-68102163D01*
X111851629Y-67850771D01*
X111788173Y-67808371D01*
X93791801Y-49812000D01*
X94137881Y-49812000D01*
X94651337Y-49599320D01*
X95044320Y-49206337D01*
X95130000Y-48999487D01*
X95215680Y-49206337D01*
X95608663Y-49599320D01*
X96122119Y-49812000D01*
X96677881Y-49812000D01*
X97191337Y-49599320D01*
X97584320Y-49206337D01*
X97670000Y-48999487D01*
X97755680Y-49206337D01*
G36*
X90528663Y-34359320D02*
X91042119Y-34572000D01*
X91388198Y-34572000D01*
X87200728Y-38759471D01*
X87137272Y-38801871D01*
X87094872Y-38865327D01*
X87094871Y-38865328D01*
X86969297Y-39053263D01*
X86910312Y-39349800D01*
X86925201Y-39424652D01*
X86925201Y-47186717D01*
X86517881Y-47018000D01*
X85962119Y-47018000D01*
X85448663Y-47230680D01*
X85055680Y-47623663D01*
X84970000Y-47830513D01*
X84884320Y-47623663D01*
X84491337Y-47230680D01*
X83977881Y-47018000D01*
X83422119Y-47018000D01*
X82908663Y-47230680D01*
X82515680Y-47623663D01*
X82430000Y-47830513D01*
X82344320Y-47623663D01*
X81951337Y-47230680D01*
X81920000Y-47217700D01*
X81920000Y-42675001D01*
X90382172Y-34212829D01*
X90528663Y-34359320D01*
X90528663Y-34359320D01*
G37*
X90528663Y-34359320D02*
X91042119Y-34572000D01*
X91388198Y-34572000D01*
X87200728Y-38759471D01*
X87137272Y-38801871D01*
X87094872Y-38865327D01*
X87094871Y-38865328D01*
X86969297Y-39053263D01*
X86910312Y-39349800D01*
X86925201Y-39424652D01*
X86925201Y-47186717D01*
X86517881Y-47018000D01*
X85962119Y-47018000D01*
X85448663Y-47230680D01*
X85055680Y-47623663D01*
X84970000Y-47830513D01*
X84884320Y-47623663D01*
X84491337Y-47230680D01*
X83977881Y-47018000D01*
X83422119Y-47018000D01*
X82908663Y-47230680D01*
X82515680Y-47623663D01*
X82430000Y-47830513D01*
X82344320Y-47623663D01*
X81951337Y-47230680D01*
X81920000Y-47217700D01*
X81920000Y-42675001D01*
X90382172Y-34212829D01*
X90528663Y-34359320D01*
G36*
X95608663Y-34359320D02*
X96122119Y-34572000D01*
X96677881Y-34572000D01*
X96709218Y-34559020D01*
X99450000Y-37299802D01*
X99450001Y-47114147D01*
X99217881Y-47018000D01*
X98662119Y-47018000D01*
X98148663Y-47230680D01*
X97755680Y-47623663D01*
X97670000Y-47830513D01*
X97584320Y-47623663D01*
X97191337Y-47230680D01*
X96677881Y-47018000D01*
X96122119Y-47018000D01*
X95608663Y-47230680D01*
X95215680Y-47623663D01*
X95130000Y-47830513D01*
X95044320Y-47623663D01*
X94651337Y-47230680D01*
X94137881Y-47018000D01*
X93582119Y-47018000D01*
X93068663Y-47230680D01*
X92675680Y-47623663D01*
X92590000Y-47830513D01*
X92504320Y-47623663D01*
X92111337Y-47230680D01*
X91597881Y-47018000D01*
X91042119Y-47018000D01*
X90975100Y-47045760D01*
X90975100Y-38858901D01*
X95453173Y-34380829D01*
X95516629Y-34338429D01*
X95545125Y-34295782D01*
X95608663Y-34359320D01*
X95608663Y-34359320D01*
G37*
X95608663Y-34359320D02*
X96122119Y-34572000D01*
X96677881Y-34572000D01*
X96709218Y-34559020D01*
X99450000Y-37299802D01*
X99450001Y-47114147D01*
X99217881Y-47018000D01*
X98662119Y-47018000D01*
X98148663Y-47230680D01*
X97755680Y-47623663D01*
X97670000Y-47830513D01*
X97584320Y-47623663D01*
X97191337Y-47230680D01*
X96677881Y-47018000D01*
X96122119Y-47018000D01*
X95608663Y-47230680D01*
X95215680Y-47623663D01*
X95130000Y-47830513D01*
X95044320Y-47623663D01*
X94651337Y-47230680D01*
X94137881Y-47018000D01*
X93582119Y-47018000D01*
X93068663Y-47230680D01*
X92675680Y-47623663D01*
X92590000Y-47830513D01*
X92504320Y-47623663D01*
X92111337Y-47230680D01*
X91597881Y-47018000D01*
X91042119Y-47018000D01*
X90975100Y-47045760D01*
X90975100Y-38858901D01*
X95453173Y-34380829D01*
X95516629Y-34338429D01*
X95545125Y-34295782D01*
X95608663Y-34359320D01*
G36*
X102835680Y-33966337D02*
X103228663Y-34359320D01*
X103742119Y-34572000D01*
X104297881Y-34572000D01*
X104563025Y-34462174D01*
X103535530Y-35489669D01*
X103472071Y-35532071D01*
X103304096Y-35783464D01*
X103260000Y-36005149D01*
X103260000Y-36005153D01*
X103245112Y-36080000D01*
X103260000Y-36154847D01*
X103260001Y-47217699D01*
X103228663Y-47230680D01*
X102835680Y-47623663D01*
X102750000Y-47830513D01*
X102664320Y-47623663D01*
X102271337Y-47230680D01*
X101757881Y-47018000D01*
X101202119Y-47018000D01*
X100970000Y-47114147D01*
X100970000Y-37059848D01*
X100984888Y-36985000D01*
X100970000Y-36910152D01*
X100970000Y-36910148D01*
X100925904Y-36688463D01*
X100925904Y-36688462D01*
X100800329Y-36500527D01*
X100757929Y-36437071D01*
X100694473Y-36394671D01*
X98871802Y-34572000D01*
X99217881Y-34572000D01*
X99731337Y-34359320D01*
X100124320Y-33966337D01*
X100210000Y-33759487D01*
X100295680Y-33966337D01*
X100688663Y-34359320D01*
X101202119Y-34572000D01*
X101757881Y-34572000D01*
X102271337Y-34359320D01*
X102664320Y-33966337D01*
X102750000Y-33759487D01*
X102835680Y-33966337D01*
X102835680Y-33966337D01*
G37*
X102835680Y-33966337D02*
X103228663Y-34359320D01*
X103742119Y-34572000D01*
X104297881Y-34572000D01*
X104563025Y-34462174D01*
X103535530Y-35489669D01*
X103472071Y-35532071D01*
X103304096Y-35783464D01*
X103260000Y-36005149D01*
X103260000Y-36005153D01*
X103245112Y-36080000D01*
X103260000Y-36154847D01*
X103260001Y-47217699D01*
X103228663Y-47230680D01*
X102835680Y-47623663D01*
X102750000Y-47830513D01*
X102664320Y-47623663D01*
X102271337Y-47230680D01*
X101757881Y-47018000D01*
X101202119Y-47018000D01*
X100970000Y-47114147D01*
X100970000Y-37059848D01*
X100984888Y-36985000D01*
X100970000Y-36910152D01*
X100970000Y-36910148D01*
X100925904Y-36688463D01*
X100925904Y-36688462D01*
X100800329Y-36500527D01*
X100757929Y-36437071D01*
X100694473Y-36394671D01*
X98871802Y-34572000D01*
X99217881Y-34572000D01*
X99731337Y-34359320D01*
X100124320Y-33966337D01*
X100210000Y-33759487D01*
X100295680Y-33966337D01*
X100688663Y-34359320D01*
X101202119Y-34572000D01*
X101757881Y-34572000D01*
X102271337Y-34359320D01*
X102664320Y-33966337D01*
X102750000Y-33759487D01*
X102835680Y-33966337D01*
G36*
X89455101Y-47182533D02*
X89057881Y-47018000D01*
X88502119Y-47018000D01*
X88445200Y-47041577D01*
X88445200Y-39664601D01*
X89455101Y-38654700D01*
X89455101Y-47182533D01*
X89455101Y-47182533D01*
G37*
X89455101Y-47182533D02*
X89057881Y-47018000D01*
X88502119Y-47018000D01*
X88445200Y-47041577D01*
X88445200Y-39664601D01*
X89455101Y-38654700D01*
X89455101Y-47182533D01*
G36*
X124169372Y-27173462D02*
X123424678Y-26865000D01*
X122575322Y-26865000D01*
X121790620Y-27190034D01*
X121190034Y-27790620D01*
X120865000Y-28575322D01*
X120865000Y-29424678D01*
X121190034Y-30209380D01*
X121790620Y-30809966D01*
X122575322Y-31135000D01*
X123424678Y-31135000D01*
X124209380Y-30809966D01*
X124809966Y-30209380D01*
X125135000Y-29424678D01*
X125135000Y-28575322D01*
X124826538Y-27830629D01*
X125290001Y-28294092D01*
X125290001Y-38370462D01*
X125200000Y-38352560D01*
X124798797Y-38352560D01*
X124690329Y-38190227D01*
X124647929Y-38126771D01*
X124584473Y-38084371D01*
X118174067Y-31673966D01*
X118335000Y-31285439D01*
X118335000Y-30714561D01*
X118116534Y-30187138D01*
X117712862Y-29783466D01*
X117660000Y-29761570D01*
X117660000Y-29447440D01*
X117700000Y-29447440D01*
X117947765Y-29398157D01*
X118157809Y-29257809D01*
X118298157Y-29047765D01*
X118347440Y-28800000D01*
X118347440Y-27200000D01*
X118298157Y-26952235D01*
X118157809Y-26742191D01*
X118109632Y-26710000D01*
X123705910Y-26710000D01*
X124169372Y-27173462D01*
X124169372Y-27173462D01*
G37*
X124169372Y-27173462D02*
X123424678Y-26865000D01*
X122575322Y-26865000D01*
X121790620Y-27190034D01*
X121190034Y-27790620D01*
X120865000Y-28575322D01*
X120865000Y-29424678D01*
X121190034Y-30209380D01*
X121790620Y-30809966D01*
X122575322Y-31135000D01*
X123424678Y-31135000D01*
X124209380Y-30809966D01*
X124809966Y-30209380D01*
X125135000Y-29424678D01*
X125135000Y-28575322D01*
X124826538Y-27830629D01*
X125290001Y-28294092D01*
X125290001Y-38370462D01*
X125200000Y-38352560D01*
X124798797Y-38352560D01*
X124690329Y-38190227D01*
X124647929Y-38126771D01*
X124584473Y-38084371D01*
X118174067Y-31673966D01*
X118335000Y-31285439D01*
X118335000Y-30714561D01*
X118116534Y-30187138D01*
X117712862Y-29783466D01*
X117660000Y-29761570D01*
X117660000Y-29447440D01*
X117700000Y-29447440D01*
X117947765Y-29398157D01*
X118157809Y-29257809D01*
X118298157Y-29047765D01*
X118347440Y-28800000D01*
X118347440Y-27200000D01*
X118298157Y-26952235D01*
X118157809Y-26742191D01*
X118109632Y-26710000D01*
X123705910Y-26710000D01*
X124169372Y-27173462D01*
G04 #@! TD*
M02*
