G04 #@! TF.GenerationSoftware,KiCad,Pcbnew,5.0.2-bee76a0~70~ubuntu18.04.1*
G04 #@! TF.CreationDate,2019-05-23T01:45:31+09:00*
G04 #@! TF.ProjectId,meishi666,6d656973-6869-4363-9636-2e6b69636164,rev?*
G04 #@! TF.SameCoordinates,Original*
G04 #@! TF.FileFunction,Profile,NP*
%FSLAX46Y46*%
G04 Gerber Fmt 4.6, Leading zero omitted, Abs format (unit mm)*
G04 Created by KiCad (PCBNEW 5.0.2-bee76a0~70~ubuntu18.04.1) date 2019年05月23日 01時45分31秒*
%MOMM*%
%LPD*%
G01*
G04 APERTURE LIST*
%ADD10C,0.150000*%
G04 #@! TA.AperFunction,NonConductor*
%ADD11C,0.150000*%
G04 #@! TD*
G04 APERTURE END LIST*
D10*
X124000000Y-26000000D02*
X126000000Y-28000000D01*
X73000000Y-26000000D02*
X71000000Y-28000000D01*
X73000000Y-117000000D02*
X71000000Y-115000000D01*
X124000000Y-117000000D02*
X126000000Y-115000000D01*
X124000000Y-26000000D02*
X73000000Y-26000000D01*
X126000000Y-115000000D02*
X126000000Y-28000000D01*
X73000000Y-117000000D02*
X124000000Y-117000000D01*
X71000000Y-28000000D02*
X71000000Y-115000000D01*
D11*
G04 #@! TO.C,L4*
X115859000Y-89060000D02*
X115859000Y-93560000D01*
X119359000Y-89060000D02*
X119359000Y-93560000D01*
X115859000Y-89060000D02*
X119359000Y-89060000D01*
X119359000Y-93560000D02*
X115859000Y-93560000D01*
G04 #@! TO.C,L1*
X77759000Y-70010000D02*
X77759000Y-74510000D01*
X81259000Y-70010000D02*
X81259000Y-74510000D01*
X77759000Y-70010000D02*
X81259000Y-70010000D01*
X81259000Y-74510000D02*
X77759000Y-74510000D01*
G04 #@! TO.C,L2*
X96809000Y-60485000D02*
X96809000Y-64985000D01*
X100309000Y-60485000D02*
X100309000Y-64985000D01*
X96809000Y-60485000D02*
X100309000Y-60485000D01*
X100309000Y-64985000D02*
X96809000Y-64985000D01*
G04 #@! TO.C,L3*
X115859000Y-70010000D02*
X115859000Y-74510000D01*
X119359000Y-70010000D02*
X119359000Y-74510000D01*
X115859000Y-70010000D02*
X119359000Y-70010000D01*
X119359000Y-74510000D02*
X115859000Y-74510000D01*
G04 #@! TO.C,L6*
X77759000Y-89060000D02*
X77759000Y-93560000D01*
X81259000Y-89060000D02*
X81259000Y-93560000D01*
X77759000Y-89060000D02*
X81259000Y-89060000D01*
X81259000Y-93560000D02*
X77759000Y-93560000D01*
G04 #@! TO.C,L5*
X96869000Y-98585000D02*
X96869000Y-103085000D01*
X100369000Y-98585000D02*
X100369000Y-103085000D01*
X96869000Y-98585000D02*
X100369000Y-98585000D01*
X100369000Y-103085000D02*
X96869000Y-103085000D01*
G04 #@! TO.C,L7*
X96869000Y-79535000D02*
X96869000Y-84035000D01*
X100369000Y-79535000D02*
X100369000Y-84035000D01*
X96869000Y-79535000D02*
X100369000Y-79535000D01*
X100369000Y-84035000D02*
X96869000Y-84035000D01*
G04 #@! TD*
M02*
